# WaveFront *.obj file (generated by Cinema 4D)

mtllib ./CARDBOARDCLOUD01.mtl

v 92.972638 -10.723597 2.910203
v 94.066858 -8.264761 2.910203
v 94.920762 -5.721880 2.910203
v 95.530229 -3.112599 2.910203
v 95.891137 -0.454565 2.910203
v 95.999365 2.234575 2.910203
v 95.860650 5.063006 2.910203
v 95.453294 7.817645 2.910203
v 94.790522 10.485226 2.910203
v 93.885558 13.052479 2.910203
v 92.751630 15.506135 2.910203
v 91.401962 17.832926 2.910203
v 89.849781 20.019582 2.910203
v 88.108311 22.052835 2.910203
v 86.190778 23.919415 2.910203
v 84.110408 25.606055 2.910203
v 81.880427 27.099485 2.910203
v 79.514060 28.386437 2.910203
v 77.024533 29.453641 2.910203
v 74.425071 30.287829 2.910203
v 71.728900 30.875732 2.910203
v 69.884256 31.124290 2.910203
v 67.056293 31.272232 2.910203
v 64.463984 31.144931 2.910203
v 61.901342 30.792618 2.910203
v 59.106345 30.141712 2.910203
v 56.653819 29.326405 2.910203
v 55.059381 28.663967 2.910203
v 53.246854 27.772579 2.910203
v 53.376743 29.046865 2.910203
v 53.436025 30.326380 2.910203
v 53.233866 33.471974 2.910203
v 52.640056 36.531720 2.910203
v 51.673596 39.491275 2.910203
v 50.353485 42.336297 2.910203
v 48.698725 45.052444 2.910203
v 46.728315 47.625374 2.910203
v 44.461255 50.040745 2.910203
v 41.916546 52.284214 2.910203
v 38.124542 54.983316 2.910203
v 33.917756 57.317321 2.910203
v 29.341224 59.252235 2.910203
v 24.439986 60.754060 2.910203
v 19.259078 61.788801 2.910203
v 15.216956 62.237882 2.910203
v 11.061855 62.390763 2.910203
v 5.545888 62.120391 2.910203
v 0.242034 61.331941 2.910203
v -4.804669 60.059408 2.910203
v -9.549183 58.336790 2.910203
v -13.946472 56.198080 2.910203
v -17.951497 53.677277 2.910203
v -20.670749 51.556377 2.910203
v -23.125020 49.254013 2.910203
v -25.295307 46.784529 2.910203
v -27.162612 44.162267 2.910203
v -28.707934 41.401567 2.910203
v -29.912272 38.516774 2.910203
v -30.756627 35.522229 2.910203
v -31.110156 33.471974 2.910203
v -31.312315 30.326380 2.910203
v -31.312315 30.042624 2.910203
v -33.486166 31.861316 2.910203
v -35.800614 33.466352 2.910203
v -38.239611 34.851556 2.910203
v -40.787109 36.010750 2.910203
v -43.427061 36.937755 2.910203
v -46.143418 37.626394 2.910203
v -48.920133 38.070489 2.910203
v -50.796882 38.227644 2.910203
v -52.688570 38.271537 2.910203
v -55.715130 38.133713 2.910203
v -58.656699 37.728742 2.910203
v -61.499794 37.069371 2.910203
v -64.230931 36.168349 2.910203
v -66.836624 35.038425 2.910203
v -69.303391 33.692348 2.910203
v -71.617747 32.142865 2.910203
v -73.766208 30.402726 2.910203
v -75.735291 28.484679 2.910203
v -77.511510 26.401472 2.910203
v -79.081382 24.165855 2.910203
v -80.431423 21.790575 2.910203
v -81.548149 19.288382 2.910203
v -82.418076 16.672024 2.910203
v -83.027719 13.954249 2.910203
v -83.282887 12.092352 2.910203
v -83.428760 9.233880 2.910203
v -83.319672 6.691840 2.910203
v -83.035858 4.449655 2.910203
v -82.577493 2.234575 2.910203
v -82.766664 2.234575 2.910203
v -85.770526 2.087236 2.910203
v -88.696002 1.654558 2.910203
v -91.528997 0.950590 2.910203
v -94.255416 -0.010616 2.910203
v -96.861167 -1.215009 2.910203
v -99.332155 -2.648540 2.910203
v -101.654287 -4.297157 2.910203
v -103.813468 -6.146809 2.910203
v -105.795605 -8.183447 2.910203
v -107.586603 -10.393019 2.910203
v -109.172370 -12.761475 2.910203
v -110.538810 -15.274764 2.910203
v -111.671831 -17.918835 2.910203
v -112.557338 -20.679638 2.910203
v -113.181237 -23.543123 2.910203
v -113.444872 -25.502219 2.910203
v -113.601439 -28.505615 2.910203
v -113.451704 -31.500508 2.910203
v -113.012389 -34.355248 2.910203
v -112.298326 -37.068610 2.910203
v -111.324348 -39.639367 2.910203
v -110.105286 -42.066295 2.910203
v -108.655974 -44.348167 2.910203
v -106.991243 -46.483757 2.910203
v -105.125927 -48.471839 2.910203
v -102.352453 -50.891041 2.910203
v -99.283909 -53.042922 2.910203
v -95.955454 -54.924578 2.910203
v -91.482948 -56.892215 2.910203
v -87.698241 -58.155237 2.910203
v -82.766664 -59.340390 2.910203
v -75.963031 -60.236749 2.910203
v -18.845462 -62.283642 2.910203
v 40.891757 -61.860991 2.910203
v 89.189230 -59.340390 2.910203
v 92.361119 -58.826670 2.910203
v 95.412422 -58.020059 2.910203
v 98.316990 -56.932762 2.910203
v 101.048671 -55.576983 2.910203
v 103.581314 -53.964924 2.910203
v 105.888770 -52.108790 2.910203
v 107.455850 -50.563856 2.910203
v 108.870519 -48.893644 2.910203
v 110.121745 -47.103300 2.910203
v 111.198495 -45.197975 2.910203
v 112.089737 -43.182815 2.910203
v 112.784439 -41.062970 2.910203
v 113.271568 -38.843588 2.910203
v 113.475554 -37.311244 2.910203
v 113.592212 -34.937408 2.910203
v 113.500577 -32.798571 2.910203
v 113.095451 -30.017885 2.910203
v 112.383173 -27.337496 2.910203
v 111.381432 -24.778175 2.910203
v 110.107918 -22.360695 2.910203
v 108.580319 -20.105829 2.910203
v 106.816326 -18.034351 2.910203
v 104.833627 -16.167032 2.910203
v 102.649911 -14.524645 2.910203
v 100.282869 -13.127964 2.910203
v 97.750188 -11.997760 2.910203
v 95.752620 -11.337480 2.910203
v 92.972638 -10.723597 -2.889797
v 94.066858 -8.264761 -2.889797
v 94.920762 -5.721880 -2.889797
v 95.530229 -3.112599 -2.889797
v 95.891137 -0.454565 -2.889797
v 95.999365 2.234575 -2.889797
v 95.860650 5.063006 -2.889797
v 95.453294 7.817645 -2.889797
v 94.790522 10.485226 -2.889797
v 93.885558 13.052479 -2.889797
v 92.751630 15.506135 -2.889797
v 91.401962 17.832926 -2.889797
v 89.849781 20.019582 -2.889797
v 88.108311 22.052835 -2.889797
v 86.190778 23.919415 -2.889797
v 84.110408 25.606055 -2.889797
v 81.880427 27.099485 -2.889797
v 79.514060 28.386437 -2.889797
v 77.024533 29.453641 -2.889797
v 74.425071 30.287829 -2.889797
v 71.728900 30.875732 -2.889797
v 69.884256 31.124290 -2.889797
v 67.056293 31.272232 -2.889797
v 64.463984 31.144931 -2.889797
v 61.901342 30.792618 -2.889797
v 59.106345 30.141712 -2.889797
v 56.653819 29.326405 -2.889797
v 55.059381 28.663967 -2.889797
v 53.246854 27.772579 -2.889797
v 53.376743 29.046865 -2.889797
v 53.436025 30.326380 -2.889797
v 53.233866 33.471974 -2.889797
v 52.640056 36.531720 -2.889797
v 51.673596 39.491275 -2.889797
v 50.353485 42.336297 -2.889797
v 48.698725 45.052444 -2.889797
v 46.728315 47.625374 -2.889797
v 44.461255 50.040745 -2.889797
v 41.916546 52.284214 -2.889797
v 38.124542 54.983316 -2.889797
v 33.917756 57.317321 -2.889797
v 29.341224 59.252235 -2.889797
v 24.439986 60.754060 -2.889797
v 19.259078 61.788801 -2.889797
v 15.216956 62.237882 -2.889797
v 11.061855 62.390763 -2.889797
v 5.545888 62.120391 -2.889797
v 0.242034 61.331941 -2.889797
v -4.804669 60.059408 -2.889797
v -9.549183 58.336790 -2.889797
v -13.946472 56.198080 -2.889797
v -17.951497 53.677277 -2.889797
v -20.670749 51.556377 -2.889797
v -23.125020 49.254013 -2.889797
v -25.295307 46.784529 -2.889797
v -27.162612 44.162267 -2.889797
v -28.707934 41.401567 -2.889797
v -29.912272 38.516774 -2.889797
v -30.756627 35.522229 -2.889797
v -31.110156 33.471974 -2.889797
v -31.312315 30.326380 -2.889797
v -31.312315 30.042624 -2.889797
v -33.486166 31.861316 -2.889797
v -35.800614 33.466352 -2.889797
v -38.239611 34.851556 -2.889797
v -40.787109 36.010750 -2.889797
v -43.427061 36.937755 -2.889797
v -46.143418 37.626394 -2.889797
v -48.920133 38.070489 -2.889797
v -50.796882 38.227644 -2.889797
v -52.688570 38.271537 -2.889797
v -55.715130 38.133713 -2.889797
v -58.656699 37.728742 -2.889797
v -61.499794 37.069371 -2.889797
v -64.230931 36.168349 -2.889797
v -66.836624 35.038425 -2.889797
v -69.303391 33.692348 -2.889797
v -71.617747 32.142865 -2.889797
v -73.766208 30.402726 -2.889797
v -75.735291 28.484679 -2.889797
v -77.511510 26.401472 -2.889797
v -79.081382 24.165855 -2.889797
v -80.431423 21.790575 -2.889797
v -81.548149 19.288382 -2.889797
v -82.418076 16.672024 -2.889797
v -83.027719 13.954249 -2.889797
v -83.282887 12.092352 -2.889797
v -83.428760 9.233880 -2.889797
v -83.319672 6.691840 -2.889797
v -83.035858 4.449655 -2.889797
v -82.577493 2.234575 -2.889797
v -82.766664 2.234575 -2.889797
v -85.770526 2.087236 -2.889797
v -88.696002 1.654558 -2.889797
v -91.528997 0.950590 -2.889797
v -94.255416 -0.010616 -2.889797
v -96.861167 -1.215009 -2.889797
v -99.332155 -2.648540 -2.889797
v -101.654287 -4.297157 -2.889797
v -103.813468 -6.146809 -2.889797
v -105.795605 -8.183447 -2.889797
v -107.586603 -10.393019 -2.889797
v -109.172370 -12.761475 -2.889797
v -110.538810 -15.274764 -2.889797
v -111.671831 -17.918835 -2.889797
v -112.557338 -20.679638 -2.889797
v -113.181237 -23.543123 -2.889797
v -113.444872 -25.502219 -2.889797
v -113.601439 -28.505615 -2.889797
v -113.451704 -31.500508 -2.889797
v -113.012389 -34.355248 -2.889797
v -112.298326 -37.068610 -2.889797
v -111.324348 -39.639367 -2.889797
v -110.105286 -42.066295 -2.889797
v -108.655974 -44.348167 -2.889797
v -106.991243 -46.483757 -2.889797
v -105.125927 -48.471839 -2.889797
v -102.352453 -50.891041 -2.889797
v -99.283909 -53.042922 -2.889797
v -95.955454 -54.924578 -2.889797
v -91.482948 -56.892215 -2.889797
v -87.698241 -58.155237 -2.889797
v -82.766664 -59.340390 -2.889797
v -75.963031 -60.236749 -2.889797
v -18.845462 -62.283642 -2.889797
v 40.891757 -61.860991 -2.889797
v 89.189230 -59.340390 -2.889797
v 92.361119 -58.826670 -2.889797
v 95.412422 -58.020059 -2.889797
v 98.316990 -56.932762 -2.889797
v 101.048671 -55.576983 -2.889797
v 103.581314 -53.964924 -2.889797
v 105.888770 -52.108790 -2.889797
v 107.455850 -50.563856 -2.889797
v 108.870519 -48.893644 -2.889797
v 110.121745 -47.103300 -2.889797
v 111.198495 -45.197975 -2.889797
v 112.089737 -43.182815 -2.889797
v 112.784439 -41.062970 -2.889797
v 113.271568 -38.843588 -2.889797
v 113.475554 -37.311244 -2.889797
v 113.592212 -34.937408 -2.889797
v 113.500577 -32.798571 -2.889797
v 113.095451 -30.017885 -2.889797
v 112.383173 -27.337496 -2.889797
v 111.381432 -24.778175 -2.889797
v 110.107918 -22.360695 -2.889797
v 108.580319 -20.105829 -2.889797
v 106.816326 -18.034351 -2.889797
v 104.833627 -16.167032 -2.889797
v 102.649911 -14.524645 -2.889797
v 100.282869 -13.127964 -2.889797
v 97.750188 -11.997760 -2.889797
v 95.752620 -11.337480 -2.889797
v 95.675647 -11.617469 3.200203
v 97.645328 -12.268531 3.200203
v 100.149665 -13.386087 3.200203
v 102.488565 -14.766163 3.200203
v 104.646486 -16.389149 3.200203
v 106.605881 -18.234520 3.200203
v 108.349180 -20.281696 3.200203
v 109.858824 -22.510059 3.200203
v 111.117295 -24.898983 3.200203
v 112.107126 -27.427875 3.200203
v 112.810889 -30.076222 3.200203
v 113.211476 -32.825753 3.200203
v 113.301907 -34.936496 3.200203
v 113.186497 -37.284948 3.200203
v 112.985707 -38.793280 3.200203
v 112.504313 -40.986535 3.200203
v 111.818665 -43.078752 3.200203
v 110.939027 -45.067673 3.200203
v 109.876096 -46.948545 3.200203
v 108.640528 -48.716484 3.200203
v 107.242978 -50.366485 3.200203
v 105.695596 -51.891999 3.200203
v 103.412053 -53.728898 3.200203
v 100.905946 -55.324066 3.200203
v 98.201389 -56.666383 3.200203
v 95.324311 -57.743390 3.200203
v 92.300734 -58.542671 3.200203
v 89.158400 -59.051604 3.200203
v 40.883170 -61.571044 3.200203
v -18.841293 -61.993605 3.200203
v -75.938843 -59.947430 3.200203
v -82.713697 -59.054862 3.200203
v -87.618311 -57.876190 3.200203
v -91.378434 -56.621371 3.200203
v -95.825380 -54.664979 3.200203
v -99.128933 -52.797401 3.200203
v -102.173386 -50.662414 3.200203
v -104.924367 -48.262832 3.200203
v -106.770680 -46.295004 3.200203
v -108.418666 -44.180894 3.200203
v -109.852680 -41.923109 3.200203
v -111.058472 -39.522598 3.200203
v -112.021747 -36.980092 3.200203
v -112.728073 -34.296129 3.200203
v -113.162811 -31.471135 3.200203
v -113.311061 -28.505924 3.200203
v -113.155882 -25.529151 3.200203
v -112.895390 -23.593412 3.200203
v -112.276946 -20.754965 3.200203
v -111.399874 -18.020459 3.200203
v -110.277576 -15.401410 3.200203
v -108.923967 -12.911723 3.200203
v -107.352987 -10.565352 3.200203
v -105.578604 -8.376278 3.200203
v -103.614816 -6.358494 3.200203
v -101.475644 -4.525982 3.200203
v -99.175122 -2.892707 3.200203
v -96.727281 -1.472605 3.200203
v -94.146127 -0.279581 3.200203
v -91.445628 0.672487 3.200203
v -88.639688 1.369732 3.200203
v -85.742140 1.798280 3.200203
v -82.759556 1.944575 3.200203
v -82.221340 1.944575 3.200203
v -82.749578 4.497319 3.200203
v -83.030455 6.716308 3.200203
v -83.138443 9.232704 3.200203
v -82.993894 12.065225 3.200203
v -82.742068 13.902732 3.200203
v -82.138294 16.594342 3.200203
v -81.277484 19.183282 3.200203
v -80.172341 21.659523 3.200203
v -78.836099 24.010525 3.200203
v -77.282002 26.223676 3.200203
v -75.523324 28.286309 3.200203
v -73.573367 30.185727 3.200203
v -71.445461 31.909218 3.200203
v -69.152959 33.444069 3.200203
v -66.709221 34.777580 3.200203
v -64.127604 35.897063 3.200203
v -61.421446 36.789844 3.200203
v -58.604055 37.443254 3.200203
v -55.688703 37.844616 3.200203
v -52.685333 37.981383 3.200203
v -50.812359 37.937925 3.200203
v -48.955181 37.782409 3.200203
v -46.202068 37.342088 3.200203
v -43.510901 36.659835 3.200203
v -40.895420 35.741423 3.200203
v -38.371538 34.592976 3.200203
v -35.955164 33.220621 3.200203
v -33.662197 31.630481 3.200203
v -31.022315 29.421897 3.200203
v -31.022315 30.317071 3.200203
v -30.821745 33.437939 3.200203
v -30.473411 35.458066 3.200203
v -29.637909 38.421215 3.200203
v -28.446740 41.274463 3.200203
v -26.917251 44.006877 3.200203
v -25.067684 46.604231 3.200203
v -22.916415 49.052074 3.200203
v -20.481976 51.335834 3.200203
v -17.784660 53.439625 3.200203
v -13.805394 55.944215 3.200203
v -9.435970 58.069372 3.200203
v -4.719513 59.781804 3.200203
v 0.298948 61.047215 3.200203
v 5.574377 61.831440 3.200203
v 11.063626 62.100501 3.200203
v 15.195585 61.948472 3.200203
v 19.214585 61.501960 3.200203
v 24.368928 60.472525 3.200203
v 29.242017 58.979325 3.200203
v 33.790583 57.056235 3.200203
v 37.969625 54.737622 3.200203
v 41.736084 52.056703 3.200203
v 44.259189 49.832281 3.200203
v 46.506915 47.437509 3.200203
v 48.459099 44.888378 3.200203
v 50.097313 42.199391 3.200203
v 51.403276 39.384857 3.200203
v 52.358796 36.458804 3.200203
v 52.945650 33.434899 3.200203
v 53.145593 30.323783 3.200203
v 53.087425 29.068296 3.200203
v 52.905288 27.281427 3.200203
v 55.179124 28.399683 3.200203
v 56.755327 29.054546 3.200203
v 59.185142 29.862302 3.200203
v 61.954091 30.507142 3.200203
v 64.490896 30.855903 3.200203
v 67.055829 30.981860 3.200203
v 69.857273 30.835305 3.200203
v 71.678563 30.589894 3.200203
v 74.349700 30.007450 3.200203
v 76.922870 29.181699 3.200203
v 79.387379 28.125219 3.200203
v 81.730148 26.851102 3.200203
v 83.938049 25.372459 3.200203
v 85.997925 23.702435 3.200203
v 87.896608 21.854202 3.200203
v 89.620941 19.840958 3.200203
v 91.157784 17.675910 3.200203
v 92.494026 15.372265 3.200203
v 93.616588 12.943204 3.200203
v 94.512416 10.401868 3.200203
v 95.168467 7.761339 3.200203
v 95.571694 5.034623 3.200203
v 95.709079 2.233301 3.200203
v 95.601924 -0.429168 3.200203
v 95.244711 -3.059991 3.200203
v 94.641482 -5.642564 3.200203
v 93.796320 -8.159414 3.200203
v 92.563283 -10.930189 3.200203
v 95.675647 -11.617469 -3.179797
v 97.645328 -12.268531 -3.179797
v 100.149665 -13.386087 -3.179797
v 102.488565 -14.766163 -3.179797
v 104.646486 -16.389149 -3.179797
v 106.605881 -18.234520 -3.179797
v 108.349180 -20.281696 -3.179797
v 109.858824 -22.510059 -3.179797
v 111.117295 -24.898983 -3.179797
v 112.107126 -27.427875 -3.179797
v 112.810889 -30.076222 -3.179797
v 113.211476 -32.825753 -3.179797
v 113.301907 -34.936496 -3.179797
v 113.186497 -37.284948 -3.179797
v 112.985707 -38.793280 -3.179797
v 112.504313 -40.986535 -3.179797
v 111.818665 -43.078752 -3.179797
v 110.939027 -45.067673 -3.179797
v 109.876096 -46.948545 -3.179797
v 108.640528 -48.716484 -3.179797
v 107.242978 -50.366485 -3.179797
v 105.695596 -51.891999 -3.179797
v 103.412053 -53.728898 -3.179797
v 100.905946 -55.324066 -3.179797
v 98.201389 -56.666383 -3.179797
v 95.324311 -57.743390 -3.179797
v 92.300734 -58.542671 -3.179797
v 89.158400 -59.051604 -3.179797
v 40.883170 -61.571044 -3.179797
v -18.841293 -61.993605 -3.179797
v -75.938843 -59.947430 -3.179797
v -82.713697 -59.054862 -3.179797
v -87.618311 -57.876190 -3.179797
v -91.378434 -56.621371 -3.179797
v -95.825380 -54.664979 -3.179797
v -99.128933 -52.797401 -3.179797
v -102.173386 -50.662414 -3.179797
v -104.924367 -48.262832 -3.179797
v -106.770680 -46.295004 -3.179797
v -108.418666 -44.180894 -3.179797
v -109.852680 -41.923109 -3.179797
v -111.058472 -39.522598 -3.179797
v -112.021747 -36.980092 -3.179797
v -112.728073 -34.296129 -3.179797
v -113.162811 -31.471135 -3.179797
v -113.311061 -28.505924 -3.179797
v -113.155882 -25.529151 -3.179797
v -112.895390 -23.593412 -3.179797
v -112.276946 -20.754965 -3.179797
v -111.399874 -18.020459 -3.179797
v -110.277576 -15.401410 -3.179797
v -108.923967 -12.911723 -3.179797
v -107.352987 -10.565352 -3.179797
v -105.578604 -8.376278 -3.179797
v -103.614816 -6.358494 -3.179797
v -101.475644 -4.525982 -3.179797
v -99.175122 -2.892707 -3.179797
v -96.727281 -1.472605 -3.179797
v -94.146127 -0.279581 -3.179797
v -91.445628 0.672487 -3.179797
v -88.639688 1.369732 -3.179797
v -85.742140 1.798280 -3.179797
v -82.759556 1.944575 -3.179797
v -82.221340 1.944575 -3.179797
v -82.749578 4.497319 -3.179797
v -83.030455 6.716308 -3.179797
v -83.138443 9.232704 -3.179797
v -82.993894 12.065225 -3.179797
v -82.742068 13.902732 -3.179797
v -82.138294 16.594342 -3.179797
v -81.277484 19.183282 -3.179797
v -80.172341 21.659523 -3.179797
v -78.836099 24.010525 -3.179797
v -77.282002 26.223676 -3.179797
v -75.523324 28.286309 -3.179797
v -73.573367 30.185727 -3.179797
v -71.445461 31.909218 -3.179797
v -69.152959 33.444069 -3.179797
v -66.709221 34.777580 -3.179797
v -64.127604 35.897063 -3.179797
v -61.421446 36.789844 -3.179797
v -58.604055 37.443254 -3.179797
v -55.688703 37.844616 -3.179797
v -52.685333 37.981383 -3.179797
v -50.812359 37.937925 -3.179797
v -48.955181 37.782409 -3.179797
v -46.202068 37.342088 -3.179797
v -43.510901 36.659835 -3.179797
v -40.895420 35.741423 -3.179797
v -38.371538 34.592976 -3.179797
v -35.955164 33.220621 -3.179797
v -33.662197 31.630481 -3.179797
v -31.022315 29.421897 -3.179797
v -31.022315 30.317071 -3.179797
v -30.821745 33.437939 -3.179797
v -30.473411 35.458066 -3.179797
v -29.637909 38.421215 -3.179797
v -28.446740 41.274463 -3.179797
v -26.917251 44.006877 -3.179797
v -25.067684 46.604231 -3.179797
v -22.916415 49.052074 -3.179797
v -20.481976 51.335834 -3.179797
v -17.784660 53.439625 -3.179797
v -13.805394 55.944215 -3.179797
v -9.435970 58.069372 -3.179797
v -4.719513 59.781804 -3.179797
v 0.298948 61.047215 -3.179797
v 5.574377 61.831440 -3.179797
v 11.063626 62.100501 -3.179797
v 15.195585 61.948472 -3.179797
v 19.214585 61.501960 -3.179797
v 24.368928 60.472525 -3.179797
v 29.242017 58.979325 -3.179797
v 33.790583 57.056235 -3.179797
v 37.969625 54.737622 -3.179797
v 41.736084 52.056703 -3.179797
v 44.259189 49.832281 -3.179797
v 46.506915 47.437509 -3.179797
v 48.459099 44.888378 -3.179797
v 50.097313 42.199391 -3.179797
v 51.403276 39.384857 -3.179797
v 52.358796 36.458804 -3.179797
v 52.945650 33.434899 -3.179797
v 53.145593 30.323783 -3.179797
v 53.087425 29.068296 -3.179797
v 52.905288 27.281427 -3.179797
v 55.179124 28.399683 -3.179797
v 56.755327 29.054546 -3.179797
v 59.185142 29.862302 -3.179797
v 61.954091 30.507142 -3.179797
v 64.490896 30.855903 -3.179797
v 67.055829 30.981860 -3.179797
v 69.857273 30.835305 -3.179797
v 71.678563 30.589894 -3.179797
v 74.349700 30.007450 -3.179797
v 76.922870 29.181699 -3.179797
v 79.387379 28.125219 -3.179797
v 81.730148 26.851102 -3.179797
v 83.938049 25.372459 -3.179797
v 85.997925 23.702435 -3.179797
v 87.896608 21.854202 -3.179797
v 89.620941 19.840958 -3.179797
v 91.157784 17.675910 -3.179797
v 92.494026 15.372265 -3.179797
v 93.616588 12.943204 -3.179797
v 94.512416 10.401868 -3.179797
v 95.168467 7.761339 -3.179797
v 95.571694 5.034623 -3.179797
v 95.709079 2.233301 -3.179797
v 95.601924 -0.429168 -3.179797
v 95.244711 -3.059991 -3.179797
v 94.641482 -5.642564 -3.179797
v 93.796320 -8.159414 -3.179797
v 92.563283 -10.930189 -3.179797
# 616 vertices

vn 0.000000 0.000000 -1.000000
vn 0.000000 0.000000 1.000000
vn 0.913618 -0.406574 0.000000
vn 0.931844 -0.362860 0.000000
vn 0.961958 -0.273199 0.000000
vn 0.983446 -0.181202 0.000000
vn 0.996167 -0.087478 0.000000
vn 0.999990 0.004390 0.000000
vn 0.995211 0.097753 0.000000
vn 0.981015 0.193933 0.000000
vn 0.957896 0.287114 0.000000
vn 0.926459 0.376395 0.000000
vn 0.887335 0.461126 0.000000
vn 0.841110 0.540863 0.000000
vn 0.788287 0.615308 0.000000
vn 0.729259 0.684237 0.000000
vn 0.664329 0.747441 0.000000
vn 0.593724 0.804668 0.000000
vn 0.517654 0.855590 0.000000
vn 0.436357 0.899774 0.000000
vn 0.350171 0.936686 0.000000
vn 0.259600 0.965716 0.000000
vn 0.173433 0.984846 0.000000
vn 0.092968 0.995669 0.000000
vn 0.001599 0.999999 0.000000
vn -0.092712 0.995693 0.000000
vn -0.181699 0.983354 0.000000
vn -0.271425 0.962460 0.000000
vn -0.349798 0.936825 0.000000
vn -0.412699 0.910868 0.000000
vn -0.441312 0.897354 0.000000
vn 0.994845 -0.101405 0.000000
vn 0.997268 -0.073872 0.000000
vn 0.999960 0.008940 0.000000
vn 0.991828 0.127585 0.000000
vn 0.968000 0.250952 0.000000
vn 0.930493 0.366309 0.000000
vn 0.881951 0.471340 0.000000
vn 0.825129 0.564944 0.000000
vn 0.762490 0.647000 0.000000
vn 0.696002 0.718040 0.000000
vn 0.621441 0.783461 0.000000
vn 0.533357 0.845890 0.000000
vn 0.437905 0.899021 0.000000
vn 0.341644 0.939829 0.000000
vn 0.244720 0.969594 0.000000
vn 0.153281 0.988183 0.000000
vn 0.073645 0.997284 0.000000
vn -0.006100 0.999981 0.000000
vn -0.098118 0.995175 0.000000
vn -0.196011 0.980602 0.000000
vn -0.293264 0.956032 0.000000
vn -0.389861 0.920874 0.000000
vn -0.485753 0.874096 0.000000
vn -0.574573 0.818453 0.000000
vn -0.650267 0.759705 0.000000
vn -0.718493 0.695534 0.000000
vn -0.783884 0.620908 0.000000
vn -0.844829 0.535037 0.000000
vn -0.899185 0.437569 0.000000
vn -0.944359 0.328916 0.000000
vn -0.975285 0.220952 0.000000
vn -0.993109 0.117196 0.000000
vn -0.997941 0.064135 0.000000
vn -1.000000 0.000000 0.000000
vn 0.641672 0.766979 0.000000
vn 0.606386 0.795170 0.000000
vn 0.532394 0.846497 0.000000
vn 0.454465 0.890765 0.000000
vn 0.373113 0.927786 0.000000
vn 0.288816 0.957385 0.000000
vn 0.202038 0.979378 0.000000
vn 0.120772 0.992680 0.000000
vn 0.053346 0.998576 0.000000
vn -0.011154 0.999938 0.000000
vn -0.091033 0.995848 0.000000
vn -0.181343 0.983420 0.000000
vn -0.269889 0.962891 0.000000
vn -0.355934 0.934511 0.000000
vn -0.438873 0.898549 0.000000
vn -0.518201 0.855259 0.000000
vn -0.593477 0.804851 0.000000
vn -0.664275 0.747488 0.000000
vn -0.730136 0.683302 0.000000
vn -0.790534 0.612418 0.000000
vn -0.844844 0.535013 0.000000
vn -0.892335 0.451375 0.000000
vn -0.932188 0.361973 0.000000
vn -0.963549 0.267531 0.000000
vn -0.984123 0.177486 0.000000
vn -0.995623 0.093457 0.000000
vn -0.999992 0.004050 0.000000
vn -0.996441 -0.084298 0.000000
vn -0.986422 -0.164232 0.000000
vn -0.979254 -0.202636 0.000000
vn 0.000000 1.000000 0.000000
vn -0.048991 0.998799 0.000000
vn -0.097767 0.995209 0.000000
vn -0.193959 0.981010 0.000000
vn -0.287151 0.957885 0.000000
vn -0.376442 0.926440 0.000000
vn -0.461180 0.887306 0.000000
vn -0.540924 0.841071 0.000000
vn -0.615373 0.788236 0.000000
vn -0.684304 0.729197 0.000000
vn -0.747508 0.664252 0.000000
vn -0.804735 0.593635 0.000000
vn -0.855653 0.517550 0.000000
vn -0.899832 0.436237 0.000000
vn -0.936736 0.350036 0.000000
vn -0.965757 0.259450 0.000000
vn -0.984875 0.173268 0.000000
vn -0.995686 0.092791 0.000000
vn -1.000000 0.001064 0.000000
vn -0.994871 -0.101150 0.000000
vn -0.979059 -0.203578 0.000000
vn -0.952412 -0.304815 0.000000
vn -0.915590 -0.402114 0.000000
vn -0.869960 -0.493122 0.000000
vn -0.817354 -0.576136 0.000000
vn -0.759769 -0.650193 0.000000
vn -0.694167 -0.719814 0.000000
vn -0.616609 -0.787269 0.000000
vn -0.533772 -0.845628 0.000000
vn -0.447971 -0.894048 0.000000
vn -0.360008 -0.932949 0.000000
vn -0.275367 -0.961339 0.000000
vn -0.182393 -0.983226 0.000000
vn -0.083310 -0.996524 0.000000
vn -0.014373 -0.999897 0.000000
vn 0.029604 -0.999562 0.000000
vn 0.106154 -0.994350 0.000000
vn 0.207973 -0.978135 0.000000
vn 0.303454 -0.952846 0.000000
vn 0.398100 -0.917342 0.000000
vn 0.491460 -0.870900 0.000000
vn 0.582766 -0.812640 0.000000
vn 0.665268 -0.746605 0.000000
vn 0.733301 -0.679904 0.000000
vn 0.792219 -0.610237 0.000000
vn 0.846097 -0.533029 0.000000
vn 0.893645 -0.448775 0.000000
vn 0.933571 -0.358392 0.000000
vn 0.964732 -0.263234 0.000000
vn 0.984865 -0.173323 0.000000
vn 0.995887 -0.090599 0.000000
vn 0.999995 -0.003143 0.000000
vn 0.995609 0.093609 0.000000
vn 0.979626 0.200829 0.000000
vn 0.950360 0.311153 0.000000
vn 0.909397 0.415930 0.000000
vn 0.857633 0.514263 0.000000
vn 0.795828 0.605522 0.000000
vn 0.724575 0.689196 0.000000
vn 0.644327 0.764750 0.000000
vn 0.555497 0.831518 0.000000
vn 0.458584 0.888651 0.000000
vn 0.361133 0.932514 0.000000
vn 0.265079 0.964227 0.000000
vn 0.215628 0.976476 0.000000
vn 0.255198 0.658971 0.707553
vn 0.187317 0.681368 0.707566
vn 0.324008 0.627866 0.707675
vn 0.392489 0.587513 0.707659
vn 0.455260 0.540346 0.707647
vn 0.511964 0.486967 0.707641
vn 0.562310 0.427845 0.707641
vn 0.605974 0.363360 0.707647
vn 0.642538 0.293877 0.707659
vn 0.671466 0.219842 0.707675
vn 0.692127 0.141890 0.707692
vn 0.703545 0.066148 0.707565
vn 0.706730 -0.002221 0.707480
vn 0.703894 -0.064035 0.707413
vn 0.696100 -0.122504 0.707417
vn 0.681736 -0.186017 0.707554
vn 0.659724 -0.253264 0.707546
vn 0.631523 -0.317141 0.707531
vn 0.597939 -0.376693 0.707511
vn 0.559882 -0.431271 0.707487
vn 0.518261 -0.480523 0.707463
vn 0.470116 -0.527594 0.707556
vn 0.411763 -0.574183 0.707647
vn 0.347270 -0.615385 0.707605
vn 0.281314 -0.648233 0.707571
vn 0.214441 -0.673345 0.707547
vn 0.146971 -0.691231 0.707530
vn 0.075007 -0.702594 0.707626
vn 0.020931 -0.706707 0.707197
vn -0.010162 -0.706952 0.707188
vn -0.058876 -0.704250 0.707507
vn -0.128883 -0.694767 0.707593
vn -0.194623 -0.679453 0.707436
vn -0.254428 -0.659343 0.707484
vn -0.316565 -0.631791 0.707549
vn -0.377212 -0.597597 0.707523
vn -0.435704 -0.556294 0.707601
vn -0.490544 -0.508667 0.707548
vn -0.536957 -0.459515 0.707476
vn -0.577622 -0.407153 0.707516
vn -0.614767 -0.348470 0.707552
vn -0.646987 -0.284148 0.707579
vn -0.672994 -0.215389 0.707592
vn -0.691825 -0.143853 0.707591
vn -0.703016 -0.071477 0.707573
vn -0.706646 0.000752 0.707567
vn -0.703762 0.065586 0.707402
vn -0.696128 0.122469 0.707395
vn -0.682501 0.183353 0.707513
vn -0.662003 0.247375 0.707501
vn -0.635932 0.308299 0.707490
vn -0.604718 0.365769 0.707481
vn -0.568738 0.419545 0.707474
vn -0.528296 0.469456 0.707470
vn -0.483628 0.515355 0.707470
vn -0.434909 0.557079 0.707472
vn -0.382290 0.594415 0.707478
vn -0.325928 0.627083 0.707487
vn -0.266037 0.654730 0.707497
vn -0.202931 0.676942 0.707509
vn -0.137069 0.693273 0.707520
vn -0.069090 0.703298 0.707530
vn -0.017324 0.706788 0.707213
vn 0.000000 0.707107 0.707107
vn -0.697239 -0.116085 0.707377
vn -0.692437 -0.143286 0.707107
vn -0.704286 -0.059582 0.707411
vn -0.706711 0.002862 0.707496
vn -0.703692 0.066054 0.707428
vn -0.695570 0.125446 0.707422
vn -0.680903 0.189054 0.707552
vn -0.658755 0.255798 0.707538
vn -0.630604 0.318982 0.707523
vn -0.597055 0.378096 0.707509
vn -0.558685 0.432806 0.707496
vn -0.516008 0.482909 0.707485
vn -0.469467 0.528278 0.707477
vn -0.419435 0.568822 0.707471
vn -0.366236 0.604450 0.707468
vn -0.310171 0.635046 0.707468
vn -0.251555 0.660461 0.707469
vn -0.190742 0.680516 0.707471
vn -0.128162 0.695022 0.707473
vn -0.064337 0.703804 0.707475
vn -0.007884 0.706854 0.707315
vn 0.037712 0.705939 0.707268
vn 0.085369 0.701684 0.707356
vn 0.142791 0.692176 0.707462
vn 0.204121 0.676635 0.707460
vn 0.263699 0.655716 0.707460
vn 0.321194 0.629550 0.707461
vn 0.376270 0.598261 0.707463
vn 0.428561 0.561983 0.707467
vn 0.453731 0.542336 0.707107
vn -0.706561 0.022681 0.707289
vn -0.707107 0.000000 0.707107
vn -0.701735 0.082811 0.707609
vn -0.689163 0.156131 0.707586
vn -0.667155 0.232367 0.707750
vn -0.635295 0.309153 0.707690
vn -0.596944 0.378049 0.707627
vn -0.553927 0.438761 0.707569
vn -0.507757 0.491531 0.707517
vn -0.459570 0.536914 0.707473
vn -0.406027 0.578367 0.707554
vn -0.343224 0.617619 0.707633
vn -0.275485 0.650712 0.707589
vn -0.207236 0.675583 0.707560
vn -0.138515 0.692961 0.707544
vn -0.069338 0.703267 0.707536
vn -0.004311 0.706769 0.707432
vn 0.052057 0.704946 0.707348
vn 0.108335 0.698424 0.707437
vn 0.172935 0.685176 0.707551
vn 0.241420 0.664122 0.707573
vn 0.309426 0.635253 0.707608
vn 0.376844 0.597665 0.707662
vn 0.439128 0.553616 0.707585
vn 0.491873 0.507447 0.707501
vn 0.538823 0.457211 0.707550
vn 0.583042 0.399193 0.707607
vn 0.623138 0.333023 0.707668
vn 0.657377 0.258791 0.707731
vn 0.683821 0.177279 0.707786
vn 0.700615 0.090125 0.707825
vn 0.706539 0.006317 0.707646
vn 0.705040 -0.052225 0.707242
vn 0.703462 -0.071704 0.707107
vn -0.291749 0.643919 0.707284
vn -0.312055 0.634525 0.707107
vn -0.247263 0.662216 0.707341
vn -0.191825 0.680200 0.707482
vn -0.128413 0.694967 0.707482
vn -0.065526 0.703724 0.707446
vn 0.001130 0.706652 0.707561
vn 0.065711 0.703751 0.707402
vn 0.122586 0.696107 0.707395
vn 0.183460 0.682472 0.707513
vn 0.247470 0.661967 0.707501
vn 0.308384 0.635891 0.707490
vn 0.365843 0.604673 0.707481
vn 0.419608 0.568691 0.707474
vn 0.469510 0.528249 0.707470
vn 0.515400 0.483580 0.707470
vn 0.557114 0.434864 0.707472
vn 0.594442 0.382247 0.707478
vn 0.627103 0.325890 0.707487
vn 0.654744 0.266005 0.707497
vn 0.676950 0.202905 0.707509
vn 0.693276 0.137051 0.707520
vn 0.703299 0.069081 0.707530
vn 0.706748 0.003102 0.707459
vn 0.704001 -0.061821 0.707503
vn 0.695013 -0.128058 0.707502
vn 0.679827 -0.193073 0.707502
vn 0.658543 -0.256437 0.707503
vn 0.646025 -0.287491 0.707107
vn 0.152472 0.690473 0.707107
vn 0.187317 0.681368 -0.707566
vn 0.255198 0.658971 -0.707553
vn 0.324008 0.627866 -0.707675
vn 0.392489 0.587513 -0.707659
vn 0.455260 0.540346 -0.707647
vn 0.511964 0.486967 -0.707641
vn 0.562310 0.427845 -0.707641
vn 0.605974 0.363360 -0.707647
vn 0.642538 0.293877 -0.707659
vn 0.671466 0.219842 -0.707675
vn 0.692127 0.141890 -0.707692
vn 0.703545 0.066148 -0.707565
vn 0.706730 -0.002221 -0.707480
vn 0.703894 -0.064035 -0.707413
vn 0.696100 -0.122504 -0.707417
vn 0.681736 -0.186017 -0.707554
vn 0.659724 -0.253264 -0.707546
vn 0.631523 -0.317141 -0.707531
vn 0.597939 -0.376693 -0.707511
vn 0.559882 -0.431271 -0.707487
vn 0.518261 -0.480523 -0.707463
vn 0.470116 -0.527594 -0.707556
vn 0.411763 -0.574183 -0.707647
vn 0.347270 -0.615385 -0.707605
vn 0.281314 -0.648233 -0.707571
vn 0.214441 -0.673345 -0.707547
vn 0.146971 -0.691231 -0.707530
vn 0.075007 -0.702594 -0.707626
vn 0.020931 -0.706707 -0.707197
vn -0.010162 -0.706952 -0.707188
vn -0.058876 -0.704250 -0.707507
vn -0.128883 -0.694767 -0.707593
vn -0.194623 -0.679453 -0.707436
vn -0.254428 -0.659343 -0.707484
vn -0.316565 -0.631791 -0.707549
vn -0.377212 -0.597597 -0.707523
vn -0.435704 -0.556294 -0.707601
vn -0.490544 -0.508667 -0.707548
vn -0.536957 -0.459515 -0.707476
vn -0.577622 -0.407153 -0.707516
vn -0.614767 -0.348470 -0.707552
vn -0.646987 -0.284148 -0.707579
vn -0.672994 -0.215389 -0.707592
vn -0.691825 -0.143853 -0.707591
vn -0.703016 -0.071477 -0.707573
vn -0.706646 0.000752 -0.707567
vn -0.703762 0.065586 -0.707402
vn -0.696128 0.122469 -0.707395
vn -0.682501 0.183353 -0.707513
vn -0.662003 0.247375 -0.707501
vn -0.635932 0.308299 -0.707490
vn -0.604718 0.365769 -0.707481
vn -0.568738 0.419545 -0.707474
vn -0.528296 0.469456 -0.707470
vn -0.483628 0.515355 -0.707470
vn -0.434909 0.557079 -0.707472
vn -0.382290 0.594415 -0.707478
vn -0.325928 0.627083 -0.707487
vn -0.266037 0.654730 -0.707497
vn -0.202931 0.676942 -0.707509
vn -0.137069 0.693273 -0.707520
vn -0.069090 0.703298 -0.707530
vn -0.017324 0.706788 -0.707213
vn 0.000000 0.707107 -0.707107
vn -0.692437 -0.143286 -0.707107
vn -0.697239 -0.116085 -0.707377
vn -0.704286 -0.059582 -0.707411
vn -0.706711 0.002862 -0.707496
vn -0.703692 0.066054 -0.707428
vn -0.695570 0.125446 -0.707422
vn -0.680903 0.189054 -0.707552
vn -0.658755 0.255798 -0.707538
vn -0.630604 0.318982 -0.707523
vn -0.597055 0.378096 -0.707509
vn -0.558685 0.432806 -0.707496
vn -0.516008 0.482909 -0.707485
vn -0.469467 0.528278 -0.707477
vn -0.419435 0.568822 -0.707471
vn -0.366236 0.604450 -0.707468
vn -0.310171 0.635046 -0.707468
vn -0.251555 0.660461 -0.707469
vn -0.190742 0.680516 -0.707471
vn -0.128162 0.695022 -0.707473
vn -0.064337 0.703804 -0.707475
vn -0.007884 0.706854 -0.707315
vn 0.037712 0.705939 -0.707268
vn 0.085369 0.701684 -0.707356
vn 0.142791 0.692176 -0.707462
vn 0.204121 0.676635 -0.707460
vn 0.263699 0.655716 -0.707460
vn 0.321194 0.629550 -0.707461
vn 0.376270 0.598261 -0.707463
vn 0.428561 0.561983 -0.707467
vn 0.453731 0.542336 -0.707107
vn -0.707107 0.000000 -0.707107
vn -0.706561 0.022681 -0.707289
vn -0.701735 0.082811 -0.707609
vn -0.689163 0.156131 -0.707586
vn -0.667155 0.232367 -0.707750
vn -0.635295 0.309153 -0.707690
vn -0.596944 0.378049 -0.707627
vn -0.553927 0.438761 -0.707569
vn -0.507757 0.491531 -0.707517
vn -0.459570 0.536914 -0.707473
vn -0.406027 0.578367 -0.707554
vn -0.343224 0.617619 -0.707633
vn -0.275485 0.650712 -0.707589
vn -0.207236 0.675583 -0.707560
vn -0.138515 0.692961 -0.707544
vn -0.069338 0.703267 -0.707536
vn -0.004311 0.706769 -0.707432
vn 0.052057 0.704946 -0.707348
vn 0.108335 0.698424 -0.707437
vn 0.172935 0.685176 -0.707551
vn 0.241420 0.664122 -0.707573
vn 0.309426 0.635253 -0.707608
vn 0.376844 0.597665 -0.707662
vn 0.439128 0.553616 -0.707585
vn 0.491873 0.507447 -0.707501
vn 0.538823 0.457211 -0.707550
vn 0.583042 0.399193 -0.707607
vn 0.623138 0.333023 -0.707668
vn 0.657377 0.258791 -0.707731
vn 0.683821 0.177279 -0.707786
vn 0.700615 0.090125 -0.707825
vn 0.706539 0.006317 -0.707646
vn 0.705040 -0.052225 -0.707242
vn 0.703462 -0.071704 -0.707107
vn -0.312055 0.634525 -0.707107
vn -0.291749 0.643919 -0.707284
vn -0.247263 0.662216 -0.707341
vn -0.191825 0.680200 -0.707482
vn -0.128413 0.694967 -0.707482
vn -0.065526 0.703724 -0.707446
vn 0.001130 0.706652 -0.707561
vn 0.065711 0.703751 -0.707402
vn 0.122586 0.696107 -0.707395
vn 0.183460 0.682472 -0.707513
vn 0.247470 0.661967 -0.707501
vn 0.308384 0.635891 -0.707490
vn 0.365843 0.604673 -0.707481
vn 0.419608 0.568691 -0.707474
vn 0.469510 0.528249 -0.707470
vn 0.515400 0.483580 -0.707470
vn 0.557114 0.434864 -0.707472
vn 0.594442 0.382247 -0.707478
vn 0.627103 0.325890 -0.707487
vn 0.654744 0.266005 -0.707497
vn 0.676950 0.202905 -0.707509
vn 0.693276 0.137051 -0.707520
vn 0.703299 0.069081 -0.707530
vn 0.706748 0.003102 -0.707459
vn 0.704001 -0.061821 -0.707503
vn 0.695013 -0.128058 -0.707502
vn 0.679827 -0.193073 -0.707502
vn 0.658543 -0.256437 -0.707503
vn 0.646025 -0.287491 -0.707107
vn 0.152472 0.690473 -0.707107
# 476 normals

vt 0.169342 0.679141 0.000000
vt 0.178530 0.683396 0.000000
vt 0.186810 0.686343 0.000000
vt 0.000000 1.000000 0.000000
vt 0.613877 0.062631 0.000000
vt 0.610786 0.056369 0.000000
vt 0.465434 0.067851 0.000000
vt 0.908433 0.635051 0.000000
vt 0.908433 0.643789 0.000000
vt 0.927265 0.643789 0.000000
vt 0.927265 0.635051 0.000000
vt 0.908433 0.652499 0.000000
vt 0.927265 0.652499 0.000000
vt 0.908433 0.661199 0.000000
vt 0.927265 0.661199 0.000000
vt 0.908433 0.669909 0.000000
vt 0.927265 0.669909 0.000000
vt 0.908433 0.678647 0.000000
vt 0.927265 0.678647 0.000000
vt 0.908433 0.687842 0.000000
vt 0.927265 0.687842 0.000000
vt 0.908433 0.696883 0.000000
vt 0.927265 0.696883 0.000000
vt 0.908433 0.705808 0.000000
vt 0.927265 0.705808 0.000000
vt 0.908433 0.714646 0.000000
vt 0.927265 0.714646 0.000000
vt 0.908433 0.723422 0.000000
vt 0.927265 0.723422 0.000000
vt 0.908433 0.732156 0.000000
vt 0.927265 0.732156 0.000000
vt 0.908433 0.740863 0.000000
vt 0.927265 0.740863 0.000000
vt 0.908433 0.749555 0.000000
vt 0.927265 0.749555 0.000000
vt 0.908433 0.758244 0.000000
vt 0.927265 0.758244 0.000000
vt 0.908433 0.766940 0.000000
vt 0.927265 0.766940 0.000000
vt 0.908433 0.775654 0.000000
vt 0.927265 0.775654 0.000000
vt 0.908433 0.784400 0.000000
vt 0.927265 0.784400 0.000000
vt 0.908433 0.793194 0.000000
vt 0.927265 0.793194 0.000000
vt 0.908433 0.802059 0.000000
vt 0.927265 0.802059 0.000000
vt 0.908433 0.811018 0.000000
vt 0.927265 0.811018 0.000000
vt 0.908433 0.817062 0.000000
vt 0.927265 0.817062 0.000000
vt 0.908433 0.826257 0.000000
vt 0.927265 0.826257 0.000000
vt 0.908433 0.834684 0.000000
vt 0.927265 0.834684 0.000000
vt 0.908433 0.843083 0.000000
vt 0.927265 0.843083 0.000000
vt 0.908433 0.852400 0.000000
vt 0.927265 0.852400 0.000000
vt 0.908433 0.860792 0.000000
vt 0.927265 0.860792 0.000000
vt 0.908433 0.866398 0.000000
vt 0.927265 0.866398 0.000000
vt 0.908433 0.872956 0.000000
vt 0.927265 0.872956 0.000000
vt 0.848025 0.501742 0.000000
vt 0.848025 0.505901 0.000000
vt 0.866857 0.505901 0.000000
vt 0.866857 0.501742 0.000000
vt 0.848025 0.510060 0.000000
vt 0.866857 0.510060 0.000000
vt 0.848025 0.520295 0.000000
vt 0.866857 0.520295 0.000000
vt 0.848025 0.530415 0.000000
vt 0.866857 0.530415 0.000000
vt 0.848025 0.540523 0.000000
vt 0.866857 0.540523 0.000000
vt 0.848025 0.550707 0.000000
vt 0.866857 0.550707 0.000000
vt 0.848025 0.561034 0.000000
vt 0.866857 0.561034 0.000000
vt 0.848025 0.571556 0.000000
vt 0.866857 0.571556 0.000000
vt 0.848025 0.582312 0.000000
vt 0.866857 0.582312 0.000000
vt 0.848025 0.593327 0.000000
vt 0.866857 0.593327 0.000000
vt 0.848025 0.608439 0.000000
vt 0.866857 0.608439 0.000000
vt 0.848025 0.624060 0.000000
vt 0.866857 0.624060 0.000000
vt 0.848025 0.640193 0.000000
vt 0.866857 0.640193 0.000000
vt 0.848025 0.656837 0.000000
vt 0.866857 0.656837 0.000000
vt 0.848025 0.673991 0.000000
vt 0.866857 0.673991 0.000000
vt 0.848025 0.687196 0.000000
vt 0.866857 0.687196 0.000000
vt 0.848025 0.700696 0.000000
vt 0.866857 0.700696 0.000000
vt 0.848025 0.718628 0.000000
vt 0.866857 0.718628 0.000000
vt 0.848025 0.736038 0.000000
vt 0.866857 0.736038 0.000000
vt 0.848025 0.752937 0.000000
vt 0.866857 0.752937 0.000000
vt 0.848025 0.769326 0.000000
vt 0.866857 0.769326 0.000000
vt 0.848025 0.785202 0.000000
vt 0.866857 0.785202 0.000000
vt 0.848025 0.800568 0.000000
vt 0.866857 0.800568 0.000000
vt 0.848025 0.811765 0.000000
vt 0.866857 0.811765 0.000000
vt 0.848025 0.822691 0.000000
vt 0.866857 0.822691 0.000000
vt 0.848025 0.833366 0.000000
vt 0.866857 0.833366 0.000000
vt 0.848025 0.843818 0.000000
vt 0.866857 0.843818 0.000000
vt 0.848025 0.854090 0.000000
vt 0.866857 0.854090 0.000000
vt 0.848025 0.864240 0.000000
vt 0.866857 0.864240 0.000000
vt 0.848025 0.874343 0.000000
vt 0.866857 0.874343 0.000000
vt 0.848025 0.881098 0.000000
vt 0.866857 0.881098 0.000000
vt 0.848025 0.891332 0.000000
vt 0.866857 0.891332 0.000000
vt 0.848025 0.892253 0.000000
vt 0.866857 0.892253 0.000000
vt 0.399286 0.576975 0.000000
vt 0.399286 0.586178 0.000000
vt 0.418118 0.586178 0.000000
vt 0.418118 0.576975 0.000000
vt 0.399286 0.595323 0.000000
vt 0.418118 0.595323 0.000000
vt 0.399286 0.604430 0.000000
vt 0.418118 0.604430 0.000000
vt 0.399286 0.613517 0.000000
vt 0.418118 0.613517 0.000000
vt 0.399286 0.622602 0.000000
vt 0.418118 0.622602 0.000000
vt 0.399286 0.631701 0.000000
vt 0.418118 0.631701 0.000000
vt 0.399286 0.640831 0.000000
vt 0.418118 0.640831 0.000000
vt 0.399286 0.646946 0.000000
vt 0.418118 0.646946 0.000000
vt 0.399286 0.653090 0.000000
vt 0.418118 0.653090 0.000000
vt 0.399286 0.662927 0.000000
vt 0.418118 0.662927 0.000000
vt 0.399286 0.672568 0.000000
vt 0.418118 0.672568 0.000000
vt 0.399286 0.682044 0.000000
vt 0.418118 0.682044 0.000000
vt 0.399286 0.691382 0.000000
vt 0.418118 0.691382 0.000000
vt 0.399286 0.700604 0.000000
vt 0.418118 0.700604 0.000000
vt 0.399286 0.709728 0.000000
vt 0.418118 0.709728 0.000000
vt 0.399286 0.718771 0.000000
vt 0.418118 0.718771 0.000000
vt 0.399286 0.727748 0.000000
vt 0.418118 0.727748 0.000000
vt 0.399286 0.736673 0.000000
vt 0.418118 0.736673 0.000000
vt 0.399286 0.745562 0.000000
vt 0.418118 0.745562 0.000000
vt 0.399286 0.754432 0.000000
vt 0.418118 0.754432 0.000000
vt 0.399286 0.763303 0.000000
vt 0.418118 0.763303 0.000000
vt 0.399286 0.772199 0.000000
vt 0.418118 0.772199 0.000000
vt 0.399286 0.781152 0.000000
vt 0.418118 0.781152 0.000000
vt 0.399286 0.790195 0.000000
vt 0.418118 0.790195 0.000000
vt 0.399286 0.796297 0.000000
vt 0.418118 0.796297 0.000000
vt 0.399286 0.805590 0.000000
vt 0.418118 0.805590 0.000000
vt 0.399286 0.813852 0.000000
vt 0.418118 0.813852 0.000000
vt 0.399286 0.821190 0.000000
vt 0.418118 0.821190 0.000000
vt 0.399286 0.828534 0.000000
vt 0.418118 0.828534 0.000000
vt 0.968983 0.011321 0.000000
vt 0.968995 0.011935 0.000000
vt 0.987801 0.011567 0.000000
vt 0.987788 0.010953 0.000000
vt 0.969181 0.021688 0.000000
vt 0.988004 0.021340 0.000000
vt 0.969352 0.031275 0.000000
vt 0.988180 0.030955 0.000000
vt 0.969506 0.040737 0.000000
vt 0.988337 0.040447 0.000000
vt 0.969644 0.050107 0.000000
vt 0.988475 0.049848 0.000000
vt 0.969764 0.059412 0.000000
vt 0.988596 0.059183 0.000000
vt 0.969869 0.068672 0.000000
vt 0.988701 0.068473 0.000000
vt 0.969959 0.077904 0.000000
vt 0.988791 0.077734 0.000000
vt 0.970035 0.087120 0.000000
vt 0.988867 0.086980 0.000000
vt 0.970096 0.096334 0.000000
vt 0.988929 0.096221 0.000000
vt 0.970144 0.105556 0.000000
vt 0.988977 0.105470 0.000000
vt 0.970180 0.114797 0.000000
vt 0.989012 0.114737 0.000000
vt 0.970203 0.124074 0.000000
vt 0.989036 0.124038 0.000000
vt 0.970214 0.133402 0.000000
vt 0.989047 0.133390 0.000000
vt 0.970213 0.142805 0.000000
vt 0.989047 0.142815 0.000000
vt 0.970202 0.152310 0.000000
vt 0.989035 0.152342 0.000000
vt 0.970189 0.158721 0.000000
vt 0.989021 0.158767 0.000000
vt 0.970159 0.168477 0.000000
vt 0.988992 0.168542 0.000000
vt 0.970120 0.178204 0.000000
vt 0.988953 0.178287 0.000000
vt 0.970074 0.187575 0.000000
vt 0.988907 0.187673 0.000000
vt 0.970022 0.196678 0.000000
vt 0.988855 0.196790 0.000000
vt 0.969966 0.205598 0.000000
vt 0.988799 0.205722 0.000000
vt 0.969904 0.214411 0.000000
vt 0.988737 0.214545 0.000000
vt 0.969839 0.223183 0.000000
vt 0.988672 0.223326 0.000000
vt 0.969770 0.231971 0.000000
vt 0.988603 0.232122 0.000000
vt 0.969697 0.240820 0.000000
vt 0.988530 0.240976 0.000000
vt 0.969595 0.252766 0.000000
vt 0.988428 0.252928 0.000000
vt 0.969488 0.264934 0.000000
vt 0.988321 0.265098 0.000000
vt 0.969378 0.277348 0.000000
vt 0.988211 0.277513 0.000000
vt 0.969240 0.293215 0.000000
vt 0.988073 0.293375 0.000000
vt 0.969130 0.306174 0.000000
vt 0.987964 0.306325 0.000000
vt 0.969000 0.322653 0.000000
vt 0.987835 0.322782 0.000000
vt 0.968840 0.344977 0.000000
vt 0.987686 0.345021 0.000000
vt 0.970235 0.530717 0.000000
vt 0.989047 0.530406 0.000000
vt 0.908433 0.010953 0.000000
vt 0.908433 0.204918 0.000000
vt 0.927265 0.204918 0.000000
vt 0.927265 0.010953 0.000000
vt 0.908433 0.361948 0.000000
vt 0.927265 0.361948 0.000000
vt 0.908433 0.372381 0.000000
vt 0.927265 0.372381 0.000000
vt 0.908433 0.382629 0.000000
vt 0.927265 0.382629 0.000000
vt 0.908433 0.392699 0.000000
vt 0.927265 0.392699 0.000000
vt 0.908433 0.402600 0.000000
vt 0.927265 0.402600 0.000000
vt 0.908433 0.412348 0.000000
vt 0.927265 0.412348 0.000000
vt 0.908433 0.421963 0.000000
vt 0.927265 0.421963 0.000000
vt 0.908433 0.429108 0.000000
vt 0.927265 0.429108 0.000000
vt 0.908433 0.436215 0.000000
vt 0.927265 0.436215 0.000000
vt 0.908433 0.443307 0.000000
vt 0.927265 0.443307 0.000000
vt 0.908433 0.450413 0.000000
vt 0.927265 0.450413 0.000000
vt 0.908433 0.457567 0.000000
vt 0.927265 0.457567 0.000000
vt 0.908433 0.464810 0.000000
vt 0.927265 0.464810 0.000000
vt 0.908433 0.472188 0.000000
vt 0.927265 0.472188 0.000000
vt 0.908433 0.477207 0.000000
vt 0.927265 0.477207 0.000000
vt 0.908433 0.484924 0.000000
vt 0.927265 0.484924 0.000000
vt 0.908433 0.491875 0.000000
vt 0.927265 0.491875 0.000000
vt 0.908433 0.500999 0.000000
vt 0.927265 0.500999 0.000000
vt 0.908433 0.510004 0.000000
vt 0.927265 0.510004 0.000000
vt 0.908433 0.518928 0.000000
vt 0.927265 0.518928 0.000000
vt 0.908433 0.527800 0.000000
vt 0.927265 0.527800 0.000000
vt 0.908433 0.536643 0.000000
vt 0.927265 0.536643 0.000000
vt 0.908433 0.545477 0.000000
vt 0.927265 0.545477 0.000000
vt 0.908433 0.554320 0.000000
vt 0.927265 0.554320 0.000000
vt 0.908433 0.563192 0.000000
vt 0.927265 0.563192 0.000000
vt 0.908433 0.572116 0.000000
vt 0.927265 0.572116 0.000000
vt 0.908433 0.581121 0.000000
vt 0.927265 0.581121 0.000000
vt 0.908433 0.587952 0.000000
vt 0.927265 0.587952 0.000000
vt 0.908433 0.597195 0.000000
vt 0.927265 0.597195 0.000000
vt 0.611945 0.055713 0.000000
vt 0.615060 0.062043 0.000000
vt 0.607097 0.047747 0.000000
vt 0.606004 0.048511 0.000000
vt 0.601478 0.040419 0.000000
vt 0.600474 0.041298 0.000000
vt 0.595145 0.033787 0.000000
vt 0.594244 0.034771 0.000000
vt 0.588170 0.027901 0.000000
vt 0.587382 0.028978 0.000000
vt 0.580626 0.022810 0.000000
vt 0.579962 0.023966 0.000000
vt 0.572588 0.018561 0.000000
vt 0.572054 0.019784 0.000000
vt 0.564129 0.015204 0.000000
vt 0.563735 0.016479 0.000000
vt 0.555325 0.012785 0.000000
vt 0.555076 0.014096 0.000000
vt 0.546250 0.011353 0.000000
vt 0.546152 0.012684 0.000000
vt 0.536983 0.010953 0.000000
vt 0.537029 0.012287 0.000000
vt 0.529941 0.011362 0.000000
vt 0.530116 0.012684 0.000000
vt 0.522224 0.012521 0.000000
vt 0.522514 0.013823 0.000000
vt 0.517286 0.013690 0.000000
vt 0.517685 0.014962 0.000000
vt 0.510226 0.015995 0.000000
vt 0.510740 0.017226 0.000000
vt 0.503574 0.018936 0.000000
vt 0.504208 0.020110 0.000000
vt 0.497344 0.022472 0.000000
vt 0.498091 0.023577 0.000000
vt 0.491550 0.026564 0.000000
vt 0.492400 0.027592 0.000000
vt 0.486201 0.031173 0.000000
vt 0.487145 0.032116 0.000000
vt 0.481312 0.036260 0.000000
vt 0.482337 0.037112 0.000000
vt 0.476891 0.041787 0.000000
vt 0.477994 0.042538 0.000000
vt 0.471754 0.049763 0.000000
vt 0.472930 0.050395 0.000000
vt 0.467499 0.058361 0.000000
vt 0.468735 0.058862 0.000000
vt 0.464152 0.067480 0.000000
vt 0.461726 0.076992 0.000000
vt 0.463037 0.077234 0.000000
vt 0.460243 0.086840 0.000000
vt 0.461571 0.086959 0.000000
vt 0.459693 0.096928 0.000000
vt 0.461027 0.096941 0.000000
vt 0.463742 0.246805 0.000000
vt 0.465074 0.246781 0.000000
vt 0.465950 0.433191 0.000000
vt 0.467283 0.433196 0.000000
vt 0.459693 0.611739 0.000000
vt 0.461027 0.611724 0.000000
vt 0.460557 0.633291 0.000000
vt 0.461886 0.633177 0.000000
vt 0.462791 0.649127 0.000000
vt 0.464105 0.648896 0.000000
vt 0.465622 0.661424 0.000000
vt 0.466910 0.661077 0.000000
vt 0.470470 0.676120 0.000000
vt 0.471721 0.675656 0.000000
vt 0.475408 0.687216 0.000000
vt 0.476607 0.686632 0.000000
vt 0.481288 0.697670 0.000000
vt 0.482423 0.696970 0.000000
vt 0.488137 0.707274 0.000000
vt 0.489196 0.706462 0.000000
vt 0.493921 0.713856 0.000000
vt 0.494896 0.712946 0.000000
vt 0.500257 0.719842 0.000000
vt 0.501142 0.718844 0.000000
vt 0.507146 0.725183 0.000000
vt 0.507929 0.724103 0.000000
vt 0.514591 0.729830 0.000000
vt 0.515260 0.728676 0.000000
vt 0.522591 0.733732 0.000000
vt 0.523137 0.732515 0.000000
vt 0.531149 0.736839 0.000000
vt 0.531564 0.735571 0.000000
vt 0.540264 0.739100 0.000000
vt 0.540546 0.737796 0.000000
vt 0.549938 0.740464 0.000000
vt 0.550085 0.739138 0.000000
vt 0.559748 0.740837 0.000000
vt 0.559774 0.739504 0.000000
vt 0.566215 0.740556 0.000000
vt 0.566130 0.739225 0.000000
vt 0.575737 0.739366 0.000000
vt 0.575536 0.738048 0.000000
vt 0.585025 0.737293 0.000000
vt 0.584701 0.736000 0.000000
vt 0.594026 0.734377 0.000000
vt 0.593581 0.733119 0.000000
vt 0.602687 0.730657 0.000000
vt 0.602128 0.729446 0.000000
vt 0.610958 0.726173 0.000000
vt 0.610290 0.725018 0.000000
vt 0.618788 0.720967 0.000000
vt 0.618019 0.719877 0.000000
vt 0.626128 0.715077 0.000000
vt 0.625263 0.714062 0.000000
vt 0.632930 0.708548 0.000000
vt 0.631978 0.707614 0.000000
vt 0.639142 0.701415 0.000000
vt 0.638111 0.700570 0.000000
vt 0.644730 0.693728 0.000000
vt 0.643627 0.692979 0.000000
vt 0.649632 0.685512 0.000000
vt 0.648469 0.684860 0.000000
vt 0.653868 0.676841 0.000000
vt 0.652654 0.676290 0.000000
vt 0.657328 0.667704 0.000000
vt 0.656083 0.667230 0.000000
vt 0.660276 0.658222 0.000000
vt 0.659004 0.657827 0.000000
vt 0.662377 0.648214 0.000000
vt 0.661099 0.647887 0.000000
vt 0.662439 0.647601 0.000000
vt 0.661416 0.646038 0.000000
vt 0.669730 0.649042 0.000000
vt 0.669946 0.647734 0.000000
vt 0.677036 0.650123 0.000000
vt 0.677188 0.648800 0.000000
vt 0.685370 0.650659 0.000000
vt 0.685407 0.649326 0.000000
vt 0.694749 0.650395 0.000000
vt 0.694672 0.649064 0.000000
vt 0.700888 0.649700 0.000000
vt 0.700696 0.648380 0.000000
vt 0.709858 0.647911 0.000000
vt 0.709546 0.646615 0.000000
vt 0.718528 0.645264 0.000000
vt 0.718089 0.644005 0.000000
vt 0.726853 0.641800 0.000000
vt 0.726292 0.640589 0.000000
vt 0.734789 0.637561 0.000000
vt 0.734115 0.636410 0.000000
vt 0.742294 0.632590 0.000000
vt 0.741514 0.631508 0.000000
vt 0.749325 0.626929 0.000000
vt 0.748448 0.625925 0.000000
vt 0.755838 0.620622 0.000000
vt 0.754872 0.619702 0.000000
vt 0.761792 0.613711 0.000000
vt 0.760747 0.612883 0.000000
vt 0.767143 0.606238 0.000000
vt 0.766027 0.605508 0.000000
vt 0.771849 0.598245 0.000000
vt 0.770671 0.597618 0.000000
vt 0.775865 0.589774 0.000000
vt 0.774636 0.589256 0.000000
vt 0.779152 0.580868 0.000000
vt 0.777881 0.580463 0.000000
vt 0.781663 0.571569 0.000000
vt 0.780361 0.571280 0.000000
vt 0.783359 0.561916 0.000000
vt 0.782036 0.561747 0.000000
vt 0.784194 0.551964 0.000000
vt 0.782862 0.551899 0.000000
vt 0.784293 0.545731 0.000000
vt 0.782960 0.545753 0.000000
vt 0.784021 0.539539 0.000000
vt 0.782692 0.539650 0.000000
vt 0.782941 0.530354 0.000000
vt 0.781626 0.530571 0.000000
vt 0.781058 0.521334 0.000000
vt 0.779765 0.521664 0.000000
vt 0.778422 0.512514 0.000000
vt 0.777163 0.512954 0.000000
vt 0.775017 0.503958 0.000000
vt 0.773798 0.504497 0.000000
vt 0.770940 0.495667 0.000000
vt 0.769768 0.496302 0.000000
vt 0.766127 0.487738 0.000000
vt 0.764993 0.488436 0.000000
vt 0.760807 0.480066 0.000000
vt 0.758529 0.478938 0.000000
vt 0.761677 0.480057 0.000000
vt 0.761465 0.478774 0.000000
vt 0.771691 0.478931 0.000000
vt 0.771459 0.477620 0.000000
vt 0.778304 0.477707 0.000000
vt 0.777988 0.476413 0.000000
vt 0.787983 0.474851 0.000000
vt 0.787541 0.473592 0.000000
vt 0.797344 0.470931 0.000000
vt 0.796775 0.469724 0.000000
vt 0.806334 0.465922 0.000000
vt 0.805640 0.464783 0.000000
vt 0.814894 0.459863 0.000000
vt 0.814085 0.458802 0.000000
vt 0.822974 0.452810 0.000000
vt 0.822065 0.451834 0.000000
vt 0.830527 0.444823 0.000000
vt 0.829530 0.443936 0.000000
vt 0.837507 0.435957 0.000000
vt 0.836429 0.435170 0.000000
vt 0.845834 0.422894 0.000000
vt 0.844681 0.422223 0.000000
vt 0.852954 0.408537 0.000000
vt 0.851737 0.407991 0.000000
vt 0.858751 0.393024 0.000000
vt 0.857485 0.392605 0.000000
vt 0.863115 0.376498 0.000000
vt 0.861814 0.376206 0.000000
vt 0.865934 0.359099 0.000000
vt 0.864610 0.358936 0.000000
vt 0.867096 0.340972 0.000000
vt 0.865763 0.340929 0.000000
vt 0.866822 0.327281 0.000000
vt 0.865490 0.327344 0.000000
vt 0.865580 0.313930 0.000000
vt 0.864258 0.314100 0.000000
vt 0.862508 0.296782 0.000000
vt 0.861206 0.297073 0.000000
vt 0.857912 0.280503 0.000000
vt 0.856646 0.280922 0.000000
vt 0.851894 0.265237 0.000000
vt 0.850677 0.265784 0.000000
vt 0.844554 0.251128 0.000000
vt 0.843404 0.251803 0.000000
vt 0.835997 0.238327 0.000000
vt 0.834924 0.239119 0.000000
vt 0.828832 0.229662 0.000000
vt 0.827842 0.230556 0.000000
vt 0.821075 0.221876 0.000000
vt 0.820176 0.222861 0.000000
vt 0.812768 0.215029 0.000000
vt 0.811974 0.216101 0.000000
vt 0.803950 0.209184 0.000000
vt 0.803277 0.210336 0.000000
vt 0.794661 0.204405 0.000000
vt 0.794124 0.205626 0.000000
vt 0.784936 0.200753 0.000000
vt 0.784550 0.202031 0.000000
vt 0.774813 0.198294 0.000000
vt 0.774588 0.199609 0.000000
vt 0.764334 0.197091 0.000000
vt 0.764263 0.198424 0.000000
vt 0.760038 0.197062 0.000000
vt 0.760073 0.198394 0.000000
vt 0.755845 0.197278 0.000000
vt 0.754024 0.198667 0.000000
vt 0.757917 0.190927 0.000000
vt 0.756651 0.190561 0.000000
vt 0.759586 0.185479 0.000000
vt 0.758299 0.185141 0.000000
vt 0.761492 0.177128 0.000000
vt 0.760183 0.176879 0.000000
vt 0.762877 0.167733 0.000000
vt 0.761552 0.167589 0.000000
vt 0.763356 0.159175 0.000000
vt 0.762023 0.159146 0.000000
vt 0.763133 0.150579 0.000000
vt 0.761802 0.150671 0.000000
vt 0.761957 0.141263 0.000000
vt 0.760640 0.141473 0.000000
vt 0.760710 0.135192 0.000000
vt 0.759414 0.135508 0.000000
vt 0.758155 0.126370 0.000000
vt 0.756892 0.126798 0.000000
vt 0.754819 0.117911 0.000000
vt 0.753602 0.118457 0.000000
vt 0.750746 0.109860 0.000000
vt 0.749585 0.110517 0.000000
vt 0.745983 0.102256 0.000000
vt 0.744888 0.103018 0.000000
vt 0.740576 0.095140 0.000000
vt 0.739555 0.095999 0.000000
vt 0.734571 0.088551 0.000000
vt 0.733633 0.089499 0.000000
vt 0.728015 0.082531 0.000000
vt 0.727166 0.083560 0.000000
vt 0.720952 0.077119 0.000000
vt 0.720200 0.078221 0.000000
vt 0.713429 0.072355 0.000000
vt 0.712781 0.073521 0.000000
vt 0.705492 0.068279 0.000000
vt 0.704954 0.069500 0.000000
vt 0.697186 0.064932 0.000000
vt 0.696764 0.066197 0.000000
vt 0.688557 0.062353 0.000000
vt 0.688257 0.063652 0.000000
vt 0.679650 0.060580 0.000000
vt 0.679475 0.061902 0.000000
vt 0.670509 0.059654 0.000000
vt 0.670462 0.060987 0.000000
vt 0.661179 0.059605 0.000000
vt 0.661255 0.060937 0.000000
vt 0.652349 0.060341 0.000000
vt 0.652542 0.061661 0.000000
vt 0.643649 0.061863 0.000000
vt 0.643960 0.063159 0.000000
vt 0.635146 0.064184 0.000000
vt 0.635550 0.065454 0.000000
vt 0.626771 0.067164 0.000000
vt 0.627263 0.068403 0.000000
vt 0.618734 0.070898 0.000000
vt 0.618080 0.072657 0.000000
vt 0.166345 0.689758 0.000000
vt 0.165151 0.689169 0.000000
vt 0.162059 0.695433 0.000000
vt 0.163219 0.696090 0.000000
vt 0.157276 0.703292 0.000000
vt 0.158369 0.704056 0.000000
vt 0.151747 0.710506 0.000000
vt 0.152751 0.711385 0.000000
vt 0.145520 0.717035 0.000000
vt 0.146421 0.718019 0.000000
vt 0.138661 0.722830 0.000000
vt 0.139449 0.723907 0.000000
vt 0.131242 0.727844 0.000000
vt 0.131907 0.729001 0.000000
vt 0.123338 0.732029 0.000000
vt 0.123871 0.733252 0.000000
vt 0.115020 0.735338 0.000000
vt 0.115415 0.736612 0.000000
vt 0.106363 0.737723 0.000000
vt 0.106612 0.739034 0.000000
vt 0.097440 0.739139 0.000000
vt 0.097538 0.740469 0.000000
vt 0.088317 0.739539 0.000000
vt 0.088272 0.740872 0.000000
vt 0.081405 0.739143 0.000000
vt 0.081230 0.740465 0.000000
vt 0.073803 0.738007 0.000000
vt 0.073513 0.739309 0.000000
vt 0.068973 0.736869 0.000000
vt 0.068574 0.738142 0.000000
vt 0.062027 0.734608 0.000000
vt 0.061514 0.735839 0.000000
vt 0.055495 0.731727 0.000000
vt 0.054861 0.732900 0.000000
vt 0.049378 0.728261 0.000000
vt 0.048631 0.729366 0.000000
vt 0.043685 0.724248 0.000000
vt 0.042835 0.725276 0.000000
vt 0.038429 0.719726 0.000000
vt 0.037486 0.720669 0.000000
vt 0.033620 0.714731 0.000000
vt 0.032595 0.715584 0.000000
vt 0.029275 0.709308 0.000000
vt 0.028173 0.710058 0.000000
vt 0.024209 0.701453 0.000000
vt 0.023034 0.702084 0.000000
vt 0.020012 0.692987 0.000000
vt 0.018776 0.693488 0.000000
vt 0.016706 0.683999 0.000000
vt 0.015425 0.684370 0.000000
vt 0.014306 0.674617 0.000000
vt 0.012995 0.674859 0.000000
vt 0.012836 0.664892 0.000000
vt 0.011508 0.665012 0.000000
vt 0.012287 0.654909 0.000000
vt 0.010953 0.654922 0.000000
vt 0.016281 0.505050 0.000000
vt 0.014949 0.505027 0.000000
vt 0.018462 0.318617 0.000000
vt 0.017129 0.318622 0.000000
vt 0.012287 0.139952 0.000000
vt 0.010953 0.139936 0.000000
vt 0.013176 0.118482 0.000000
vt 0.011847 0.118366 0.000000
vt 0.015421 0.102755 0.000000
vt 0.014108 0.102521 0.000000
vt 0.018247 0.090569 0.000000
vt 0.016960 0.090220 0.000000
vt 0.023086 0.075989 0.000000
vt 0.021836 0.075522 0.000000
vt 0.027994 0.065014 0.000000
vt 0.026796 0.064427 0.000000
vt 0.033832 0.054684 0.000000
vt 0.032698 0.053980 0.000000
vt 0.040625 0.045201 0.000000
vt 0.039569 0.044387 0.000000
vt 0.046340 0.038727 0.000000
vt 0.045368 0.037814 0.000000
vt 0.052600 0.032839 0.000000
vt 0.051717 0.031839 0.000000
vt 0.059399 0.027591 0.000000
vt 0.058619 0.026509 0.000000
vt 0.066739 0.023031 0.000000
vt 0.066073 0.021876 0.000000
vt 0.074624 0.019207 0.000000
vt 0.074082 0.017988 0.000000
vt 0.083057 0.016166 0.000000
vt 0.082645 0.014897 0.000000
vt 0.092042 0.013959 0.000000
vt 0.091763 0.012654 0.000000
vt 0.101583 0.012634 0.000000
vt 0.101439 0.011308 0.000000
vt 0.111270 0.012286 0.000000
vt 0.111248 0.010953 0.000000
vt 0.117624 0.012578 0.000000
vt 0.117713 0.011247 0.000000
vt 0.127026 0.013773 0.000000
vt 0.127230 0.012455 0.000000
vt 0.136184 0.015838 0.000000
vt 0.136512 0.014545 0.000000
vt 0.145056 0.018735 0.000000
vt 0.145504 0.017478 0.000000
vt 0.153592 0.022424 0.000000
vt 0.154154 0.021214 0.000000
vt 0.161742 0.026866 0.000000
vt 0.162412 0.025713 0.000000
vt 0.169456 0.032020 0.000000
vt 0.170229 0.030933 0.000000
vt 0.176685 0.037848 0.000000
vt 0.177552 0.036835 0.000000
vt 0.183381 0.044307 0.000000
vt 0.184336 0.043376 0.000000
vt 0.189494 0.051361 0.000000
vt 0.190528 0.050519 0.000000
vt 0.194987 0.058961 0.000000
vt 0.196093 0.058216 0.000000
vt 0.199804 0.067085 0.000000
vt 0.200969 0.066437 0.000000
vt 0.203960 0.075664 0.000000
vt 0.205175 0.075118 0.000000
vt 0.207354 0.084722 0.000000
vt 0.208601 0.084252 0.000000
vt 0.210239 0.094131 0.000000
vt 0.211514 0.093743 0.000000
vt 0.212292 0.104061 0.000000
vt 0.213571 0.103741 0.000000
vt 0.212601 0.105908 0.000000
vt 0.213628 0.104352 0.000000
vt 0.221101 0.104182 0.000000
vt 0.220875 0.102870 0.000000
vt 0.228352 0.103109 0.000000
vt 0.228199 0.101784 0.000000
vt 0.236573 0.102577 0.000000
vt 0.236534 0.101244 0.000000
vt 0.245835 0.102829 0.000000
vt 0.245911 0.101498 0.000000
vt 0.251857 0.103505 0.000000
vt 0.252047 0.102185 0.000000
vt 0.260703 0.105261 0.000000
vt 0.261014 0.103963 0.000000
vt 0.269242 0.107860 0.000000
vt 0.269680 0.106600 0.000000
vt 0.277443 0.111265 0.000000
vt 0.278002 0.110054 0.000000
vt 0.285263 0.115434 0.000000
vt 0.285936 0.114282 0.000000
vt 0.292661 0.120326 0.000000
vt 0.293440 0.119243 0.000000
vt 0.299595 0.125900 0.000000
vt 0.300471 0.124894 0.000000
vt 0.306020 0.132115 0.000000
vt 0.306985 0.131193 0.000000
vt 0.311898 0.138925 0.000000
vt 0.312942 0.138095 0.000000
vt 0.317182 0.146292 0.000000
vt 0.318297 0.145560 0.000000
vt 0.321832 0.154174 0.000000
vt 0.323008 0.153546 0.000000
vt 0.325803 0.162530 0.000000
vt 0.327031 0.162011 0.000000
vt 0.329055 0.171319 0.000000
vt 0.330326 0.170913 0.000000
vt 0.331543 0.180498 0.000000
vt 0.332845 0.180208 0.000000
vt 0.333228 0.190030 0.000000
vt 0.334550 0.189859 0.000000
vt 0.334064 0.199877 0.000000
vt 0.335395 0.199810 0.000000
vt 0.334167 0.206025 0.000000
vt 0.335500 0.206045 0.000000
vt 0.333905 0.212130 0.000000
vt 0.335234 0.212239 0.000000
vt 0.332846 0.221213 0.000000
vt 0.334162 0.221428 0.000000
vt 0.330993 0.230124 0.000000
vt 0.332285 0.230452 0.000000
vt 0.328396 0.238840 0.000000
vt 0.329655 0.239279 0.000000
vt 0.325037 0.247301 0.000000
vt 0.326257 0.247838 0.000000
vt 0.321008 0.255506 0.000000
vt 0.322180 0.256139 0.000000
vt 0.316239 0.263373 0.000000
vt 0.317369 0.264060 0.000000
vt 0.309788 0.272893 0.000000
vt 0.312085 0.271794 0.000000
vt 0.312724 0.273054 0.000000
vt 0.312913 0.271752 0.000000
vt 0.322715 0.274196 0.000000
vt 0.322944 0.272884 0.000000
vt 0.329247 0.275402 0.000000
vt 0.329563 0.274106 0.000000
vt 0.338794 0.278218 0.000000
vt 0.339236 0.276959 0.000000
vt 0.348027 0.282083 0.000000
vt 0.348595 0.280876 0.000000
vt 0.356889 0.287022 0.000000
vt 0.357584 0.285883 0.000000
vt 0.365334 0.293000 0.000000
vt 0.366143 0.291939 0.000000
vt 0.373313 0.299965 0.000000
vt 0.374222 0.298989 0.000000
vt 0.380777 0.307860 0.000000
vt 0.381774 0.306973 0.000000
vt 0.387676 0.316622 0.000000
vt 0.388753 0.315836 0.000000
vt 0.395927 0.329566 0.000000
vt 0.397080 0.328894 0.000000
vt 0.402983 0.343794 0.000000
vt 0.404200 0.343248 0.000000
vt 0.408732 0.359176 0.000000
vt 0.409998 0.358757 0.000000
vt 0.413062 0.375572 0.000000
vt 0.414363 0.375280 0.000000
vt 0.415860 0.392839 0.000000
vt 0.417184 0.392676 0.000000
vt 0.417015 0.410844 0.000000
vt 0.418348 0.410800 0.000000
vt 0.416742 0.424428 0.000000
vt 0.418074 0.424491 0.000000
vt 0.415512 0.437672 0.000000
vt 0.416835 0.437841 0.000000
vt 0.412462 0.454700 0.000000
vt 0.413764 0.454990 0.000000
vt 0.407903 0.470852 0.000000
vt 0.409169 0.471270 0.000000
vt 0.401935 0.485992 0.000000
vt 0.403152 0.486539 0.000000
vt 0.394662 0.499975 0.000000
vt 0.395813 0.500649 0.000000
vt 0.386183 0.512662 0.000000
vt 0.387257 0.513454 0.000000
vt 0.379101 0.521228 0.000000
vt 0.380091 0.522122 0.000000
vt 0.371435 0.528926 0.000000
vt 0.372334 0.529911 0.000000
vt 0.363232 0.535689 0.000000
vt 0.364026 0.536761 0.000000
vt 0.354534 0.541457 0.000000
vt 0.355207 0.542609 0.000000
vt 0.345379 0.546171 0.000000
vt 0.345916 0.547392 0.000000
vt 0.335803 0.549770 0.000000
vt 0.336190 0.551047 0.000000
vt 0.325840 0.552195 0.000000
vt 0.326065 0.553510 0.000000
vt 0.315516 0.553384 0.000000
vt 0.315587 0.554715 0.000000
vt 0.311328 0.553414 0.000000
vt 0.311304 0.554736 0.000000
vt 0.305272 0.553144 0.000000
vt 0.307076 0.554551 0.000000
vt 0.307904 0.561249 0.000000
vt 0.309181 0.560875 0.000000
vt 0.309551 0.566677 0.000000
vt 0.310841 0.566341 0.000000
vt 0.311430 0.574940 0.000000
vt 0.312740 0.574691 0.000000
vt 0.312795 0.584237 0.000000
vt 0.314121 0.584095 0.000000
vt 0.313262 0.592682 0.000000
vt 0.314595 0.592654 0.000000
vt 0.313038 0.601161 0.000000
vt 0.314368 0.601255 0.000000
vt 0.311872 0.610361 0.000000
vt 0.313189 0.610572 0.000000
vt 0.310645 0.616328 0.000000
vt 0.311940 0.616644 0.000000
vt 0.308120 0.625039 0.000000
vt 0.309383 0.625468 0.000000
vt 0.304828 0.633380 0.000000
vt 0.306044 0.633927 0.000000
vt 0.300809 0.641320 0.000000
vt 0.301969 0.641978 0.000000
vt 0.296111 0.648819 0.000000
vt 0.297205 0.649582 0.000000
vt 0.290777 0.655837 0.000000
vt 0.291797 0.656697 0.000000
vt 0.284854 0.662336 0.000000
vt 0.285791 0.663284 0.000000
vt 0.278386 0.668273 0.000000
vt 0.279234 0.669303 0.000000
vt 0.271420 0.673611 0.000000
vt 0.272171 0.674713 0.000000
vt 0.264001 0.678310 0.000000
vt 0.264648 0.679476 0.000000
vt 0.256175 0.682329 0.000000
vt 0.256712 0.683549 0.000000
vt 0.247986 0.685629 0.000000
vt 0.248406 0.686894 0.000000
vt 0.239479 0.688171 0.000000
vt 0.239779 0.689471 0.000000
vt 0.230700 0.689919 0.000000
vt 0.230874 0.691241 0.000000
vt 0.221691 0.690830 0.000000
vt 0.221736 0.692163 0.000000
vt 0.212488 0.690876 0.000000
vt 0.212410 0.692207 0.000000
vt 0.203782 0.690148 0.000000
vt 0.203587 0.691467 0.000000
vt 0.195206 0.688642 0.000000
vt 0.194894 0.689938 0.000000
vt 0.186406 0.687612 0.000000
vt 0.178044 0.684633 0.000000
vt 0.169980 0.680900 0.000000
# 935 texture coordinates

o CARDBOARDCLOUD01
usemtl CBCLOUD01
f 614/3/1 615/2/1 616/1/1
f 333/7/2 310/6/2 309/5/2
f 155/11/3 156/10/4 2/9/4 1/8/3
f 156/10/4 157/13/5 3/12/5 2/9/4
f 157/13/5 158/15/6 4/14/6 3/12/5
f 158/15/6 159/17/7 5/16/7 4/14/6
f 159/17/7 160/19/8 6/18/8 5/16/7
f 160/19/8 161/21/9 7/20/9 6/18/8
f 161/21/9 162/23/10 8/22/10 7/20/9
f 162/23/10 163/25/11 9/24/11 8/22/10
f 163/25/11 164/27/12 10/26/12 9/24/11
f 164/27/12 165/29/13 11/28/13 10/26/12
f 165/29/13 166/31/14 12/30/14 11/28/13
f 166/31/14 167/33/15 13/32/15 12/30/14
f 167/33/15 168/35/16 14/34/16 13/32/15
f 168/35/16 169/37/17 15/36/17 14/34/16
f 169/37/17 170/39/18 16/38/18 15/36/17
f 170/39/18 171/41/19 17/40/19 16/38/18
f 171/41/19 172/43/20 18/42/20 17/40/19
f 172/43/20 173/45/21 19/44/21 18/42/20
f 173/45/21 174/47/22 20/46/22 19/44/21
f 174/47/22 175/49/23 21/48/23 20/46/22
f 175/49/23 176/51/24 22/50/24 21/48/23
f 176/51/24 177/53/25 23/52/25 22/50/24
f 177/53/25 178/55/26 24/54/26 23/52/25
f 178/55/26 179/57/27 25/56/27 24/54/26
f 179/57/27 180/59/28 26/58/28 25/56/27
f 180/59/28 181/61/29 27/60/29 26/58/28
f 181/61/29 182/63/30 28/62/30 27/60/29
f 182/63/30 183/65/31 29/64/31 28/62/30
f 183/69/32 184/68/33 30/67/33 29/66/32
f 184/68/33 185/71/34 31/70/34 30/67/33
f 185/71/34 186/73/35 32/72/35 31/70/34
f 186/73/35 187/75/36 33/74/36 32/72/35
f 187/75/36 188/77/37 34/76/37 33/74/36
f 188/77/37 189/79/38 35/78/38 34/76/37
f 189/79/38 190/81/39 36/80/39 35/78/38
f 190/81/39 191/83/40 37/82/40 36/80/39
f 191/83/40 192/85/41 38/84/41 37/82/40
f 192/85/41 193/87/42 39/86/42 38/84/41
f 193/87/42 194/89/43 40/88/43 39/86/42
f 194/89/43 195/91/44 41/90/44 40/88/43
f 195/91/44 196/93/45 42/92/45 41/90/44
f 196/93/45 197/95/46 43/94/46 42/92/45
f 197/95/46 198/97/47 44/96/47 43/94/46
f 198/97/47 199/99/48 45/98/48 44/96/47
f 199/99/48 200/101/49 46/100/49 45/98/48
f 200/101/49 201/103/50 47/102/50 46/100/49
f 201/103/50 202/105/51 48/104/51 47/102/50
f 202/105/51 203/107/52 49/106/52 48/104/51
f 203/107/52 204/109/53 50/108/53 49/106/52
f 204/109/53 205/111/54 51/110/54 50/108/53
f 205/111/54 206/113/55 52/112/55 51/110/54
f 206/113/55 207/115/56 53/114/56 52/112/55
f 207/115/56 208/117/57 54/116/57 53/114/56
f 208/117/57 209/119/58 55/118/58 54/116/57
f 209/119/58 210/121/59 56/120/59 55/118/58
f 210/121/59 211/123/60 57/122/60 56/120/59
f 211/123/60 212/125/61 58/124/61 57/122/60
f 212/125/61 213/127/62 59/126/62 58/124/61
f 213/127/62 214/129/63 60/128/63 59/126/62
f 214/129/63 215/131/64 61/130/64 60/128/63
f 215/131/65 216/133/65 62/132/65 61/130/65
f 216/137/66 217/136/67 63/135/67 62/134/66
f 217/136/67 218/139/68 64/138/68 63/135/67
f 218/139/68 219/141/69 65/140/69 64/138/68
f 219/141/69 220/143/70 66/142/70 65/140/69
f 220/143/70 221/145/71 67/144/71 66/142/70
f 221/145/71 222/147/72 68/146/72 67/144/71
f 222/147/72 223/149/73 69/148/73 68/146/72
f 223/149/73 224/151/74 70/150/74 69/148/73
f 224/151/74 225/153/75 71/152/75 70/150/74
f 225/153/75 226/155/76 72/154/76 71/152/75
f 226/155/76 227/157/77 73/156/77 72/154/76
f 227/157/77 228/159/78 74/158/78 73/156/77
f 228/159/78 229/161/79 75/160/79 74/158/78
f 229/161/79 230/163/80 76/162/80 75/160/79
f 230/163/80 231/165/81 77/164/81 76/162/80
f 231/165/81 232/167/82 78/166/82 77/164/81
f 232/167/82 233/169/83 79/168/83 78/166/82
f 233/169/83 234/171/84 80/170/84 79/168/83
f 234/171/84 235/173/85 81/172/85 80/170/84
f 235/173/85 236/175/86 82/174/86 81/172/85
f 236/175/86 237/177/87 83/176/87 82/174/86
f 237/177/87 238/179/88 84/178/88 83/176/87
f 238/179/88 239/181/89 85/180/89 84/178/88
f 239/181/89 240/183/90 86/182/90 85/180/89
f 240/183/90 241/185/91 87/184/91 86/182/90
f 241/185/91 242/187/92 88/186/92 87/184/91
f 242/187/92 243/189/93 89/188/93 88/186/92
f 243/189/93 244/191/94 90/190/94 89/188/93
f 244/191/94 245/193/95 91/192/95 90/190/94
f 245/197/96 246/196/96 92/195/96 91/194/96
f 246/196/97 247/199/98 93/198/98 92/195/97
f 247/199/98 248/201/99 94/200/99 93/198/98
f 248/201/99 249/203/100 95/202/100 94/200/99
f 249/203/100 250/205/101 96/204/101 95/202/100
f 250/205/101 251/207/102 97/206/102 96/204/101
f 251/207/102 252/209/103 98/208/103 97/206/102
f 252/209/103 253/211/104 99/210/104 98/208/103
f 253/211/104 254/213/105 100/212/105 99/210/104
f 254/213/105 255/215/106 101/214/106 100/212/105
f 255/215/106 256/217/107 102/216/107 101/214/106
f 256/217/107 257/219/108 103/218/108 102/216/107
f 257/219/108 258/221/109 104/220/109 103/218/108
f 258/221/109 259/223/110 105/222/110 104/220/109
f 259/223/110 260/225/111 106/224/111 105/222/110
f 260/225/111 261/227/112 107/226/112 106/224/111
f 261/227/112 262/229/113 108/228/113 107/226/112
f 262/229/113 263/231/114 109/230/114 108/228/113
f 263/231/114 264/233/115 110/232/115 109/230/114
f 264/233/115 265/235/116 111/234/116 110/232/115
f 265/235/116 266/237/117 112/236/117 111/234/116
f 266/237/117 267/239/118 113/238/118 112/236/117
f 267/239/118 268/241/119 114/240/119 113/238/118
f 268/241/119 269/243/120 115/242/120 114/240/119
f 269/243/120 270/245/121 116/244/121 115/242/120
f 270/245/121 271/247/122 117/246/122 116/244/121
f 271/247/122 272/249/123 118/248/123 117/246/122
f 272/249/123 273/251/124 119/250/124 118/248/123
f 273/251/124 274/253/125 120/252/125 119/250/124
f 274/253/125 275/255/126 121/254/126 120/252/125
f 275/255/126 276/257/127 122/256/127 121/254/126
f 276/257/127 277/259/128 123/258/128 122/256/127
f 277/259/128 278/261/129 124/260/129 123/258/128
f 278/261/129 279/263/130 125/262/130 124/260/129
f 279/267/130 280/266/131 126/265/131 125/264/130
f 280/266/131 281/269/132 127/268/132 126/265/131
f 281/269/132 282/271/133 128/270/133 127/268/132
f 282/271/133 283/273/134 129/272/134 128/270/133
f 283/273/134 284/275/135 130/274/135 129/272/134
f 284/275/135 285/277/136 131/276/136 130/274/135
f 285/277/136 286/279/137 132/278/137 131/276/136
f 286/279/137 287/281/138 133/280/138 132/278/137
f 287/281/138 288/283/139 134/282/139 133/280/138
f 288/283/139 289/285/140 135/284/140 134/282/139
f 289/285/140 290/287/141 136/286/141 135/284/140
f 290/287/141 291/289/142 137/288/142 136/286/141
f 291/289/142 292/291/143 138/290/143 137/288/142
f 292/291/143 293/293/144 139/292/144 138/290/143
f 293/293/144 294/295/145 140/294/145 139/292/144
f 294/295/145 295/297/146 141/296/146 140/294/145
f 295/297/146 296/299/147 142/298/147 141/296/146
f 296/299/147 297/301/148 143/300/148 142/298/147
f 297/301/148 298/303/149 144/302/149 143/300/148
f 298/303/149 299/305/150 145/304/150 144/302/149
f 299/305/150 300/307/151 146/306/151 145/304/150
f 300/307/151 301/309/152 147/308/152 146/306/151
f 301/309/152 302/311/153 148/310/153 147/308/152
f 302/311/153 303/313/154 149/312/154 148/310/153
f 303/313/154 304/315/155 150/314/155 149/312/154
f 304/315/155 305/317/156 151/316/156 150/314/155
f 305/317/156 306/319/157 152/318/157 151/316/156
f 306/319/157 307/321/158 153/320/158 152/318/157
f 307/321/158 308/323/159 154/322/159 153/320/158
f 308/323/159 155/325/160 1/324/160 154/322/159
f 154/327/162 309/5/162 310/6/161 153/326/161
f 153/326/161 310/6/161 311/329/163 152/328/163
f 152/328/163 311/329/163 312/331/164 151/330/164
f 151/330/164 312/331/164 313/333/165 150/332/165
f 150/332/165 313/333/165 314/335/166 149/334/166
f 149/334/166 314/335/166 315/337/167 148/336/167
f 148/336/167 315/337/167 316/339/168 147/338/168
f 147/338/168 316/339/168 317/341/169 146/340/169
f 146/340/169 317/341/169 318/343/170 145/342/170
f 145/342/170 318/343/170 319/345/171 144/344/171
f 144/344/171 319/345/171 320/347/172 143/346/172
f 143/346/172 320/347/172 321/349/173 142/348/173
f 142/348/173 321/349/173 322/351/174 141/350/174
f 141/350/174 322/351/174 323/353/175 140/352/175
f 140/352/175 323/353/175 324/355/176 139/354/176
f 139/354/176 324/355/176 325/357/177 138/356/177
f 138/356/177 325/357/177 326/359/178 137/358/178
f 137/358/178 326/359/178 327/361/179 136/360/179
f 136/360/179 327/361/179 328/363/180 135/362/180
f 135/362/180 328/363/180 329/365/181 134/364/181
f 134/364/181 329/365/181 330/367/182 133/366/182
f 133/366/182 330/367/182 331/369/183 132/368/183
f 132/368/183 331/369/183 332/371/184 131/370/184
f 131/370/184 332/371/184 333/7/185 130/372/185
f 130/372/185 333/7/185 334/374/186 129/373/186
f 129/373/186 334/374/186 335/376/187 128/375/187
f 128/375/187 335/376/187 336/378/188 127/377/188
f 127/377/188 336/378/188 337/380/189 126/379/189
f 126/379/189 337/380/189 338/382/190 125/381/190
f 125/381/190 338/382/190 339/384/191 124/383/191
f 124/383/191 339/384/191 340/386/192 123/385/192
f 123/385/192 340/386/192 341/388/193 122/387/193
f 122/387/193 341/388/193 342/390/194 121/389/194
f 121/389/194 342/390/194 343/392/195 120/391/195
f 120/391/195 343/392/195 344/394/196 119/393/196
f 119/393/196 344/394/196 345/396/197 118/395/197
f 118/395/197 345/396/197 346/398/198 117/397/198
f 117/397/198 346/398/198 347/400/199 116/399/199
f 116/399/199 347/400/199 348/402/200 115/401/200
f 115/401/200 348/402/200 349/404/201 114/403/201
f 114/403/201 349/404/201 350/406/202 113/405/202
f 113/405/202 350/406/202 351/408/203 112/407/203
f 112/407/203 351/408/203 352/410/204 111/409/204
f 111/409/204 352/410/204 353/412/205 110/411/205
f 110/411/205 353/412/205 354/414/206 109/413/206
f 109/413/206 354/414/206 355/416/207 108/415/207
f 108/415/207 355/416/207 356/418/208 107/417/208
f 107/417/208 356/418/208 357/420/209 106/419/209
f 106/419/209 357/420/209 358/422/210 105/421/210
f 105/421/210 358/422/210 359/424/211 104/423/211
f 104/423/211 359/424/211 360/426/212 103/425/212
f 103/425/212 360/426/212 361/428/213 102/427/213
f 102/427/213 361/428/213 362/430/214 101/429/214
f 101/429/214 362/430/214 363/432/215 100/431/215
f 100/431/215 363/432/215 364/434/216 99/433/216
f 99/433/216 364/434/216 365/436/217 98/435/217
f 98/435/217 365/436/217 366/438/218 97/437/218
f 97/437/218 366/438/218 367/440/219 96/439/219
f 96/439/219 367/440/219 368/442/220 95/441/220
f 95/441/220 368/442/220 369/444/221 94/443/221
f 94/443/221 369/444/221 370/446/222 93/445/222
f 93/445/222 370/446/222 371/448/223 92/447/223
f 92/447/223 371/448/223 372/450/224 91/449/224
f 91/449/226 372/450/226 373/452/225 90/451/225
f 90/451/225 373/452/225 374/454/227 89/453/227
f 89/453/227 374/454/227 375/456/228 88/455/228
f 88/455/228 375/456/228 376/458/229 87/457/229
f 87/457/229 376/458/229 377/460/230 86/459/230
f 86/459/230 377/460/230 378/462/231 85/461/231
f 85/461/231 378/462/231 379/464/232 84/463/232
f 84/463/232 379/464/232 380/466/233 83/465/233
f 83/465/233 380/466/233 381/468/234 82/467/234
f 82/467/234 381/468/234 382/470/235 81/469/235
f 81/469/235 382/470/235 383/472/236 80/471/236
f 80/471/236 383/472/236 384/474/237 79/473/237
f 79/473/237 384/474/237 385/476/238 78/475/238
f 78/475/238 385/476/238 386/478/239 77/477/239
f 77/477/239 386/478/239 387/480/240 76/479/240
f 76/479/240 387/480/240 388/482/241 75/481/241
f 75/481/241 388/482/241 389/484/242 74/483/242
f 74/483/242 389/484/242 390/486/243 73/485/243
f 73/485/243 390/486/243 391/488/244 72/487/244
f 72/487/244 391/488/244 392/490/245 71/489/245
f 71/489/245 392/490/245 393/492/246 70/491/246
f 70/491/246 393/492/246 394/494/247 69/493/247
f 69/493/247 394/494/247 395/496/248 68/495/248
f 68/495/248 395/496/248 396/498/249 67/497/249
f 67/497/249 396/498/249 397/500/250 66/499/250
f 66/499/250 397/500/250 398/502/251 65/501/251
f 65/501/251 398/502/251 399/504/252 64/503/252
f 64/503/252 399/504/252 400/506/253 63/505/253
f 63/505/253 400/506/253 401/508/254 62/507/254
f 62/507/256 401/508/256 402/510/255 61/509/255
f 61/509/255 402/510/255 403/512/257 60/511/257
f 60/511/257 403/512/257 404/514/258 59/513/258
f 59/513/258 404/514/258 405/516/259 58/515/259
f 58/515/259 405/516/259 406/518/260 57/517/260
f 57/517/260 406/518/260 407/520/261 56/519/261
f 56/519/261 407/520/261 408/522/262 55/521/262
f 55/521/262 408/522/262 409/524/263 54/523/263
f 54/523/263 409/524/263 410/526/264 53/525/264
f 53/525/264 410/526/264 411/528/265 52/527/265
f 52/527/265 411/528/265 412/530/266 51/529/266
f 51/529/266 412/530/266 413/532/267 50/531/267
f 50/531/267 413/532/267 414/534/268 49/533/268
f 49/533/268 414/534/268 415/536/269 48/535/269
f 48/535/269 415/536/269 416/538/270 47/537/270
f 47/537/270 416/538/270 417/540/271 46/539/271
f 46/539/271 417/540/271 418/542/272 45/541/272
f 45/541/272 418/542/272 419/544/273 44/543/273
f 44/543/273 419/544/273 420/546/274 43/545/274
f 43/545/274 420/546/274 421/548/275 42/547/275
f 42/547/275 421/548/275 422/550/276 41/549/276
f 41/549/276 422/550/276 423/552/277 40/551/277
f 40/551/277 423/552/277 424/554/278 39/553/278
f 39/553/278 424/554/278 425/556/279 38/555/279
f 38/555/279 425/556/279 426/558/280 37/557/280
f 37/557/280 426/558/280 427/560/281 36/559/281
f 36/559/281 427/560/281 428/562/282 35/561/282
f 35/561/282 428/562/282 429/564/283 34/563/283
f 34/563/283 429/564/283 430/566/284 33/565/284
f 33/565/284 430/566/284 431/568/285 32/567/285
f 32/567/285 431/568/285 432/570/286 31/569/286
f 31/569/286 432/570/286 433/572/287 30/571/287
f 30/571/287 433/572/287 434/574/288 29/573/288
f 29/573/290 434/574/290 435/576/289 28/575/289
f 28/575/289 435/576/289 436/578/291 27/577/291
f 27/577/291 436/578/291 437/580/292 26/579/292
f 26/579/292 437/580/292 438/582/293 25/581/293
f 25/581/293 438/582/293 439/584/294 24/583/294
f 24/583/294 439/584/294 440/586/295 23/585/295
f 23/585/295 440/586/295 441/588/296 22/587/296
f 22/587/296 441/588/296 442/590/297 21/589/297
f 21/589/297 442/590/297 443/592/298 20/591/298
f 20/591/298 443/592/298 444/594/299 19/593/299
f 19/593/299 444/594/299 445/596/300 18/595/300
f 18/595/300 445/596/300 446/598/301 17/597/301
f 17/597/301 446/598/301 447/600/302 16/599/302
f 16/599/302 447/600/302 448/602/303 15/601/303
f 15/601/303 448/602/303 449/604/304 14/603/304
f 14/603/304 449/604/304 450/606/305 13/605/305
f 13/605/305 450/606/305 451/608/306 12/607/306
f 12/607/306 451/608/306 452/610/307 11/609/307
f 11/609/307 452/610/307 453/612/308 10/611/308
f 10/611/308 453/612/308 454/614/309 9/613/309
f 9/613/309 454/614/309 455/616/310 8/615/310
f 8/615/310 455/616/310 456/618/311 7/617/311
f 7/617/311 456/618/311 457/620/312 6/619/312
f 6/619/312 457/620/312 458/622/313 5/621/313
f 5/621/313 458/622/313 459/624/314 4/623/314
f 4/623/314 459/624/314 460/626/315 3/625/315
f 3/625/315 460/626/315 461/628/316 2/627/316
f 2/627/316 461/628/316 462/630/317 1/629/317
f 1/629/318 462/630/318 309/5/162 154/327/162
f 307/634/320 464/633/320 463/632/319 308/631/319
f 306/636/321 465/635/321 464/633/320 307/634/320
f 305/638/322 466/637/322 465/635/321 306/636/321
f 304/640/323 467/639/323 466/637/322 305/638/322
f 303/642/324 468/641/324 467/639/323 304/640/323
f 302/644/325 469/643/325 468/641/324 303/642/324
f 301/646/326 470/645/326 469/643/325 302/644/325
f 300/648/327 471/647/327 470/645/326 301/646/326
f 299/650/328 472/649/328 471/647/327 300/648/327
f 298/652/329 473/651/329 472/649/328 299/650/328
f 297/654/330 474/653/330 473/651/329 298/652/329
f 296/656/331 475/655/331 474/653/330 297/654/330
f 295/658/332 476/657/332 475/655/331 296/656/331
f 294/660/333 477/659/333 476/657/332 295/658/332
f 293/662/334 478/661/334 477/659/333 294/660/333
f 292/664/335 479/663/335 478/661/334 293/662/334
f 291/666/336 480/665/336 479/663/335 292/664/335
f 290/668/337 481/667/337 480/665/336 291/666/336
f 289/670/338 482/669/338 481/667/337 290/668/337
f 288/672/339 483/671/339 482/669/338 289/670/338
f 287/674/340 484/673/340 483/671/339 288/672/339
f 286/676/341 485/675/341 484/673/340 287/674/340
f 285/678/342 486/677/342 485/675/341 286/676/341
f 284/680/343 487/679/343 486/677/342 285/678/342
f 283/682/344 488/681/344 487/679/343 284/680/343
f 282/684/345 489/683/345 488/681/344 283/682/344
f 281/686/346 490/685/346 489/683/345 282/684/345
f 280/688/347 491/687/347 490/685/346 281/686/346
f 279/690/348 492/689/348 491/687/347 280/688/347
f 278/692/349 493/691/349 492/689/348 279/690/348
f 277/694/350 494/693/350 493/691/349 278/692/349
f 276/696/351 495/695/351 494/693/350 277/694/350
f 275/698/352 496/697/352 495/695/351 276/696/351
f 274/700/353 497/699/353 496/697/352 275/698/352
f 273/702/354 498/701/354 497/699/353 274/700/353
f 272/704/355 499/703/355 498/701/354 273/702/354
f 271/706/356 500/705/356 499/703/355 272/704/355
f 270/708/357 501/707/357 500/705/356 271/706/356
f 269/710/358 502/709/358 501/707/357 270/708/357
f 268/712/359 503/711/359 502/709/358 269/710/358
f 267/714/360 504/713/360 503/711/359 268/712/359
f 266/716/361 505/715/361 504/713/360 267/714/360
f 265/718/362 506/717/362 505/715/361 266/716/361
f 264/720/363 507/719/363 506/717/362 265/718/362
f 263/722/364 508/721/364 507/719/363 264/720/363
f 262/724/365 509/723/365 508/721/364 263/722/364
f 261/726/366 510/725/366 509/723/365 262/724/365
f 260/728/367 511/727/367 510/725/366 261/726/366
f 259/730/368 512/729/368 511/727/367 260/728/367
f 258/732/369 513/731/369 512/729/368 259/730/368
f 257/734/370 514/733/370 513/731/369 258/732/369
f 256/736/371 515/735/371 514/733/370 257/734/370
f 255/738/372 516/737/372 515/735/371 256/736/371
f 254/740/373 517/739/373 516/737/372 255/738/372
f 253/742/374 518/741/374 517/739/373 254/740/373
f 252/744/375 519/743/375 518/741/374 253/742/374
f 251/746/376 520/745/376 519/743/375 252/744/375
f 250/748/377 521/747/377 520/745/376 251/746/376
f 249/750/378 522/749/378 521/747/377 250/748/377
f 248/752/379 523/751/379 522/749/378 249/750/378
f 247/754/380 524/753/380 523/751/379 248/752/379
f 246/756/381 525/755/381 524/753/380 247/754/380
f 245/758/382 526/757/382 525/755/381 246/756/381
f 244/760/384 527/759/384 526/757/383 245/758/383
f 243/762/385 528/761/385 527/759/384 244/760/384
f 242/764/386 529/763/386 528/761/385 243/762/385
f 241/766/387 530/765/387 529/763/386 242/764/386
f 240/768/388 531/767/388 530/765/387 241/766/387
f 239/770/389 532/769/389 531/767/388 240/768/388
f 238/772/390 533/771/390 532/769/389 239/770/389
f 237/774/391 534/773/391 533/771/390 238/772/390
f 236/776/392 535/775/392 534/773/391 237/774/391
f 235/778/393 536/777/393 535/775/392 236/776/392
f 234/780/394 537/779/394 536/777/393 235/778/393
f 233/782/395 538/781/395 537/779/394 234/780/394
f 232/784/396 539/783/396 538/781/395 233/782/395
f 231/786/397 540/785/397 539/783/396 232/784/396
f 230/788/398 541/787/398 540/785/397 231/786/397
f 229/790/399 542/789/399 541/787/398 230/788/398
f 228/792/400 543/791/400 542/789/399 229/790/399
f 227/794/401 544/793/401 543/791/400 228/792/400
f 226/796/402 545/795/402 544/793/401 227/794/401
f 225/798/403 546/797/403 545/795/402 226/796/402
f 224/800/404 547/799/404 546/797/403 225/798/403
f 223/802/405 548/801/405 547/799/404 224/800/404
f 222/804/406 549/803/406 548/801/405 223/802/405
f 221/806/407 550/805/407 549/803/406 222/804/406
f 220/808/408 551/807/408 550/805/407 221/806/407
f 219/810/409 552/809/409 551/807/408 220/808/408
f 218/812/410 553/811/410 552/809/409 219/810/409
f 217/814/411 554/813/411 553/811/410 218/812/410
f 216/816/412 555/815/412 554/813/411 217/814/411
f 215/818/414 556/817/414 555/815/413 216/816/413
f 214/820/415 557/819/415 556/817/414 215/818/414
f 213/822/416 558/821/416 557/819/415 214/820/415
f 212/824/417 559/823/417 558/821/416 213/822/416
f 211/826/418 560/825/418 559/823/417 212/824/417
f 210/828/419 561/827/419 560/825/418 211/826/418
f 209/830/420 562/829/420 561/827/419 210/828/419
f 208/832/421 563/831/421 562/829/420 209/830/420
f 207/834/422 564/833/422 563/831/421 208/832/421
f 206/836/423 565/835/423 564/833/422 207/834/422
f 205/838/424 566/837/424 565/835/423 206/836/423
f 204/840/425 567/839/425 566/837/424 205/838/424
f 203/842/426 568/841/426 567/839/425 204/840/425
f 202/844/427 569/843/427 568/841/426 203/842/426
f 201/846/428 570/845/428 569/843/427 202/844/427
f 200/848/429 571/847/429 570/845/428 201/846/428
f 199/850/430 572/849/430 571/847/429 200/848/429
f 198/852/431 573/851/431 572/849/430 199/850/430
f 197/854/432 574/853/432 573/851/431 198/852/431
f 196/856/433 575/855/433 574/853/432 197/854/432
f 195/858/434 576/857/434 575/855/433 196/856/433
f 194/860/435 577/859/435 576/857/434 195/858/434
f 193/862/436 578/861/436 577/859/435 194/860/435
f 192/864/437 579/863/437 578/861/436 193/862/436
f 191/866/438 580/865/438 579/863/437 192/864/437
f 190/868/439 581/867/439 580/865/438 191/866/438
f 189/870/440 582/869/440 581/867/439 190/868/439
f 188/872/441 583/871/441 582/869/440 189/870/440
f 187/874/442 584/873/442 583/871/441 188/872/441
f 186/876/443 585/875/443 584/873/442 187/874/442
f 185/878/444 586/877/444 585/875/443 186/876/443
f 184/880/445 587/879/445 586/877/444 185/878/444
f 183/882/446 588/881/446 587/879/445 184/880/445
f 182/884/448 589/883/448 588/881/447 183/882/447
f 181/886/449 590/885/449 589/883/448 182/884/448
f 180/888/450 591/887/450 590/885/449 181/886/449
f 179/890/451 592/889/451 591/887/450 180/888/450
f 178/892/452 593/891/452 592/889/451 179/890/451
f 177/894/453 594/893/453 593/891/452 178/892/452
f 176/896/454 595/895/454 594/893/453 177/894/453
f 175/898/455 596/897/455 595/895/454 176/896/454
f 174/900/456 597/899/456 596/897/455 175/898/455
f 173/902/457 598/901/457 597/899/456 174/900/456
f 172/904/458 599/903/458 598/901/457 173/902/457
f 171/906/459 600/905/459 599/903/458 172/904/458
f 170/908/460 601/907/460 600/905/459 171/906/459
f 169/910/461 602/909/461 601/907/460 170/908/460
f 168/912/462 603/911/462 602/909/461 169/910/461
f 167/914/463 604/913/463 603/911/462 168/912/462
f 166/916/464 605/915/464 604/913/463 167/914/463
f 165/918/465 606/917/465 605/915/464 166/916/464
f 164/920/466 607/919/466 606/917/465 165/918/465
f 163/922/467 608/921/467 607/919/466 164/920/466
f 162/924/468 609/923/468 608/921/467 163/922/467
f 161/926/469 610/925/469 609/923/468 162/924/468
f 160/928/470 611/927/470 610/925/469 161/926/469
f 159/930/471 612/929/471 611/927/470 160/928/470
f 158/932/472 613/931/472 612/929/471 159/930/471
f 157/933/473 614/3/473 613/931/472 158/932/472
f 156/934/474 615/2/474 614/3/473 157/933/473
f 155/935/475 616/1/475 615/2/474 156/934/474
f 308/631/319 463/632/319 616/1/476 155/935/476
f 310/6/2 333/7/2 332/371/2
f 332/371/2 312/331/2 311/329/2
f 332/371/2 313/333/2 312/331/2
f 332/371/2 314/335/2 313/333/2
f 332/371/2 315/337/2 314/335/2
f 316/339/2 315/337/2 332/371/2
f 331/369/2 317/341/2 316/339/2
f 331/369/2 318/343/2 317/341/2
f 331/369/2 319/345/2 318/343/2
f 319/345/2 331/369/2 330/367/2
f 322/351/2 321/349/2 320/347/2
f 324/355/2 323/353/2 322/351/2
f 326/359/2 325/357/2 324/355/2
f 328/363/2 327/361/2 326/359/2
f 330/367/2 329/365/2 328/363/2
f 462/630/2 334/374/2 333/7/2
f 335/376/2 334/374/2 462/630/2
f 336/378/2 335/376/2 462/630/2
f 462/630/2 434/574/2 337/380/2
f 338/382/2 337/380/2 434/574/2
f 338/382/2 401/508/2 372/450/2
f 372/450/2 340/386/2 339/384/2
f 372/450/2 341/388/2 340/386/2
f 372/450/2 342/390/2 341/388/2
f 372/450/2 343/392/2 342/390/2
f 344/394/2 343/392/2 372/450/2
f 344/394/2 363/432/2 362/430/2
f 345/396/2 358/422/2 357/420/2
f 347/400/2 346/398/2 357/420/2
f 349/404/2 348/402/2 347/400/2
f 351/408/2 350/406/2 349/404/2
f 353/412/2 352/410/2 351/408/2
f 353/412/2 347/400/2 355/416/2
f 357/420/2 356/418/2 355/416/2
f 360/426/2 359/424/2 358/422/2
f 362/430/2 361/428/2 360/426/2
f 365/436/2 364/434/2 363/432/2
f 367/440/2 366/438/2 365/436/2
f 369/444/2 368/442/2 367/440/2
f 370/446/2 369/444/2 372/450/2
f 372/450/2 394/494/2 392/490/2
f 375/456/2 374/454/2 373/452/2
f 376/458/2 375/456/2 378/462/2
f 380/466/2 379/464/2 378/462/2
f 382/470/2 381/468/2 380/466/2
f 382/470/2 375/456/2 384/474/2
f 386/478/2 385/476/2 384/474/2
f 388/482/2 387/480/2 386/478/2
f 390/486/2 389/484/2 388/482/2
f 392/490/2 391/488/2 390/486/2
f 394/494/2 393/492/2 392/490/2
f 396/498/2 395/496/2 394/494/2
f 398/502/2 397/500/2 396/498/2
f 400/506/2 399/504/2 398/502/2
f 401/508/2 400/506/2 372/450/2
f 403/512/2 402/510/2 401/508/2
f 405/516/2 404/514/2 403/512/2
f 434/574/2 406/518/2 405/516/2
f 434/574/2 407/520/2 406/518/2
f 434/574/2 408/522/2 407/520/2
f 434/574/2 409/524/2 408/522/2
f 434/574/2 410/526/2 409/524/2
f 434/574/2 411/528/2 410/526/2
f 434/574/2 412/530/2 411/528/2
f 434/574/2 413/532/2 412/530/2
f 434/574/2 414/534/2 413/532/2
f 434/574/2 415/536/2 414/534/2
f 434/574/2 416/538/2 415/536/2
f 434/574/2 417/540/2 416/538/2
f 434/574/2 418/542/2 417/540/2
f 434/574/2 419/544/2 418/542/2
f 434/574/2 420/546/2 419/544/2
f 421/548/2 420/546/2 434/574/2
f 423/552/2 422/550/2 434/574/2
f 425/556/2 424/554/2 434/574/2
f 427/560/2 426/558/2 434/574/2
f 429/564/2 428/562/2 434/574/2
f 431/568/2 430/566/2 434/574/2
f 434/574/2 433/572/2 432/570/2
f 435/576/2 434/574/2 462/630/2
f 437/580/2 436/578/2 435/576/2
f 439/584/2 438/582/2 437/580/2
f 441/588/2 440/586/2 439/584/2
f 441/588/2 444/594/2 443/592/2
f 444/594/2 452/610/2 446/598/2
f 448/602/2 447/600/2 446/598/2
f 450/606/2 449/604/2 448/602/2
f 452/610/2 451/608/2 450/606/2
f 454/614/2 453/612/2 452/610/2
f 456/618/2 455/616/2 454/614/2
f 458/622/2 457/620/2 456/618/2
f 460/626/2 459/624/2 458/622/2
f 462/630/2 461/628/2 460/626/2
f 450/606/2 448/602/2 446/598/2
f 462/630/2 460/626/2 441/588/2
f 320/347/2 330/367/2 328/363/2
f 373/452/2 386/478/2 384/474/2
f 349/404/2 347/400/2 353/412/2
f 452/610/2 444/594/2 441/588/2
f 324/355/2 322/351/2 328/363/2
f 375/456/2 382/470/2 380/466/2
f 373/452/2 390/486/2 388/482/2
f 456/618/2 454/614/2 441/588/2
f 345/396/2 362/430/2 360/426/2
f 344/394/2 367/440/2 365/436/2
f 372/450/2 398/502/2 396/498/2
f 434/574/2 405/516/2 403/512/2
f 434/574/2 403/512/2 401/508/2
f 369/444/2 367/440/2 344/394/2
f 392/490/2 390/486/2 373/452/2
f 400/506/2 398/502/2 372/450/2
f 437/580/2 435/576/2 462/630/2
f 439/584/2 437/580/2 462/630/2
f 441/588/2 460/626/2 458/622/2
f 311/329/2 310/6/2 332/371/2
f 331/369/2 316/339/2 332/371/2
f 320/347/2 319/345/2 330/367/2
f 309/5/2 462/630/2 333/7/2
f 336/378/2 462/630/2 337/380/2
f 401/508/2 338/382/2 434/574/2
f 339/384/2 338/382/2 372/450/2
f 369/444/2 344/394/2 372/450/2
f 345/396/2 344/394/2 362/430/2
f 346/398/2 345/396/2 357/420/2
f 355/416/2 347/400/2 357/420/2
f 354/414/2 353/412/2 355/416/2
f 371/448/2 370/446/2 372/450/2
f 373/452/2 372/450/2 392/490/2
f 377/460/2 376/458/2 378/462/2
f 383/472/2 382/470/2 384/474/2
f 422/550/2 421/548/2 434/574/2
f 424/554/2 423/552/2 434/574/2
f 426/558/2 425/556/2 434/574/2
f 428/562/2 427/560/2 434/574/2
f 430/566/2 429/564/2 434/574/2
f 432/570/2 431/568/2 434/574/2
f 442/590/2 441/588/2 443/592/2
f 445/596/2 444/594/2 446/598/2
f 452/610/2 450/606/2 446/598/2
f 439/584/2 462/630/2 441/588/2
f 322/351/2 320/347/2 328/363/2
f 375/456/2 373/452/2 384/474/2
f 351/408/2 349/404/2 353/412/2
f 454/614/2 452/610/2 441/588/2
f 326/359/2 324/355/2 328/363/2
f 378/462/2 375/456/2 380/466/2
f 386/478/2 373/452/2 388/482/2
f 458/622/2 456/618/2 441/588/2
f 358/422/2 345/396/2 360/426/2
f 363/432/2 344/394/2 365/436/2
f 394/494/2 372/450/2 396/498/2
f 612/929/1 613/931/1 614/3/1
f 610/925/1 611/927/1 612/929/1
f 608/921/1 609/923/1 610/925/1
f 606/917/1 607/919/1 608/921/1
f 604/913/1 605/915/1 606/917/1
f 602/909/1 603/911/1 604/913/1
f 600/905/1 601/907/1 602/909/1
f 600/905/1 606/917/1 598/901/1
f 597/899/1 598/901/1 595/895/1
f 593/891/1 594/893/1 595/895/1
f 591/887/1 592/889/1 593/891/1
f 589/883/1 590/885/1 591/887/1
f 616/1/1 588/881/1 589/883/1
f 586/877/1 587/879/1 588/881/1
f 588/881/1 584/873/1 585/875/1
f 588/881/1 582/869/1 583/871/1
f 588/881/1 580/865/1 581/867/1
f 588/881/1 578/861/1 579/863/1
f 588/881/1 576/857/1 577/859/1
f 588/881/1 574/853/1 575/855/1
f 573/851/1 574/853/1 588/881/1
f 572/849/1 573/851/1 588/881/1
f 571/847/1 572/849/1 588/881/1
f 570/845/1 571/847/1 588/881/1
f 569/843/1 570/845/1 588/881/1
f 568/841/1 569/843/1 588/881/1
f 567/839/1 568/841/1 588/881/1
f 566/837/1 567/839/1 588/881/1
f 565/835/1 566/837/1 588/881/1
f 564/833/1 565/835/1 588/881/1
f 563/831/1 564/833/1 588/881/1
f 562/829/1 563/831/1 588/881/1
f 561/827/1 562/829/1 588/881/1
f 560/825/1 561/827/1 588/881/1
f 559/823/1 560/825/1 588/881/1
f 557/819/1 558/821/1 559/823/1
f 555/815/1 556/817/1 557/819/1
f 526/757/1 554/813/1 555/815/1
f 552/809/1 553/811/1 554/813/1
f 550/805/1 551/807/1 552/809/1
f 548/801/1 549/803/1 550/805/1
f 546/797/1 547/799/1 548/801/1
f 544/793/1 545/795/1 546/797/1
f 542/789/1 543/791/1 544/793/1
f 540/785/1 541/787/1 542/789/1
f 538/781/1 539/783/1 540/785/1
f 538/781/1 529/763/1 536/777/1
f 534/773/1 535/775/1 536/777/1
f 532/769/1 533/771/1 534/773/1
f 532/769/1 529/763/1 530/765/1
f 527/759/1 528/761/1 529/763/1
f 546/797/1 548/801/1 526/757/1
f 526/757/1 523/751/1 524/753/1
f 521/747/1 522/749/1 523/751/1
f 519/743/1 520/745/1 521/747/1
f 517/739/1 518/741/1 519/743/1
f 516/737/1 517/739/1 498/701/1
f 514/733/1 515/735/1 516/737/1
f 512/729/1 513/731/1 514/733/1
f 511/727/1 512/729/1 499/703/1
f 509/723/1 510/725/1 511/727/1
f 507/719/1 508/721/1 509/723/1
f 505/715/1 506/717/1 507/719/1
f 503/711/1 504/713/1 505/715/1
f 501/707/1 502/709/1 503/711/1
f 499/703/1 500/705/1 501/707/1
f 526/757/1 497/699/1 498/701/1
f 496/697/1 497/699/1 526/757/1
f 495/695/1 496/697/1 526/757/1
f 494/693/1 495/695/1 526/757/1
f 493/691/1 494/693/1 526/757/1
f 526/757/1 555/815/1 492/689/1
f 588/881/1 491/687/1 492/689/1
f 491/687/1 588/881/1 616/1/1
f 616/1/1 489/683/1 490/685/1
f 616/1/1 488/681/1 489/683/1
f 487/679/1 488/681/1 616/1/1
f 486/677/1 487/679/1 464/633/1
f 486/677/1 469/643/1 470/645/1
f 484/673/1 485/675/1 473/651/1
f 482/669/1 483/671/1 484/673/1
f 480/665/1 481/667/1 482/669/1
f 478/661/1 479/663/1 480/665/1
f 476/657/1 477/659/1 478/661/1
f 474/653/1 475/655/1 476/657/1
f 472/649/1 473/651/1 485/675/1
f 471/647/1 472/649/1 485/675/1
f 470/645/1 471/647/1 485/675/1
f 468/641/1 469/643/1 486/677/1
f 467/639/1 468/641/1 486/677/1
f 466/637/1 467/639/1 486/677/1
f 465/635/1 466/637/1 486/677/1
f 463/632/1 464/633/1 487/679/1
f 600/905/1 602/909/1 604/913/1
f 595/895/1 614/3/1 616/1/1
f 482/669/1 484/673/1 474/653/1
f 509/723/1 499/703/1 501/707/1
f 538/781/1 540/785/1 527/759/1
f 507/719/1 501/707/1 503/711/1
f 595/895/1 598/901/1 606/917/1
f 482/669/1 476/657/1 478/661/1
f 534/773/1 536/777/1 529/763/1
f 542/789/1 544/793/1 527/759/1
f 595/895/1 608/921/1 610/925/1
f 514/733/1 516/737/1 499/703/1
f 519/743/1 521/747/1 498/701/1
f 550/805/1 552/809/1 526/757/1
f 557/819/1 559/823/1 588/881/1
f 555/815/1 557/819/1 588/881/1
f 498/701/1 521/747/1 523/751/1
f 527/759/1 544/793/1 546/797/1
f 526/757/1 552/809/1 554/813/1
f 616/1/1 589/883/1 591/887/1
f 616/1/1 591/887/1 593/891/1
f 612/929/1 614/3/1 595/895/1
f 599/903/1 600/905/1 598/901/1
f 596/897/1 597/899/1 595/895/1
f 586/877/1 588/881/1 585/875/1
f 584/873/1 588/881/1 583/871/1
f 582/869/1 588/881/1 581/867/1
f 580/865/1 588/881/1 579/863/1
f 578/861/1 588/881/1 577/859/1
f 576/857/1 588/881/1 575/855/1
f 537/779/1 538/781/1 536/777/1
f 531/767/1 532/769/1 530/765/1
f 527/759/1 546/797/1 526/757/1
f 525/755/1 526/757/1 524/753/1
f 499/703/1 516/737/1 498/701/1
f 509/723/1 511/727/1 499/703/1
f 523/751/1 526/757/1 498/701/1
f 493/691/1 526/757/1 492/689/1
f 555/815/1 588/881/1 492/689/1
f 490/685/1 491/687/1 616/1/1
f 463/632/1 487/679/1 616/1/1
f 465/635/1 486/677/1 464/633/1
f 485/675/1 486/677/1 470/645/1
f 474/653/1 484/673/1 473/651/1
f 606/917/1 600/905/1 604/913/1
f 593/891/1 595/895/1 616/1/1
f 476/657/1 482/669/1 474/653/1
f 507/719/1 509/723/1 501/707/1
f 529/763/1 538/781/1 527/759/1
f 505/715/1 507/719/1 503/711/1
f 608/921/1 595/895/1 606/917/1
f 480/665/1 482/669/1 478/661/1
f 532/769/1 534/773/1 529/763/1
f 540/785/1 542/789/1 527/759/1
f 612/929/1 595/895/1 610/925/1
f 512/729/1 514/733/1 499/703/1
f 517/739/1 519/743/1 498/701/1
f 548/801/1 550/805/1 526/757/1

