# 3ds Max Wavefront OBJ Exporter v0.99 - (c)2007 guruware
# File Created: 13.03.2026 00:44:27

mtllib alocasia.mtl

#
# object Plane001
#

v  -225.3736 352.3312 -0.1502
v  -225.3736 352.3312 7.2965
v  -225.3736 7.7486 7.2965
v  -225.3736 7.7486 -0.1502
v  -243.0143 405.1474 -0.1502
v  -243.0143 405.1474 7.2965
v  -280.7655 464.6214 -0.1502
v  -280.7655 464.6214 7.2965
v  -327.2238 516.4749 0.3471
v  -327.2238 516.4749 6.5277
v  -225.7533 338.2220 -21.4449
v  -243.0143 405.1474 -78.4995
v  -280.7655 464.6214 -78.4995
v  -327.2238 516.4749 -64.6799
v  -243.0143 405.1474 80.8566
v  -225.3736 337.3439 23.7547
v  -280.7655 464.6214 80.8566
v  -327.2238 516.4749 67.5799
v  -385.4628 525.6008 1.9722
v  -385.4628 525.6008 4.0158
v  -385.4628 525.6008 -19.5292
v  -385.4628 525.6008 24.2028
v  -398.1339 525.6008 2.4302
v  -398.1339 525.6008 3.3078
v  -398.1339 525.6008 -6.8033
v  -398.1339 525.6008 11.9769
# 26 vertices

vn 0.9707 0.2227 -0.0906
vn 0.9674 0.2240 0.1185
vn 1.0000 0.0000 -0.0000
vn 0.9031 0.4295 -0.0000
vn 0.7972 0.6037 0.0000
vn 0.7972 0.6037 -0.0000
vn 0.4775 0.8786 0.0000
vn 0.4775 0.8786 -0.0000
vn 0.9812 0.1522 -0.1183
vn 0.8990 0.4380 -0.0000
vn 0.8006 0.5993 0.0000
vn 0.5730 0.8195 0.0000
vn 0.8989 0.4383 -0.0000
vn 0.9807 0.1444 0.1315
vn 0.8004 0.5994 -0.0000
vn 0.5697 0.8218 -0.0000
vn 0.0776 0.9970 -0.0000
vn 0.1148 0.9934 -0.0000
vn 0.1137 0.9935 -0.0000
vn 0.0000 1.0000 -0.0000
# 20 vertex normals

vt 0.4983 0.4796 0.0000
vt 0.4825 0.4799 0.0000
vt 0.4825 0.0005 0.0000
vt 0.4983 0.0002 0.0000
vt 0.4993 0.5816 0.0000
vt 0.4834 0.5819 0.0000
vt 0.5012 0.7253 0.0000
vt 0.4853 0.7256 0.0000
vt 0.5026 0.8725 0.0000
vt 0.4894 0.8727 0.0000
vt 0.5437 0.4598 0.0000
vt 0.6663 0.5785 0.0000
vt 0.6682 0.7222 0.0000
vt 0.6412 0.8699 0.0000
vt 0.3266 0.5848 0.0000
vt 0.4474 0.4597 0.0000
vt 0.3286 0.7285 0.0000
vt 0.3593 0.8752 0.0000
vt 0.5021 0.9793 0.0000
vt 0.4978 0.9794 0.0000
vt 0.5480 0.9785 0.0000
vt 0.4548 0.9802 0.0000
vt 0.5018 0.9998 0.0000
vt 0.5000 0.9998 0.0000
vt 0.5215 0.9994 0.0000
vt 0.4815 1.0002 0.0000
# 26 texture coords

o Plane001
g Plane001
usemtl wire_191148096
s 1
f 1/1/1 2/2/2 3/3/3 4/4/3 
s off
f 2/2/2 1/1/1 5/5/4 6/6/4 
f 6/6/4 5/5/4 7/7/5 8/8/6 
f 8/8/6 7/7/5 9/9/7 10/10/8 
f 5/5/4 1/1/1 11/11/9 12/12/10 
f 7/7/5 5/5/4 12/12/10 13/13/11 
f 9/9/7 7/7/5 13/13/11 14/14/12 
f 2/2/2 6/6/4 15/15/13 16/16/14 
f 6/6/4 8/8/6 17/17/15 15/15/13 
f 8/8/6 10/10/8 18/18/16 17/17/15 
f 10/10/8 9/9/7 19/19/17 20/20/17 
f 9/9/7 14/14/12 21/21/18 19/19/17 
f 18/18/16 10/10/8 20/20/17 22/22/19 
f 20/20/17 19/19/17 23/23/20 24/24/20 
f 19/19/17 21/21/18 25/25/20 23/23/20 
f 22/22/19 20/20/17 24/24/20 26/26/20 
# 16 polygons

