# 3ds Max Wavefront OBJ Exporter v0.99 - (c)2007 guruware
# File Created: 13.03.2026 02:58:59

mtllib dracaena.mtl

#
# object Cylinder001
#

v  12.8596 -0.7489 2.8092
v  9.5815 131.9569 4.5206
v  9.5861 131.9045 21.8418
v  12.8648 -0.8089 22.6442
v  0.8611 -0.7057 -12.3816
v  -0.8964 131.9946 -8.7451
v  -17.5162 -0.6995 -15.8204
v  -16.9447 132.0002 -11.7481
v  -33.6736 -0.7331 -5.8981
v  -31.0544 131.9707 -3.0833
v  -40.0507 -0.7909 12.7425
v  -36.6234 131.9203 13.1950
v  -33.6637 -0.8458 31.3793
v  -31.0458 131.8723 29.4699
v  -17.5011 -0.8722 41.2920
v  -16.9315 131.8493 38.1263
v  0.8745 -0.8576 37.8422
v  -0.8847 131.8620 35.1137
v  10.1125 264.8288 5.8961
v  10.2053 263.7957 24.3576
v  -1.1420 265.5721 -8.1858
v  -18.2921 265.6776 -11.2989
v  -33.3131 265.0962 -1.9868
v  -39.1765 264.0997 15.3935
v  -33.1388 263.1545 32.7094
v  -18.0250 262.7029 41.8587
v  -0.9071 262.9561 38.5603
v  8.0688 397.2651 14.8695
v  8.1557 396.2975 32.1599
v  -2.4718 397.9613 1.6808
v  -18.5341 398.0602 -1.2349
v  -32.6023 397.5156 7.4866
v  -38.0938 396.5823 23.7645
v  -32.4390 395.6971 39.9821
v  -18.2839 395.2740 48.5510
v  -2.2518 395.5112 45.4618
v  9.3405 524.7698 22.2325
v  9.4343 523.7250 40.9022
v  -2.0410 525.5214 7.9917
v  -19.3846 525.6282 4.8434
v  -34.5750 525.0402 14.2607
v  -40.5046 524.0325 31.8370
v  -34.3987 523.0767 49.3483
v  -19.1144 522.6199 58.6008
v  -1.8034 522.8760 55.2652
v  3.1472 -0.7998 18.8878
v  3.1439 -0.7625 6.5714
v  -4.2982 -0.8300 28.3249
v  -15.7084 -0.8391 30.4671
v  -25.7445 -0.8226 24.3119
v  -29.7105 -0.7885 12.7394
v  -25.7507 -0.7527 1.1646
v  -15.7178 -0.7318 -4.9966
v  -4.3065 -0.7357 -2.8613
v  -12.7717 -0.7847 12.7343
v  15.3982 553.8624 21.6402
v  1.1040 554.8063 3.7550
v  -3.0536 554.3568 11.4901
v  7.5269 553.6580 24.7287
v  -20.6781 554.9405 -0.1990
v  -19.1766 554.4560 8.5634
v  -39.7560 554.2020 11.6283
v  -33.2980 553.9093 17.3179
v  -47.2030 552.9363 33.7027
v  -38.8103 552.9725 33.6573
v  -39.5346 551.7360 55.6954
v  -33.1341 552.0840 49.9363
v  -20.3388 551.1622 67.3158
v  -18.9255 551.6594 58.5376
v  1.4024 551.4838 63.1265
v  -2.8327 551.8974 55.4368
v  15.5160 552.5502 45.0878
v  7.6142 552.6866 42.0846
v  -14.8989 553.0755 33.5281
# 74 vertices

vn 0.7315 -0.6268 -0.2684
vn 0.9392 0.0135 -0.3430
vn 0.9402 0.0074 0.3405
vn 0.7316 -0.6285 0.2640
vn 0.3891 -0.6256 -0.6762
vn 0.4998 0.0167 -0.8660
vn -0.1352 -0.6254 -0.7685
vn -0.1729 0.0153 -0.9848
vn -0.5963 -0.6263 -0.5022
vn -0.7652 0.0100 -0.6437
vn -0.7782 -0.6280 -0.0018
vn -1.0000 0.0033 -0.0011
vn -0.5960 -0.6296 0.4985
vn -0.7662 -0.0017 0.6426
vn -0.1348 -0.6303 0.7645
vn -0.1729 -0.0025 0.9849
vn 0.3895 -0.6299 0.6719
vn 0.5013 0.0011 0.8653
vn 0.9362 0.0181 -0.3510
vn 0.9430 -0.0072 0.3328
vn 0.4930 0.0352 -0.8693
vn -0.1783 0.0358 -0.9833
vn -0.7671 0.0196 -0.6412
vn -1.0000 -0.0057 0.0002
vn -0.7651 -0.0282 0.6433
vn -0.1695 -0.0374 0.9848
vn 0.5064 -0.0291 0.8618
vn 0.9379 0.0230 -0.3463
vn 0.9415 -0.0176 0.3366
vn 0.4954 0.0522 -0.8671
vn -0.1789 0.0564 -0.9823
vn -0.7694 0.0335 -0.6378
vn -1.0000 -0.0057 0.0050
vn -0.7626 -0.0428 0.6455
vn -0.1684 -0.0606 0.9839
vn 0.5046 -0.0506 0.8619
vn 0.9314 -0.0972 -0.3508
vn 0.9350 -0.1375 0.3269
vn 0.4922 -0.0682 -0.8678
vn -0.1771 -0.0641 -0.9821
vn -0.7633 -0.0868 -0.6402
vn -0.9921 -0.1256 -0.0022
vn -0.7565 -0.1625 0.6335
vn -0.1667 -0.1802 0.9694
vn 0.5013 -0.1703 0.8483
vn 0.0002 -1.0000 -0.0032
vn 0.7798 0.5714 -0.2559
vn 0.4108 0.5958 -0.6901
vn -0.0040 0.9982 0.0594
vn -0.1514 0.5992 -0.7861
vn -0.6438 0.5802 -0.4990
vn -0.8360 0.5475 0.0370
vn -0.6381 0.5165 0.5710
vn -0.1426 0.5017 0.8532
vn 0.4185 0.5100 0.7515
vn 0.7828 0.5375 0.3135
# 56 vertex normals

vt 0.0001 0.0807 0.0000
vt 0.2199 0.0820 0.0000
vt 0.2198 0.0956 0.0000
vt 0.0000 0.0943 0.0000
vt 0.0003 0.0506 0.0000
vt 0.2200 0.0519 0.0000
vt 0.0004 0.0210 0.0000
vt 0.2202 0.0223 0.0000
vt 0.0005 0.0056 0.0000
vt 0.2203 0.0069 0.0000
vt 0.0006 0.0000 0.0000
vt 0.2203 0.0013 0.0000
vt 0.7276 0.1025 0.0000
vt 0.7275 0.1232 0.0000
vt 0.5366 0.1220 0.0000
vt 0.5368 0.1013 0.0000
vt 0.7273 0.1509 0.0000
vt 0.5365 0.1497 0.0000
vt 0.7272 0.1728 0.0000
vt 0.5363 0.1716 0.0000
vt 0.7271 0.1888 0.0000
vt 0.5362 0.1875 0.0000
vt 0.4392 0.0833 0.0000
vt 0.4392 0.0969 0.0000
vt 0.4394 0.0532 0.0000
vt 0.4396 0.0236 0.0000
vt 0.4397 0.0082 0.0000
vt 0.4397 0.0026 0.0000
vt 0.3454 0.1208 0.0000
vt 0.3455 0.1001 0.0000
vt 0.3452 0.1485 0.0000
vt 0.3451 0.1704 0.0000
vt 0.3450 0.1863 0.0000
vt 0.6546 0.0846 0.0000
vt 0.6545 0.0982 0.0000
vt 0.6547 0.0544 0.0000
vt 0.6549 0.0249 0.0000
vt 0.6550 0.0094 0.0000
vt 0.6550 0.0039 0.0000
vt 0.1572 0.1196 0.0000
vt 0.1573 0.0989 0.0000
vt 0.1570 0.1473 0.0000
vt 0.1569 0.1692 0.0000
vt 0.1568 0.1851 0.0000
vt 0.7846 0.0854 0.0000
vt 0.7845 0.0990 0.0000
vt 0.7848 0.0552 0.0000
vt 0.7849 0.0256 0.0000
vt 0.7850 0.0102 0.0000
vt 0.7851 0.0046 0.0000
vt 0.0434 0.1188 0.0000
vt 0.0435 0.0981 0.0000
vt 0.0432 0.1466 0.0000
vt 0.0431 0.1684 0.0000
vt 0.0430 0.1844 0.0000
vt 0.3205 0.6618 0.0000
vt 0.2966 0.6618 0.0000
vt 0.3011 0.6493 0.0000
vt 0.3160 0.6493 0.0000
vt 0.2782 0.6464 0.0000
vt 0.2897 0.6398 0.0000
vt 0.2741 0.6228 0.0000
vt 0.2871 0.6251 0.0000
vt 0.2860 0.6021 0.0000
vt 0.2946 0.6122 0.0000
vt 0.3085 0.5939 0.0000
vt 0.3085 0.6072 0.0000
vt 0.3310 0.6021 0.0000
vt 0.3225 0.6122 0.0000
vt 0.3430 0.6228 0.0000
vt 0.3299 0.6251 0.0000
vt 0.3389 0.6464 0.0000
vt 0.3274 0.6398 0.0000
vt 0.3085 0.6289 0.0000
vt 0.2543 0.6122 0.0000
vt 0.2590 0.6402 0.0000
vt 0.2485 0.6383 0.0000
vt 0.2449 0.6176 0.0000
vt 0.2447 0.6647 0.0000
vt 0.2379 0.6564 0.0000
vt 0.2180 0.6742 0.0000
vt 0.2181 0.6635 0.0000
vt 0.1914 0.6644 0.0000
vt 0.1984 0.6562 0.0000
vt 0.1774 0.6398 0.0000
vt 0.1880 0.6379 0.0000
vt 0.1825 0.6119 0.0000
vt 0.1918 0.6173 0.0000
vt 0.2043 0.5937 0.0000
vt 0.2079 0.6039 0.0000
vt 0.2326 0.5939 0.0000
vt 0.2289 0.6040 0.0000
vt 0.2183 0.6328 0.0000
vt 0.8337 0.0555 0.0000
vt 0.8335 0.0857 0.0000
vt 0.8339 0.0259 0.0000
vt 0.8340 0.0105 0.0000
vt 0.8340 0.0049 0.0000
vt 0.0004 0.1186 0.0000
vt 0.0006 0.0979 0.0000
vt 0.0002 0.1463 0.0000
vt 0.0001 0.1682 0.0000
vt 0.0000 0.1841 0.0000
vt 0.8335 0.0992 0.0000
# 104 texture coords

o Cylinder001
g Cylinder001
usemtl wire_084166149
s 8
f 1/1/1 2/2/2 3/3/3 4/4/4 
f 1/1/1 5/5/5 6/6/6 2/2/2 
f 5/5/5 7/7/7 8/8/8 6/6/6 
f 7/7/7 9/9/9 10/10/10 8/8/8 
f 9/9/9 11/11/11 12/12/12 10/10/10 
f 11/13/11 13/14/13 14/15/14 12/16/12 
f 13/14/13 15/17/15 16/18/16 14/15/14 
f 15/17/15 17/19/17 18/20/18 16/18/16 
f 17/19/17 4/21/4 3/22/3 18/20/18 
f 2/2/2 19/23/19 20/24/20 3/3/3 
f 2/2/2 6/6/6 21/25/21 19/23/19 
f 6/6/6 8/8/8 22/26/22 21/25/21 
f 8/8/8 10/10/10 23/27/23 22/26/22 
f 10/10/10 12/12/12 24/28/24 23/27/23 
f 12/16/12 14/15/14 25/29/25 24/30/24 
f 14/15/14 16/18/16 26/31/26 25/29/25 
f 16/18/16 18/20/18 27/32/27 26/31/26 
f 18/20/18 3/22/3 20/33/20 27/32/27 
f 19/23/19 28/34/28 29/35/29 20/24/20 
f 19/23/19 21/25/21 30/36/30 28/34/28 
f 21/25/21 22/26/22 31/37/31 30/36/30 
f 22/26/22 23/27/23 32/38/32 31/37/31 
f 23/27/23 24/28/24 33/39/33 32/38/32 
f 24/30/24 25/29/25 34/40/34 33/41/33 
f 25/29/25 26/31/26 35/42/35 34/40/34 
f 26/31/26 27/32/27 36/43/36 35/42/35 
f 27/32/27 20/33/20 29/44/29 36/43/36 
f 28/34/28 37/45/37 38/46/38 29/35/29 
f 28/34/28 30/36/30 39/47/39 37/45/37 
f 30/36/30 31/37/31 40/48/40 39/47/39 
f 31/37/31 32/38/32 41/49/41 40/48/40 
f 32/38/32 33/39/33 42/50/42 41/49/41 
f 33/41/33 34/40/34 43/51/43 42/52/42 
f 34/40/34 35/42/35 44/53/44 43/51/43 
f 35/42/35 36/43/36 45/54/45 44/53/44 
f 36/43/36 29/44/29 38/55/38 45/54/45 
s off
f 1/56/1 4/57/4 46/58/46 47/59/46 
f 4/57/4 17/60/17 48/61/46 46/58/46 
f 17/60/17 15/62/15 49/63/46 48/61/46 
f 15/62/15 13/64/13 50/65/46 49/63/46 
f 13/64/13 11/66/11 51/67/46 50/65/46 
f 11/66/11 9/68/9 52/69/46 51/67/46 
f 9/68/9 7/70/7 53/71/46 52/69/46 
f 7/70/7 5/72/5 54/73/46 53/71/46 
f 5/72/5 1/56/1 47/59/46 54/73/46 
f 47/59/46 46/58/46 55/74/46 
f 46/58/46 48/61/46 55/74/46 
f 48/61/46 49/63/46 55/74/46 
f 49/63/46 50/65/46 55/74/46 
f 50/65/46 51/67/46 55/74/46 
f 51/67/46 52/69/46 55/74/46 
f 52/69/46 53/71/46 55/74/46 
f 53/71/46 54/73/46 55/74/46 
f 54/73/46 47/59/46 55/74/46 
f 56/75/47 57/76/48 58/77/49 59/78/49 
f 57/76/48 60/79/50 61/80/49 58/77/49 
f 60/79/50 62/81/51 63/82/49 61/80/49 
f 62/81/51 64/83/52 65/84/49 63/82/49 
f 64/83/52 66/85/53 67/86/49 65/84/49 
f 66/85/53 68/87/54 69/88/49 67/86/49 
f 68/87/54 70/89/55 71/90/49 69/88/49 
f 70/89/55 72/91/56 73/92/49 71/90/49 
f 72/91/56 56/75/47 59/78/49 73/92/49 
f 59/78/49 58/77/49 74/93/49 
f 58/77/49 61/80/49 74/93/49 
f 61/80/49 63/82/49 74/93/49 
f 63/82/49 65/84/49 74/93/49 
f 65/84/49 67/86/49 74/93/49 
f 67/86/49 69/88/49 74/93/49 
f 69/88/49 71/90/49 74/93/49 
f 71/90/49 73/92/49 74/93/49 
f 73/92/49 59/78/49 74/93/49 
f 37/45/37 39/47/39 57/94/48 56/95/47 
f 39/47/39 40/48/40 60/96/50 57/94/48 
f 40/48/40 41/49/41 62/97/51 60/96/50 
f 41/49/41 42/50/42 64/98/52 62/97/51 
f 42/52/42 43/51/43 66/99/53 64/100/52 
f 43/51/43 44/53/44 68/101/54 66/99/53 
f 44/53/44 45/54/45 70/102/55 68/101/54 
f 45/54/45 38/55/38 72/103/56 70/102/55 
f 38/46/38 37/45/37 56/95/47 72/104/56 
# 63 polygons - 18 triangles

#
# object Plane001
#

v  74.9763 634.4269 4.5389
v  38.8159 635.6073 -29.6111
v  -8.4640 556.1877 23.9948
v  -2.3480 545.4719 49.5058
v  116.7802 640.5663 -38.6244
v  80.6197 641.7466 -72.7744
v  165.2686 587.2342 -97.2108
v  137.8044 590.4261 -112.2600
# 8 vertices

vn -0.3493 0.8360 0.4231
vn -0.3392 0.8446 0.4142
vn -0.6221 0.6573 0.4253
vn -0.5710 0.6905 0.4440
vn 0.1096 0.9940 -0.0036
vn 0.1331 0.9907 -0.0267
vn 0.3104 0.8645 -0.3953
vn 0.3407 0.8198 -0.4602
# 8 vertex normals

vt 0.0881 0.3911 0.0000
vt 0.0000 0.3940 0.0000
vt 0.0071 0.2199 0.0000
vt 0.0459 0.1879 0.0000
vt 0.0950 0.4926 0.0000
vt 0.0068 0.4956 0.0000
vt 0.1011 0.5761 0.0000
vt 0.0462 0.5670 0.0000
# 8 texture coords

o Plane001
g Plane001
usemtl wire_194159220
s 1
f 75/105/57 76/106/58 77/107/59 78/108/60 
s off
f 76/106/58 75/105/57 79/109/61 80/110/62 
f 80/110/62 79/109/61 81/111/63 82/112/64 
# 3 polygons

#
# object Plane002
#

v  15.8954 660.9831 -35.9902
v  -34.8423 661.3951 -36.6788
v  -33.9490 550.8127 35.0075
v  16.7887 550.4006 35.6961
v  15.6259 680.9773 -67.9373
v  -35.1118 681.3894 -68.6259
v  7.3335 705.6761 -157.0694
v  -32.6531 706.0881 -157.7580
v  -3.8366 696.4769 -186.6021
v  -21.7136 696.8890 -187.2907
# 10 vertices

vn 0.0296 0.4318 0.8636
vn 0.0296 0.4312 0.8641
vn 0.0308 0.3200 0.9469
vn 0.0256 0.6265 0.6535
vn 0.0256 0.6262 0.6540
vn 0.0158 0.8704 0.0999
vn 0.0162 0.8668 0.1171
vn 0.0322 0.8461 -0.5186
vn 0.0330 0.8596 -0.4715
# 9 vertex normals

vt 0.8906 0.7221 0.0000
vt 0.8214 0.7248 0.0000
vt 0.8187 0.5453 0.0000
vt 0.8880 0.5426 0.0000
vt 0.8919 0.7703 0.0000
vt 0.8227 0.7730 0.0000
vt 0.8854 0.8712 0.0000
vt 0.8308 0.8736 0.0000
vt 0.8717 0.8861 0.0000
vt 0.8474 0.8877 0.0000
# 10 texture coords

o Plane002
g Plane002
usemtl wire_076141171
s 1
f 83/113/65 84/114/66 85/115/67 86/116/67 
s off
f 84/114/66 83/113/65 87/117/68 88/118/69 
f 88/118/69 87/117/68 89/119/70 90/120/71 
f 90/120/71 89/119/70 91/121/72 92/122/73 
# 4 polygons

#
# object Plane003
#

v  -62.6835 663.2584 13.5198
v  -64.7968 660.8888 56.3070
v  -30.3748 530.0170 53.7782
v  -28.2614 532.3865 10.9910
v  -116.1439 710.0591 13.4936
v  -118.2572 707.6896 56.2807
v  -171.2184 729.3469 15.9719
v  -173.3318 726.9773 51.9346
v  -231.4648 724.2786 24.1848
v  -232.8083 723.3823 43.1401
# 10 vertices

vn 0.8266 0.5863 0.0171
vn 0.8270 0.5857 0.0171
vn 0.9061 0.3967 0.0140
vn 0.6161 0.8457 0.0208
vn 0.6152 0.8464 0.0208
vn 0.3455 0.9988 0.0329
vn 0.3449 0.9990 0.0329
vn 0.1462 1.0423 0.0114
vn 0.1586 1.0411 0.0118
# 9 vertex normals

vt 0.3568 0.3541 0.0000
vt 0.2957 0.3526 0.0000
vt 0.3009 0.1896 0.0000
vt 0.3620 0.1910 0.0000
vt 0.3545 0.4554 0.0000
vt 0.2934 0.4539 0.0000
vt 0.3485 0.5316 0.0000
vt 0.2971 0.5303 0.0000
vt 0.3341 0.5893 0.0000
vt 0.3070 0.5892 0.0000
# 10 texture coords

o Plane003
g Plane003
usemtl wire_076141171
s 1
f 93/123/74 94/124/75 95/125/76 96/126/76 
s off
f 94/124/75 93/123/74 97/127/77 98/128/78 
f 98/128/78 97/127/77 99/129/79 100/130/80 
f 100/130/80 99/129/79 101/131/81 102/132/82 
# 4 polygons

#
# object Plane004
#

v  -52.7948 664.1996 52.2949
v  -37.4298 663.8103 83.5385
v  -7.1917 552.9620 63.8515
v  -22.5567 553.3513 32.6079
v  -71.8509 687.7346 63.0751
v  -56.4859 687.3453 94.3187
v  -128.5524 725.8112 99.9741
v  -116.5314 725.6083 124.6460
v  -148.0085 722.9283 118.5860
v  -142.8643 723.1091 129.7434
# 10 vertices

vn 0.8268 0.2586 -0.4473
vn 0.8270 0.2579 -0.4475
vn 0.8704 0.1297 -0.4749
vn 0.6962 0.4962 -0.3689
vn 0.6965 0.4958 -0.3691
vn 0.2870 0.8524 -0.1383
vn 0.3007 0.8453 -0.1459
vn -0.2536 0.9536 0.1223
vn -0.2106 0.9576 0.0995
# 9 vertex normals

vt 0.6365 0.3945 0.0000
vt 0.5751 0.3949 0.0000
vt 0.5806 0.1921 0.0000
vt 0.6419 0.1917 0.0000
vt 0.6356 0.4490 0.0000
vt 0.5743 0.4493 0.0000
vt 0.6254 0.5627 0.0000
vt 0.5771 0.5633 0.0000
vt 0.6127 0.5790 0.0000
vt 0.5911 0.5798 0.0000
# 10 texture coords

o Plane004
g Plane004
usemtl wire_076141171
s 1
f 103/133/83 104/134/84 105/135/85 106/136/85 
s off
f 104/134/84 103/133/83 107/137/86 108/138/87 
f 108/138/87 107/137/86 109/139/88 110/140/89 
f 110/140/89 109/139/88 111/141/90 112/142/91 
# 4 polygons

#
# object Plane005
#

v  47.5237 600.4399 103.5054
v  61.6719 602.3094 76.7012
v  -6.3338 549.5049 34.7086
v  -20.4820 547.6354 61.5128
v  92.0134 600.0637 126.9445
v  106.1617 601.9332 100.1404
v  127.6039 584.7540 141.3598
v  139.5186 585.9702 118.7883
v  158.3295 554.8175 146.3188
v  164.8587 555.5364 134.5652
# 10 vertices

vn -0.2564 0.9806 -0.0035
vn -0.2570 0.9804 -0.0038
vn -0.4162 0.8921 -0.0979
vn 0.0335 1.0347 0.1537
vn 0.0345 1.0346 0.1542
vn 0.3120 0.9715 0.2771
vn 0.3126 0.9713 0.2773
vn 0.4657 0.8697 0.3669
vn 0.4565 0.8770 0.3628
# 9 vertex normals

vt 0.4972 0.3546 0.0000
vt 0.4361 0.3535 0.0000
vt 0.4402 0.1904 0.0000
vt 0.5014 0.1916 0.0000
vt 0.4955 0.4559 0.0000
vt 0.4344 0.4548 0.0000
vt 0.4900 0.5322 0.0000
vt 0.4386 0.5312 0.0000
vt 0.4760 0.5900 0.0000
vt 0.4489 0.5901 0.0000
# 10 texture coords

o Plane005
g Plane005
usemtl wire_076141171
s 1
f 113/143/92 114/144/93 115/145/94 116/146/94 
s off
f 114/144/93 113/143/92 117/147/95 118/148/96 
f 118/148/96 117/147/95 119/149/97 120/150/98 
f 120/150/98 119/149/97 121/151/99 122/152/100 
# 4 polygons

#
# object Plane006
#

v  -40.5740 708.2019 -15.6417
v  -68.4431 704.8461 20.8548
v  -13.0069 534.2197 60.0218
v  14.8622 537.5754 23.5252
v  -92.8610 761.4374 -56.2180
v  -120.7301 758.0815 -19.7215
v  -142.4914 777.1473 -91.4415
v  -166.1104 773.7516 -60.9198
v  -194.9658 758.9512 -121.1894
v  -207.6699 757.5953 -105.2991
# 10 vertices

vn 0.4842 0.8255 0.4001
vn 0.4845 0.8249 0.4004
vn 0.5623 0.6446 0.4571
vn 0.3086 1.0476 0.2675
vn 0.3079 1.0482 0.2670
vn 0.0996 1.1424 0.1196
vn 0.0991 1.1425 0.1192
vn -0.0287 1.1390 -0.0079
vn -0.0204 1.1408 -0.0009
# 9 vertex normals

vt 0.2847 0.3588 0.0000
vt 0.2259 0.3589 0.0000
vt 0.2195 0.1896 0.0000
vt 0.2783 0.1894 0.0000
vt 0.2895 0.4640 0.0000
vt 0.2306 0.4641 0.0000
vt 0.2891 0.5432 0.0000
vt 0.2396 0.5433 0.0000
vt 0.2792 0.6035 0.0000
vt 0.2532 0.6042 0.0000
# 10 texture coords

o Plane006
g Plane006
usemtl wire_076141171
s 1
f 123/153/101 124/154/102 125/155/103 126/156/103 
s off
f 124/154/102 123/153/101 127/157/104 128/158/105 
f 128/158/105 127/157/104 129/159/106 130/160/107 
f 130/160/107 129/159/106 131/161/108 132/162/109 
# 4 polygons

#
# object Plane007
#

v  -46.6093 712.3649 84.1216
v  -8.8877 709.3840 99.6429
v  11.9729 557.8204 43.0734
v  -25.7487 560.8013 27.5521
v  -70.2654 781.4475 138.3130
v  -32.5438 778.4667 153.8343
v  -88.2151 801.3812 188.9943
v  -56.5971 798.3649 202.2426
v  -101.6752 823.5901 240.8570
v  -85.1204 822.3857 248.1041
# 10 vertices

vn 0.2738 0.7702 -0.6034
vn 0.2741 0.7689 -0.6041
vn 0.2960 0.6446 -0.6614
vn 0.2057 0.9941 -0.4333
vn 0.2055 0.9945 -0.4329
vn 0.1726 1.0727 -0.3228
vn 0.1717 1.0739 -0.3208
vn 0.1683 1.0670 -0.3371
vn 0.1699 1.0648 -0.3406
# 9 vertex normals

vt 0.6620 0.7461 0.0000
vt 0.6115 0.7421 0.0000
vt 0.6179 0.5809 0.0000
vt 0.6684 0.5849 0.0000
vt 0.6599 0.8531 0.0000
vt 0.6095 0.8491 0.0000
vt 0.6534 0.9225 0.0000
vt 0.6110 0.9191 0.0000
vt 0.6412 0.9925 0.0000
vt 0.6188 0.9912 0.0000
# 10 texture coords

o Plane007
g Plane007
usemtl wire_076141171
s 1
f 133/163/110 134/164/111 135/165/112 136/166/112 
s off
f 134/164/111 133/163/110 137/167/113 138/168/114 
f 138/168/114 137/167/113 139/169/115 140/170/116 
f 140/170/116 139/169/115 141/171/117 142/172/118 
# 4 polygons

#
# object Plane008
#

v  -28.1092 629.5598 153.8662
v  5.5210 625.5341 156.7450
v  13.3953 555.7225 44.8424
v  -20.2349 559.7482 41.9635
v  -37.1718 631.9776 226.1529
v  -3.5416 627.9518 229.0318
v  -41.4472 628.3018 272.2405
v  -13.1992 624.4646 274.5714
v  -41.9080 634.8922 319.4523
v  -27.0602 633.0018 321.0552
# 10 vertices

vn 0.0882 1.0441 -0.0161
vn 0.0881 1.0443 -0.0155
vn 0.1040 0.9565 -0.1965
vn 0.0647 1.0912 0.1973
vn 0.0644 1.0914 0.1998
vn 0.0801 1.0865 0.1646
vn 0.0794 1.0872 0.1705
vn 0.0846 1.0746 0.0920
vn 0.0848 1.0742 0.0901
# 9 vertex normals

vt 0.1164 0.7556 0.0000
vt 0.0664 0.7534 0.0000
vt 0.0679 0.5907 0.0000
vt 0.1179 0.5929 0.0000
vt 0.1160 0.8629 0.0000
vt 0.0660 0.8606 0.0000
vt 0.1129 0.9312 0.0000
vt 0.0708 0.9292 0.0000
vt 0.1052 1.0000 0.0000
vt 0.0831 0.9995 0.0000
# 10 texture coords

o Plane008
g Plane008
usemtl wire_076141171
s 1
f 143/173/119 144/174/120 145/175/121 146/176/121 
s off
f 144/174/120 143/173/119 147/177/122 148/178/123 
f 148/178/123 147/177/122 149/179/124 150/180/125 
f 150/180/125 149/179/124 151/181/126 152/182/127 
# 4 polygons

#
# object Plane009
#

v  47.8542 688.2769 -32.7234
v  17.2269 705.2323 -2.8163
v  -35.5226 538.9395 40.3348
v  -16.9940 521.9840 10.4278
v  45.9248 758.0994 -81.0501
v  15.2976 775.0549 -51.1431
v  22.8635 796.6440 -125.0179
v  -3.3437 810.5323 -100.0928
v  -23.5225 810.0603 -165.4893
v  -37.2422 817.8616 -152.5801
# 10 vertices

vn 0.7940 0.4169 0.5212
vn 0.7983 0.4368 0.5125
vn 0.8604 0.2079 0.4480
vn 0.8436 0.1622 0.4619
vn 0.8125 0.6867 0.3641
vn 0.8124 0.6875 0.3635
vn 0.7322 0.8721 0.1805
vn 0.7320 0.8724 0.1800
vn 0.6534 0.9330 0.0295
vn 0.6597 0.9302 0.0381
# 10 vertex normals

vt 0.8900 0.2434 0.0000
vt 0.8313 0.2422 0.0000
vt 0.8390 0.0705 0.0000
vt 0.8878 0.0753 0.0000
vt 0.8922 0.3484 0.0000
vt 0.8334 0.3471 0.0000
vt 0.8898 0.4276 0.0000
vt 0.8404 0.4265 0.0000
vt 0.8785 0.4879 0.0000
vt 0.8525 0.4879 0.0000
# 10 texture coords

o Plane009
g Plane009
usemtl wire_076141171
s 1
f 153/183/128 154/184/129 155/185/130 156/186/131 
s off
f 154/184/129 153/183/128 157/187/132 158/188/133 
f 158/188/133 157/187/132 159/189/134 160/190/135 
f 160/190/135 159/189/134 161/191/136 162/192/137 
# 4 polygons

#
# object Plane010
#

v  -132.3700 686.3407 42.4366
v  -115.3445 683.6818 95.3058
v  -10.7258 547.6725 58.8793
v  -27.7513 550.3313 6.0100
v  -215.8919 712.8954 70.6990
v  -198.8665 710.2366 123.5682
v  -285.9642 706.2033 98.5427
v  -271.8339 703.3420 143.0568
v  -346.7958 668.1778 131.8113
v  -339.7849 666.9626 155.4182
# 10 vertices

vn 0.4810 0.8759 -0.1697
vn 0.4815 0.8755 -0.1699
vn 0.6235 0.7361 -0.2191
vn 0.1986 1.0250 -0.0717
vn 0.1975 1.0253 -0.0713
vn -0.0903 1.0527 0.0406
vn -0.0909 1.0526 0.0408
vn -0.2854 1.0094 0.0865
vn -0.2743 1.0135 0.0829
# 9 vertex normals

vt 0.9549 0.5746 0.0000
vt 0.8938 0.5751 0.0000
vt 0.8938 0.4120 0.0000
vt 0.9549 0.4115 0.0000
vt 0.9558 0.6760 0.0000
vt 0.8947 0.6764 0.0000
vt 0.9522 0.7523 0.0000
vt 0.9008 0.7527 0.0000
vt 0.9397 0.8105 0.0000
vt 0.9126 0.8112 0.0000
# 10 texture coords

o Plane010
g Plane010
usemtl wire_076141171
s 1
f 163/193/138 164/194/139 165/195/140 166/196/140 
s off
f 164/194/139 163/193/138 167/197/141 168/198/142 
f 168/198/142 167/197/141 169/199/143 170/200/144 
f 170/200/144 169/199/143 171/201/145 172/202/146 
# 4 polygons

#
# object Plane011
#

v  -78.6544 624.2778 98.2188
v  -50.7339 619.9902 118.5771
v  -10.6492 541.8861 41.8815
v  -38.5696 546.1738 21.5232
v  -94.9015 633.8873 124.2367
v  -66.9811 629.5997 144.5950
v  -134.2369 633.2753 191.1604
v  -112.3074 629.9367 207.3221
v  -141.5748 617.3665 211.8079
v  -131.9655 615.9798 219.3393
# 10 vertices

vn 0.4444 0.6852 -0.5325
vn 0.4447 0.6848 -0.5331
vn 0.4961 0.5992 -0.6284
vn 0.3190 0.8157 -0.3160
vn 0.3193 0.8156 -0.3164
vn 0.0012 0.8932 0.1744
vn 0.0108 0.8947 0.1603
vn -0.3614 0.6893 0.6188
vn -0.3360 0.7167 0.5872
# 9 vertex normals

vt 0.7035 0.3949 0.0000
vt 0.6422 0.3953 0.0000
vt 0.6475 0.1925 0.0000
vt 0.7088 0.1922 0.0000
vt 0.7027 0.4494 0.0000
vt 0.6414 0.4498 0.0000
vt 0.6926 0.5632 0.0000
vt 0.6443 0.5637 0.0000
vt 0.6799 0.5794 0.0000
vt 0.6583 0.5803 0.0000
# 10 texture coords

o Plane011
g Plane011
usemtl wire_076141171
s 1
f 173/203/147 174/204/148 175/205/149 176/206/149 
s off
f 174/204/148 173/203/147 177/207/150 178/208/151 
f 178/208/151 177/207/150 179/209/152 180/210/153 
f 180/210/153 179/209/152 181/211/154 182/212/155 
# 4 polygons

#
# object Plane012
#

v  -101.9282 653.6357 67.4827
v  -71.6893 651.5615 102.3722
v  -3.9454 537.8779 41.1953
v  -30.9280 539.9521 10.0004
v  -156.5040 676.2170 116.1582
v  -126.2651 674.1428 151.0477
v  -201.0245 671.1010 160.3177
v  -175.7225 668.8381 189.7637
v  -236.7983 639.9219 205.7901
v  -223.7483 638.9753 221.5615
# 10 vertices

vn 0.3774 0.8738 -0.3494
vn 0.3792 0.8719 -0.3510
vn 0.4923 0.7313 -0.4484
vn 0.4919 0.7320 -0.4480
vn 0.1580 1.0235 -0.1507
vn 0.1572 1.0238 -0.1500
vn -0.0636 1.0534 0.0656
vn -0.0641 1.0533 0.0661
vn -0.2253 1.0114 0.1847
vn -0.2164 1.0154 0.1770
# 10 vertex normals

vt 0.7721 0.4907 0.0000
vt 0.7110 0.4917 0.0000
vt 0.7096 0.3287 0.0000
vt 0.7641 0.3279 0.0000
vt 0.7738 0.5920 0.0000
vt 0.7127 0.5929 0.0000
vt 0.7709 0.6682 0.0000
vt 0.7195 0.6690 0.0000
vt 0.7588 0.7265 0.0000
vt 0.7318 0.7275 0.0000
# 10 texture coords

o Plane012
g Plane012
usemtl wire_076141171
s 1
f 183/213/156 184/214/157 185/215/158 186/216/159 
s off
f 184/214/157 183/213/156 187/217/160 188/218/161 
f 188/218/161 187/217/160 189/219/162 190/220/163 
f 190/220/163 189/219/162 191/221/164 192/222/165 
# 4 polygons

#
# object Plane013
#

v  -2.3241 637.6869 -61.3970
v  -45.4599 639.5718 -44.9132
v  -32.1924 543.5327 48.1677
v  5.3194 541.6478 31.6839
v  -27.4041 661.4779 -129.6811
v  -70.5399 663.3628 -113.1973
v  -54.0528 657.7744 -186.5533
v  -90.4280 658.8453 -172.8393
v  -87.1431 664.4038 -235.2645
v  -106.4324 665.2199 -228.3945
# 10 vertices

vn 0.2649 0.8818 0.4342
vn 0.2671 0.8766 0.4409
vn 0.3350 0.7646 0.5487
vn 0.3373 0.7575 0.5551
vn 0.1752 1.0151 0.1845
vn 0.1749 1.0155 0.1835
vn 0.1374 1.0352 0.1182
vn 0.1371 1.0353 0.1173
vn 0.1690 1.0183 0.1760
vn 0.1705 1.0169 0.1805
# 10 vertex normals

vt 0.1524 0.3455 0.0000
vt 0.0926 0.3477 0.0000
vt 0.0682 0.1881 0.0000
vt 0.1214 0.1884 0.0000
vt 0.1566 0.4441 0.0000
vt 0.0968 0.4464 0.0000
vt 0.1556 0.5161 0.0000
vt 0.1052 0.5179 0.0000
vt 0.1416 0.5876 0.0000
vt 0.1151 0.5892 0.0000
# 10 texture coords

o Plane013
g Plane013
usemtl wire_076141171
s 1
f 193/223/166 194/224/167 195/225/168 196/226/169 
s off
f 194/224/167 193/223/166 197/227/170 198/228/171 
f 198/228/171 197/227/170 199/229/172 200/230/173 
f 200/230/173 199/229/172 201/231/174 202/232/175 
# 4 polygons

#
# object Plane014
#

v  63.7277 636.0200 63.1372
v  61.7564 632.7474 22.3066
v  -15.8419 541.3837 22.7105
v  -13.8706 544.6563 63.5412
v  119.0775 642.5408 64.4180
v  117.1062 639.2681 23.5873
v  163.8690 624.2385 63.0019
v  162.2798 620.9467 28.6835
v  201.6223 581.5934 55.8907
v  201.0857 580.0176 37.8093
# 10 vertices

vn -0.2789 1.0000 -0.0192
vn -0.2795 0.9996 -0.0192
vn -0.4342 0.8660 -0.0195
vn 0.0054 1.1277 -0.0169
vn 0.0064 1.1279 -0.0169
vn 0.2761 1.1231 -0.0237
vn 0.2767 1.1230 -0.0237
vn 0.4410 1.0550 0.0007
vn 0.4317 1.0607 0.0002
# 9 vertex normals

vt 0.4298 0.3449 0.0000
vt 0.3626 0.3378 0.0000
vt 0.3676 0.1900 0.0000
vt 0.4348 0.1970 0.0000
vt 0.4277 0.4368 0.0000
vt 0.3605 0.4298 0.0000
vt 0.4214 0.5056 0.0000
vt 0.3649 0.4996 0.0000
vt 0.4059 0.5568 0.0000
vt 0.3761 0.5542 0.0000
# 10 texture coords

o Plane014
g Plane014
usemtl wire_076141171
s 1
f 203/233/176 204/234/177 205/235/178 206/236/178 
s off
f 204/234/177 203/233/176 207/237/179 208/238/180 
f 208/238/180 207/237/179 209/239/181 210/240/182 
f 210/240/182 209/239/181 211/241/183 212/242/184 
# 4 polygons

#
# object Plane015
#

v  18.6622 666.3060 122.7901
v  49.2906 664.1917 93.0627
v  -19.5781 527.2152 18.6029
v  -40.7155 532.4478 37.4188
v  67.0163 698.3159 176.1971
v  97.6448 696.2016 146.4696
v  108.2813 697.9914 217.4346
v  134.0895 695.6393 192.5055
v  147.9726 667.6245 247.8021
v  161.8375 666.6973 234.9548
# 10 vertices

vn -0.2596 0.9685 -0.2834
vn -0.2674 0.9585 -0.2919
vn -0.2911 0.8002 -0.4595
vn -0.2787 0.8220 -0.4474
vn -0.0844 1.1174 -0.0931
vn -0.0838 1.1177 -0.0924
vn 0.1074 1.1436 0.0994
vn 0.1078 1.1435 0.0998
vn 0.2088 1.0939 0.2407
vn 0.2023 1.0985 0.2331
# 10 vertex normals

vt 0.4039 0.7296 0.0000
vt 0.3454 0.7266 0.0000
vt 0.3480 0.5578 0.0000
vt 0.3869 0.5590 0.0000
vt 0.4031 0.8345 0.0000
vt 0.3446 0.8315 0.0000
vt 0.3985 0.9133 0.0000
vt 0.3492 0.9108 0.0000
vt 0.3855 0.9728 0.0000
vt 0.3595 0.9721 0.0000
# 10 texture coords

o Plane015
g Plane015
usemtl wire_076141171
s 1
f 213/243/185 214/244/186 215/245/187 216/246/188 
s off
f 214/244/186 213/243/185 217/247/189 218/248/190 
f 218/248/190 217/247/189 219/249/191 220/250/192 
f 220/250/192 219/249/191 221/251/193 222/252/194 
# 4 polygons

#
# object Plane016
#

v  37.7021 656.3801 -8.3992
v  -1.7526 658.1609 -32.4018
v  -30.7288 523.6140 13.8228
v  1.2881 522.1253 35.2523
v  72.3274 698.3198 -62.2498
v  32.8727 700.1006 -86.2524
v  100.9084 711.0778 -116.8271
v  67.8545 712.1242 -137.2898
v  122.7252 697.8378 -177.3941
v  105.4765 698.7307 -188.4225
# 10 vertices

vn -0.3123 0.6911 0.6725
vn -0.3128 0.6900 0.6731
vn -0.4062 0.5070 0.7423
vn -0.4035 0.5155 0.7393
vn -0.1776 0.9188 0.4685
vn -0.1771 0.9194 0.4677
vn -0.0383 1.0344 0.2155
vn -0.0380 1.0346 0.2149
vn 0.0802 1.0484 0.0487
vn 0.0740 1.0489 0.0594
# 10 vertex normals

vt 0.5647 0.3541 0.0000
vt 0.5038 0.3574 0.0000
vt 0.5064 0.1958 0.0000
vt 0.5571 0.1912 0.0000
vt 0.5704 0.4552 0.0000
vt 0.5094 0.4585 0.0000
vt 0.5704 0.5315 0.0000
vt 0.5191 0.5343 0.0000
vt 0.5606 0.5901 0.0000
vt 0.5336 0.5921 0.0000
# 10 texture coords

o Plane016
g Plane016
usemtl wire_076141171
s 1
f 223/253/195 224/254/196 225/255/197 226/256/198 
s off
f 224/254/196 223/253/195 227/257/199 228/258/200 
f 228/258/200 227/257/199 229/259/201 230/260/202 
f 230/260/202 229/259/201 231/261/203 232/262/204 
# 4 polygons

#
# object Plane017
#

v  -68.6569 616.6511 -55.9925
v  -98.2472 615.9485 -37.6536
v  -44.5765 548.1135 40.4944
v  -14.9861 548.8160 22.1555
v  -86.2415 622.5838 -82.2381
v  -115.8318 621.8812 -63.8992
v  -133.0006 613.2230 -143.4947
v  -156.3996 612.6931 -129.1610
v  -149.6286 595.5632 -155.5320
v  -160.2952 595.3884 -149.4347
# 10 vertices

vn 0.3376 0.7664 0.4992
vn 0.3379 0.7660 0.4997
vn 0.4044 0.6933 0.5965
vn 0.1886 0.8672 0.2817
vn 0.1889 0.8671 0.2821
vn -0.1409 0.8749 -0.2071
vn -0.1315 0.8785 -0.1931
vn -0.4171 0.5998 -0.6745
vn -0.3970 0.6320 -0.6437
# 9 vertex normals

vt 0.9563 0.2031 0.0000
vt 0.8949 0.2047 0.0000
vt 0.8961 0.0017 0.0000
vt 0.9574 0.0000 0.0000
vt 0.9564 0.2579 0.0000
vt 0.8953 0.2595 0.0000
vt 0.9487 0.3713 0.0000
vt 0.9006 0.3729 0.0000
vt 0.9364 0.3882 0.0000
vt 0.9148 0.3895 0.0000
# 10 texture coords

o Plane017
g Plane017
usemtl wire_076141171
s 1
f 233/263/205 234/264/206 235/265/207 236/266/207 
s off
f 234/264/206 233/263/205 237/267/208 238/268/209 
f 238/268/209 237/267/208 239/269/210 240/270/211 
f 240/270/211 239/269/210 241/271/212 242/272/213 
# 4 polygons

#
# object Plane018
#

v  72.5505 669.1100 65.3502
v  72.5584 673.5690 9.9227
v  -38.9258 537.8403 8.8592
v  -38.9298 535.5851 36.8929
v  160.8576 695.1362 67.4276
v  160.8656 699.5951 12.0000
v  236.0564 688.7341 61.5675
v  236.2544 691.8618 14.8820
v  303.9563 701.3181 43.7758
v  304.5223 703.2552 19.2026
# 10 vertices

vn -0.5014 0.8724 0.1263
vn -0.5020 0.8720 0.1263
vn -0.6567 0.7314 0.1115
vn -0.2054 1.0168 0.1383
vn -0.2044 1.0171 0.1383
vn -0.1559 1.0299 0.1272
vn -0.1576 1.0295 0.1272
vn -0.2537 1.0023 0.1331
vn -0.2575 1.0010 0.1329
# 9 vertex normals

vt 0.4082 0.7383 0.0000
vt 0.4082 0.5956 0.0000
vt 0.5509 0.5956 0.0000
vt 0.5509 0.7383 0.0000
# 4 texture coords

o Plane018
g Plane018
usemtl wire_076141171
s 1
f 243/273/214 244/274/215 245/275/216 246/276/216 
s off
f 244/274/215 243/273/214 247/273/217 248/274/218 
f 248/274/218 247/273/217 249/273/219 250/274/220 
f 250/274/220 249/273/219 251/273/221 252/274/222 
# 4 polygons

#
# object Plane019
#

v  -39.4357 642.3095 -15.5771
v  -66.0992 642.7259 12.6921
v  -29.0485 522.1788 44.6843
v  -2.3850 521.7625 16.4151
v  -59.1168 666.7517 -32.9645
v  -85.7803 667.1681 -4.6954
v  -121.3612 703.8541 -80.4625
v  -142.4644 704.2899 -58.2640
v  -148.2614 698.7536 -93.2592
v  -157.9302 699.2294 -83.5449
# 10 vertices

vn 0.6972 0.3256 0.5986
vn 0.6975 0.3249 0.5989
vn 0.7432 0.2007 0.6383
vn 0.5693 0.5517 0.4884
vn 0.5696 0.5513 0.4886
vn 0.1971 0.8733 0.1634
vn 0.2093 0.8673 0.1740
vn -0.2392 0.9303 -0.2570
vn -0.2030 0.9378 -0.2251
# 9 vertex normals

vt 0.0616 0.7764 0.0000
vt 0.0004 0.7785 0.0000
vt 0.0000 0.5757 0.0000
vt 0.0613 0.5736 0.0000
vt 0.0623 0.8309 0.0000
vt 0.0010 0.8330 0.0000
vt 0.0554 0.9449 0.0000
vt 0.0071 0.9468 0.0000
vt 0.0432 0.9615 0.0000
vt 0.0216 0.9630 0.0000
# 10 texture coords

o Plane019
g Plane019
usemtl wire_076141171
s 1
f 253/277/223 254/278/224 255/279/225 256/280/225 
s off
f 254/278/224 253/277/223 257/281/226 258/282/227 
f 258/282/227 257/281/226 259/283/228 260/284/229 
f 260/284/229 259/283/228 261/285/230 262/286/231 
# 4 polygons

#
# object Plane020
#

v  -12.3085 673.9310 -52.8898
v  -58.3222 674.2177 -30.5858
v  -39.5904 552.3146 52.4912
v  6.4232 552.0280 30.1873
v  -44.9394 712.8544 -120.6474
v  -90.9530 713.1411 -98.3435
v  -79.4606 719.7638 -180.6992
v  -118.3008 719.4730 -162.1853
v  -119.9272 736.6622 -229.4417
v  -140.5485 736.8513 -220.0181
# 10 vertices

vn 0.3314 0.7941 0.5442
vn 0.3346 0.7864 0.5511
vn 0.3774 0.6597 0.6462
vn 0.2280 0.9670 0.3288
vn 0.2276 0.9675 0.3279
vn 0.1859 0.9985 0.2699
vn 0.1855 0.9988 0.2692
vn 0.2212 0.9717 0.3215
vn 0.2231 0.9696 0.3255
# 9 vertex normals

vt 0.8193 0.2816 0.0000
vt 0.7649 0.2866 0.0000
vt 0.7312 0.1075 0.0000
vt 0.7856 0.1025 0.0000
vt 0.8296 0.3854 0.0000
vt 0.7752 0.3904 0.0000
vt 0.8335 0.4640 0.0000
vt 0.7878 0.4682 0.0000
vt 0.8255 0.5406 0.0000
vt 0.8014 0.5434 0.0000
# 10 texture coords

o Plane020
g Plane020
usemtl wire_076141171
s 1
f 263/287/232 264/288/233 265/289/234 266/290/234 
s off
f 264/288/233 263/287/232 267/291/235 268/292/236 
f 268/292/236 267/291/235 269/293/237 270/294/238 
f 270/294/238 269/293/237 271/295/239 272/296/240 
# 4 polygons

#
# object Plane021
#

v  -70.9310 648.7947 113.0155
v  -21.7600 646.2610 126.8210
v  19.1451 540.2264 30.9229
v  -30.0260 542.7601 17.1174
v  -91.6004 673.6295 191.2900
v  -42.4294 671.0958 205.0956
v  -105.8548 667.8242 259.1781
v  -64.5601 665.1194 270.9613
v  -108.0992 672.6189 324.5303
v  -86.4439 671.4648 331.1479
# 10 vertices

vn 0.1188 0.8967 -0.4675
vn 0.1210 0.8904 -0.4761
vn 0.1520 0.7844 -0.5974
vn 0.0530 1.0239 -0.2097
vn 0.0528 1.0242 -0.2087
vn 0.0454 1.0414 -0.1331
vn 0.0451 1.0416 -0.1323
vn 0.0532 1.0267 -0.1990
vn 0.0545 1.0254 -0.2036
# 9 vertex normals

vt 0.2201 0.3493 0.0000
vt 0.1602 0.3492 0.0000
vt 0.1421 0.1888 0.0000
vt 0.2020 0.1889 0.0000
vt 0.2205 0.4481 0.0000
vt 0.1606 0.4479 0.0000
vt 0.2166 0.5199 0.0000
vt 0.1662 0.5197 0.0000
vt 0.1998 0.5908 0.0000
vt 0.1733 0.5913 0.0000
# 10 texture coords

o Plane021
g Plane021
usemtl wire_076141171
s 1
f 273/297/241 274/298/242 275/299/243 276/300/243 
s off
f 274/298/242 273/297/241 277/301/244 278/302/245 
f 278/302/245 277/301/244 279/303/246 280/304/247 
f 280/304/247 279/303/246 281/305/248 282/306/249 
# 4 polygons

