# 3ds Max Wavefront OBJ Exporter v0.99 - (c)2007 guruware
# File Created: 13.03.2026 00:31:10

mtllib podtpalumvaignatum.mtl

#
# object POSPRLUM
#

v  -237.4934 100.0116 -3.9719
v  -237.4934 100.0116 -0.3134
v  -237.4934 -1.2106 -0.3346
v  -237.4934 -1.2106 -4.5347
v  -237.4934 100.0116 3.0188
v  -237.4934 -1.2106 3.5860
v  -242.5516 124.4003 27.1682
v  -242.5516 124.4003 28.9955
v  -244.6242 124.9756 -32.7474
v  -244.6242 124.9756 -30.5700
# 10 vertices

vn 0.9922 0.1249 0.0000
vn 0.9996 0.0292 -0.0000
vn 1.0000 0.0000 -0.0000
vn 0.9958 0.0910 -0.0000
vn 0.9898 0.1425 -0.0000
vn 0.9809 0.1945 -0.0000
# 6 vertex normals

vt 0.5166 0.7995 0.0000
vt 0.4876 0.7995 0.0000
vt 0.4878 0.0000 0.0000
vt 0.5210 0.0000 0.0000
vt 0.4613 0.7995 0.0000
vt 0.4568 0.0000 0.0000
vt 0.2702 0.9945 0.0000
vt 0.2557 0.9945 0.0000
vt 0.7443 1.0000 0.0000
vt 0.7270 1.0000 0.0000
# 10 texture coords

o POSPRLUM
g POSPRLUM
usemtl wire_210187158
s 1
f 1/1/1 2/2/2 3/3/3 4/4/3 
f 2/2/2 5/5/4 6/6/3 3/3/3 
s off
f 5/5/4 2/2/2 7/7/5 8/8/5 
f 2/2/2 1/1/1 9/9/6 10/10/6 
# 4 polygons

