# 3ds Max Wavefront OBJ Exporter v0.99 - (c)2007 guruware
# File Created: 26.05.2026 00:15:05

mtllib jarronbolitaussmoothfix.mtl

#
# object Sphere003
#

v  481.2819 194.5744 -937.1615
v  478.7004 187.7396 -1053.2888
v  411.9206 186.2541 -1031.7828
v  370.6484 185.5755 -975.4802
v  370.6483 185.8075 -905.8860
v  411.9205 187.0555 -849.5834
v  478.7004 189.0670 -828.0777
v  545.4803 190.9937 -847.5882
v  586.7526 191.8893 -907.8815
v  586.7524 191.4259 -975.4802
v  545.4801 189.7563 -1031.7828
v  338.9675 199.3131 -982.8178
v  245.3341 136.7323 -1012.5073
v  245.3342 136.8163 -861.8155
v  338.9675 199.5634 -891.5051
v  623.5964 208.0415 -891.5053
v  717.2297 145.8893 -861.8156
v  717.2297 145.3513 -1012.5077
v  623.5963 207.3972 -982.8178
v  789.2651 54.8943 -838.8024
v  792.4200 9.0196 -1007.1753
v  792.4200 9.0060 -1036.6047
v  789.2651 54.8091 -1035.4868
v  182.6437 -189.4959 -1034.0695
v  167.0567 -154.3836 -1039.5177
v  212.9035 -153.4621 -1103.0134
v  182.6436 -189.4958 -840.2189
v  167.0566 -154.3836 -834.7707
v  167.0567 -154.3837 -906.7255
v  481.2812 -396.2227 -931.8290
v  431.3471 -391.5562 -1005.8849
v  481.2811 -391.5020 -1023.7296
v  400.4855 -391.7221 -962.6190
v  400.4854 -391.7501 -907.5695
v  431.3471 -391.6776 -861.7637
v  481.2812 -391.6183 -845.5864
v  531.2154 -391.6778 -861.7635
v  562.0770 -391.7504 -907.5697
v  562.0768 -391.7225 -962.6191
v  531.2153 -391.5564 -1005.8849
v  315.6530 233.7375 -883.6857
v  315.6530 233.4590 -990.6372
v  646.9109 244.3704 -990.6373
v  646.9111 245.2343 -883.6859
v  706.3987 -294.7703 -1006.1323
v  707.4122 -281.4973 -868.1913
v  603.9822 -350.3704 -898.1215
v  603.9821 -350.3744 -976.8723
v  256.1647 -294.8433 -868.1913
v  256.1646 -294.8440 -1006.1320
v  358.5806 -350.3780 -976.8724
v  358.5806 -350.3743 -898.1215
v  600.9442 -378.8961 -896.8817
v  600.9440 -378.9058 -978.7550
v  361.6186 -378.9058 -978.7550
v  361.6185 -378.8961 -896.8813
v  573.5918 -380.5581 -905.4449
v  573.5917 -380.5548 -968.5634
v  388.9710 -380.5547 -968.5632
v  388.9709 -380.5580 -905.4451
v  424.2315 -380.3875 -1018.5142
v  481.2812 -380.3411 -1039.0281
v  481.2812 -389.7599 -1039.8386
v  423.5843 -389.8064 -1018.9866
v  538.3309 -380.3876 -1018.5142
v  538.9783 -389.8066 -1018.9868
v  574.6382 -390.0027 -905.1330
v  574.6383 -389.9986 -968.7892
v  387.9244 -389.9984 -968.7891
v  387.9244 -390.0024 -905.1332
v  275.6170 232.5437 -1003.5635
v  275.6170 232.7530 -870.7596
v  285.4159 292.0736 -873.5208
v  285.4158 291.7688 -1000.8024
v  686.9469 246.3958 -870.7596
v  686.9468 245.4547 -1003.5636
v  677.1479 308.1884 -1000.8024
v  677.1481 309.4286 -873.5208
v  481.2818 237.0358 -1110.2124
v  378.9177 234.5495 -1077.1626
v  354.1740 233.6500 -1111.0042
v  481.2819 236.2673 -1152.0430
v  378.9177 235.8596 -797.1603
v  354.1741 235.0478 -763.3189
v  481.2819 239.7458 -764.1103
v  481.2818 239.7835 -722.2803
v  583.6462 243.5296 -797.1602
v  608.3898 244.4429 -763.3190
v  583.6459 241.0072 -1077.1626
v  608.3896 241.2348 -1111.0043
v  383.7947 294.3705 -1071.3412
v  481.2820 297.5677 -1103.0168
v  481.2818 296.6421 -1143.1074
v  360.2301 293.2240 -1103.7751
v  578.7690 302.5573 -1071.3413
v  602.3337 302.8728 -1103.7753
v  639.0198 306.7841 -988.4138
v  639.0197 307.8933 -885.9094
v  578.7693 305.7272 -802.9817
v  602.3336 306.9146 -770.5477
v  481.2818 300.9696 -771.3062
v  481.2819 301.0432 -731.2156
v  383.7946 296.0730 -802.9818
v  360.2299 295.0644 -770.5477
v  323.5441 293.3448 -885.9093
v  323.5442 292.9626 -988.4136
v  359.0115 -153.2454 -1218.3735
v  292.7307 -153.2363 -1196.8256
v  294.9780 5.1308 -1189.4354
v  221.2732 -153.2854 -1097.8608
v  176.8554 -154.1315 -1036.3442
v  179.8359 4.7412 -1033.5216
v  176.8553 -154.1088 -907.6909
v  176.8553 -154.1314 -837.9785
v  179.8358 4.7441 -840.8012
v  233.1014 -153.1429 -760.0809
v  279.8353 5.3824 -705.3917
v  197.7084 4.8769 -816.5999
v  412.7675 -153.2334 -638.4734
v  481.2817 -153.5942 -616.1993
v  481.2820 6.9388 -625.3330
v  604.0458 -152.5170 -656.1102
v  669.8329 -152.3547 -677.4977
v  667.5857 8.8391 -684.8871
v  745.0780 -152.3450 -781.7080
v  785.7085 -153.1097 -837.9789
v  782.7281 9.1001 -840.8014
v  785.7081 -153.0929 -967.1085
v  785.7081 -153.1206 -1036.3445
v  782.7277 9.0156 -1033.5220
v  711.3237 -152.2598 -1139.3627
v  669.8326 -152.6339 -1196.8254
v  667.5857 7.6620 -1189.4364
v  542.3593 -153.3547 -1238.2673
v  481.2818 -153.9618 -1258.1239
v  481.2819 5.4311 -1248.9901
v  191.9565 -189.2012 -1031.0658
v  191.9564 -189.2006 -843.2571
v  770.6072 -188.5525 -843.2574
v  770.6069 -188.5672 -1031.0659
v  249.7838 -153.0287 -736.9766
v  292.7307 -153.1660 -677.4977
v  294.9779 5.4435 -684.8870
v  217.6715 -153.3263 -781.4504
v  358.0307 -153.0863 -656.2685
v  386.3754 -153.1422 -647.0536
v  453.4607 6.7142 -634.2264
v  324.3079 5.6680 -675.5114
v  543.9753 -152.9553 -636.5811
v  573.4650 -152.7119 -646.1682
v  644.8298 8.6847 -677.6129
v  506.5719 7.2531 -633.4172
v  712.5350 -152.1025 -736.6378
v  728.5331 -152.1769 -758.7941
v  765.2943 9.1651 -817.1945
v  684.7065 8.9889 -708.0704
v  785.7084 -153.0893 -910.9011
v  795.4966 -153.3583 -938.5293
v  795.4966 -153.3583 -968.0547
v  792.4205 9.0511 -866.7429
v  792.4204 9.0512 -837.6842
v  795.4967 -153.3583 -910.0391
v  785.7083 -153.0889 -938.5034
v  782.7278 9.0407 -1005.0098
v  782.7280 9.0995 -868.9543
v  744.1567 -152.4143 -1093.8907
v  683.5626 7.9978 -1167.8020
v  765.6598 8.9756 -1056.6338
v  728.0133 -152.2905 -1116.2487
v  596.7408 -152.9210 -1220.5879
v  568.2471 -153.1305 -1229.8512
v  515.2983 5.7934 -1238.1165
v  636.8705 7.2809 -1199.2548
v  415.7162 -153.4976 -1236.8083
v  385.9379 -153.3420 -1227.1273
v  323.7009 5.2080 -1198.6174
v  456.5648 5.4062 -1241.0889
v  259.2525 -153.0359 -1150.4600
v  240.2535 -153.1004 -1124.1473
v  202.5393 4.8956 -1064.2644
v  277.3848 5.1566 -1165.6125
v  176.8553 -154.1085 -964.1075
v  170.1330 4.6695 -837.6840
v  170.1330 4.6735 -874.7953
v  167.0567 -154.3837 -939.6655
v  170.1330 4.6728 -999.5563
v  170.1330 4.6686 -1036.6042
v  167.0567 -154.3836 -964.9572
v  176.8553 -154.1067 -939.6040
v  179.8358 4.7512 -876.7556
v  179.8359 4.7494 -997.6284
v  173.2883 48.9369 -838.8021
v  173.2883 48.9352 -1035.4865
v  296.1014 -188.3498 -683.3908
v  286.6598 -153.3279 -669.1271
v  242.3314 -153.1834 -730.5193
v  481.2766 -189.0143 -623.4877
v  481.2766 -153.8709 -605.8567
v  410.5582 -153.4686 -628.8474
v  666.4518 -187.8344 -683.3909
v  675.8936 -152.4977 -669.1271
v  607.9901 -152.6989 -647.0515
v  779.9099 -188.8428 -840.2193
v  795.4968 -153.3583 -834.7710
v  753.5594 -152.5164 -776.6899
v  779.9097 -188.8521 -1034.0697
v  795.4966 -153.3584 -1039.5181
v  666.4517 -188.0088 -1190.8979
v  675.8934 -152.7812 -1205.1619
v  718.7190 -152.3929 -1145.8503
v  481.2767 -189.2410 -1250.8013
v  481.2766 -154.2551 -1268.4321
v  544.3190 -153.6039 -1247.9369
v  296.1016 -188.3942 -1190.8979
v  286.6599 -153.3946 -1205.1620
v  355.0729 -153.4453 -1227.4030
v  296.8674 49.3606 -1186.6001
v  335.4583 137.3878 -1134.4202
v  481.2820 138.9477 -1180.9862
v  481.2820 49.9461 -1245.4844
v  182.8928 48.9859 -1032.4385
v  296.8672 49.7931 -687.7232
v  335.4581 138.2250 -739.9031
v  182.8928 48.9909 -841.8845
v  481.2819 51.9668 -628.8386
v  481.2818 141.4504 -693.3367
v  665.6965 54.3739 -687.7231
v  627.1057 144.6653 -739.9031
v  779.6711 54.9074 -841.8846
v  665.6965 52.7802 -1186.6001
v  627.1055 142.4488 -1134.4199
v  779.6710 54.7722 -1032.4387
v  455.7644 5.2721 -1250.8492
v  318.6262 5.1284 -1207.0112
v  481.2767 49.8078 -1255.3861
v  481.2766 5.2877 -1259.0045
v  270.8200 5.0914 -1172.9447
v  193.5669 4.8271 -1068.3363
v  290.9294 49.2954 -1194.6075
v  288.9793 5.0608 -1197.5344
v  273.3495 5.3038 -697.9183
v  288.9792 5.3616 -676.7541
v  290.9293 49.7132 -679.6815
v  452.5604 6.6374 -624.4637
v  481.2767 6.8667 -615.2842
v  481.2766 51.9237 -618.9026
v  650.0861 8.6808 -669.2459
v  673.5740 8.8383 -676.7541
v  671.6240 54.4045 -679.6814
v  774.4261 9.1319 -813.3180
v  690.0648 7.9904 -1175.2046
v  673.5740 7.6373 -1197.5349
v  671.6239 52.7769 -1194.6075
v  516.3874 5.6614 -1247.7810
v  382.8656 -153.5629 -1236.4386
v  413.6019 -153.7426 -1246.4310
v  225.1122 -153.3092 -754.3669
v  209.1859 -153.5097 -776.4240
v  383.3171 -153.3592 -637.7035
v  354.0605 -153.2843 -647.2148
v  576.4255 -152.9176 -636.7897
v  545.9871 -153.1849 -626.8942
v  736.4821 -152.3277 -753.0388
v  719.9694 -152.2407 -730.1697
v  735.9454 -152.4337 -1121.9927
v  752.6084 -152.5754 -1098.9155
v  571.0396 -153.3577 -1239.2499
v  600.4501 -153.1236 -1229.6887
v  481.2819 202.1319 -1084.9083
v  393.3268 200.1858 -1056.6913
v  393.3267 201.2005 -817.6318
v  481.2819 204.0339 -789.4146
v  569.2369 206.7718 -817.6317
v  569.2369 204.9981 -1056.6912
v  340.4912 -293.5780 -1117.7285
v  481.2816 -293.6097 -1160.3546
v  481.2815 -349.9049 -1065.0629
v  405.4516 -350.0325 -1040.3778
v  622.0718 -293.5330 -1117.7288
v  557.1110 -350.0303 -1040.3778
v  622.7056 -280.3327 -756.5947
v  557.1114 -350.0273 -834.2144
v  481.2815 -293.5894 -713.9686
v  481.2814 -349.8824 -810.2373
v  340.4911 -293.8881 -744.8988
v  405.4516 -350.0297 -834.2144
v  481.2812 -378.6038 -1070.4485
v  407.3278 -378.6375 -1043.9868
v  555.2347 -378.6376 -1043.9869
v  555.2349 -378.6580 -829.6427
v  481.2813 -378.5573 -805.5103
v  407.3279 -378.6580 -829.6426
v  538.3311 -380.4394 -853.2690
v  481.2812 -380.3576 -834.7770
v  424.2316 -380.4394 -853.2690
v  538.9781 -389.8704 -852.3338
v  481.2812 -389.7804 -833.8461
v  423.5842 -389.8702 -852.3336
v  301.8781 -188.2043 -1183.0061
v  481.2817 -188.9220 -1241.0422
v  301.8781 -188.1577 -691.3169
v  481.2817 -188.7044 -633.2809
v  660.6854 -187.6546 -691.3169
v  660.6853 -187.8259 -1183.0062
v  188.5805 4.8024 -812.7043
v  319.2527 5.5840 -667.0769
v  507.3803 7.1935 -623.6285
v  691.2456 8.9903 -700.6833
v  774.8031 8.9799 -1060.4601
v  641.8706 7.2303 -1207.6691
v  232.4944 -153.2580 -1130.1458
v  252.1046 -153.1841 -1157.3048
# 312 vertices

vn -0.0265 0.9996 -0.0040
vn -0.0150 0.8076 0.5896
vn 0.3346 0.8096 0.4822
vn 0.5529 0.8122 0.1862
vn 0.5473 0.8169 -0.1820
vn 0.3244 0.8206 -0.4706
vn -0.0097 0.8206 -0.5714
vn -0.3600 0.8037 -0.4738
vn -0.5649 0.8081 -0.1671
vn -0.5707 0.8013 0.1796
vn -0.3600 0.8035 0.4740
vn -0.9258 0.2257 -0.3032
vn -0.6642 0.7151 -0.2178
vn -0.6655 0.7145 0.2160
vn -0.9264 0.2260 0.3012
vn 0.9218 0.2404 0.3042
vn 0.6685 0.7098 0.2221
vn 0.6655 0.7109 -0.2276
vn 0.9207 0.2398 -0.3081
vn 0.7050 0.6699 0.2327
vn 0.9658 -0.0927 0.2422
vn 0.9355 -0.1683 -0.3108
vn 0.7024 0.6723 -0.2340
vn -0.5643 -0.8049 -0.1838
vn -0.8444 0.4613 -0.2725
vn -0.9410 -0.0553 -0.3338
vn -0.5642 -0.8050 0.1835
vn -0.8444 0.4612 0.2724
vn -0.9567 -0.0386 0.2884
vn -0.0000 -1.0000 0.0008
vn -0.0538 -0.9960 -0.0717
vn -0.0000 -0.9963 -0.0856
vn -0.0909 -0.9955 -0.0281
vn -0.0974 -0.9947 0.0325
vn -0.0640 -0.9940 0.0891
vn -0.0000 -0.9935 0.1142
vn 0.0640 -0.9940 0.0891
vn 0.0974 -0.9947 0.0325
vn 0.0909 -0.9955 -0.0281
vn 0.0538 -0.9960 -0.0717
vn -0.3437 -0.9308 0.1248
vn -0.3466 -0.9306 -0.1176
vn 0.3915 -0.9140 -0.1070
vn 0.3884 -0.9132 0.1230
vn 0.6686 -0.7186 -0.1915
vn 0.6611 -0.7066 0.2523
vn 0.7878 -0.5608 0.2546
vn 0.7604 -0.6015 -0.2449
vn -0.6664 -0.7173 0.2035
vn -0.6627 -0.7156 -0.2207
vn -0.7602 -0.6018 -0.2448
vn -0.7582 -0.6044 0.2446
vn 0.7137 -0.6613 0.2309
vn 0.7140 -0.6576 -0.2404
vn -0.7140 -0.6576 -0.2404
vn -0.7137 -0.6613 0.2309
vn 0.6649 -0.7184 0.2045
vn 0.6581 -0.7227 -0.2110
vn -0.6582 -0.7227 -0.2110
vn -0.6649 -0.7184 0.2045
vn -0.4089 -0.7330 -0.5436
vn -0.0000 -0.7432 -0.6691
vn -0.0000 -0.5697 -0.8218
vn -0.4956 -0.5761 -0.6500
vn 0.4090 -0.7330 -0.5436
vn 0.4957 -0.5761 -0.6500
vn 0.7946 -0.5568 0.2421
vn 0.7886 -0.5607 -0.2527
vn -0.7886 -0.5607 -0.2527
vn -0.7946 -0.5568 0.2421
vn -0.7692 -0.5874 -0.2517
vn -0.7673 -0.5888 0.2540
vn -0.6864 0.6944 0.2161
vn -0.6836 0.6958 -0.2204
vn 0.7818 -0.5701 0.2525
vn 0.7840 -0.5699 -0.2460
vn 0.6590 0.7157 -0.2312
vn 0.6624 0.7163 0.2194
vn 0.0310 -0.9295 -0.3675
vn -0.1992 -0.9310 -0.3058
vn -0.4679 -0.5929 -0.6554
vn 0.0133 -0.5966 -0.8024
vn -0.1915 -0.9296 0.3150
vn -0.4629 -0.5935 0.6584
vn 0.0366 -0.9235 0.3818
vn 0.0162 -0.5883 0.8085
vn 0.2548 -0.9164 0.3088
vn 0.4889 -0.5767 0.6546
vn 0.2549 -0.9213 -0.2937
vn 0.4897 -0.5834 -0.6479
vn 0.2419 0.8959 0.3725
vn -0.0424 0.8945 0.4450
vn -0.0217 0.6882 -0.7252
vn -0.4325 0.6910 -0.5792
vn -0.3080 0.8875 0.3427
vn 0.3958 0.7017 -0.5924
vn -0.4547 0.8828 0.1179
vn -0.4421 0.8858 -0.1411
vn -0.2984 0.8871 -0.3522
vn 0.3971 0.7095 0.5822
vn -0.0493 0.8969 -0.4395
vn -0.0270 0.6969 0.7166
vn 0.2191 0.9022 -0.3715
vn -0.4401 0.6906 0.5739
vn 0.4068 0.9008 -0.1517
vn 0.4185 0.8974 0.1397
vn -0.8547 0.4448 -0.2678
vn -0.3566 0.7922 -0.4953
vn -0.2860 -0.8434 -0.4549
vn -0.8587 0.4279 0.2821
vn -0.5942 0.7820 -0.1881
vn -0.4942 -0.8516 -0.1747
vn -0.5287 0.4428 0.7242
vn -0.5942 0.7821 0.1879
vn -0.4967 -0.8514 0.1687
vn -0.4313 0.8424 0.3231
vn -0.8736 -0.4698 -0.1268
vn -0.1452 -0.4763 0.8672
vn 0.5309 0.4459 0.7206
vn -0.0022 0.7917 0.6109
vn -0.0141 -0.8412 0.5406
vn 0.8517 0.4495 0.2692
vn 0.3557 0.7923 0.4958
vn 0.3169 -0.8434 0.4339
vn 0.8526 0.4411 -0.2803
vn 0.5942 0.7820 0.1881
vn 0.4998 -0.8510 0.1612
vn 0.5297 0.4466 -0.7211
vn 0.5937 0.7823 -0.1885
vn 0.4982 -0.8499 -0.1714
vn 0.0001 0.4520 -0.8920
vn 0.3545 0.7922 -0.4967
vn 0.2995 -0.8439 -0.4452
vn -0.5318 0.4554 -0.7140
vn -0.0013 0.7913 -0.6114
vn -0.0111 -0.8425 -0.5385
vn -0.3604 -0.9248 -0.1218
vn -0.3603 -0.9248 0.1219
vn 0.3403 -0.9332 0.1153
vn 0.3620 -0.9242 -0.1215
vn -0.0003 0.4472 0.8944
vn -0.3579 0.7920 0.4946
vn -0.3170 -0.8452 0.4303
vn -0.8539 0.4373 -0.2823
vn -0.8539 0.4463 0.2676
vn -0.1659 0.8473 0.5045
vn -0.7766 -0.4743 0.4146
vn 0.3903 -0.4691 0.7922
vn -0.5316 0.4540 0.7150
vn 0.1798 0.8465 0.5012
vn -0.3890 -0.4614 0.7974
vn 0.7784 -0.4680 0.4185
vn 0.0006 0.4497 0.8932
vn 0.4379 0.8431 0.3122
vn 0.1462 -0.4753 0.8676
vn 0.8720 -0.4734 -0.1242
vn 0.5316 0.4406 0.7234
vn 0.4725 0.8813 0.0023
vn 0.9565 -0.0339 -0.2897
vn -0.4973 -0.3718 -0.7838
vn 0.9359 -0.1719 0.3076
vn 0.9575 -0.0409 0.2855
vn 0.5485 0.8361 0.0054
vn 0.6266 -0.4798 0.6141
vn 0.6268 -0.4768 -0.6163
vn 0.8533 0.4392 0.2810
vn 0.8740 -0.4695 0.1250
vn 0.1481 -0.4741 -0.8679
vn 0.4381 0.8430 -0.3121
vn 0.8567 0.4367 -0.2744
vn 0.1979 0.8468 -0.4937
vn 0.7666 -0.4906 -0.4143
vn -0.3961 -0.4652 -0.7917
vn 0.5315 0.4490 -0.7183
vn -0.1590 0.8468 -0.5076
vn 0.3878 -0.4713 -0.7921
vn -0.7800 -0.4685 -0.4148
vn 0.0052 0.4732 -0.8809
vn -0.4460 0.8435 -0.2993
vn -0.1324 -0.4674 -0.8741
vn -0.8621 -0.4937 0.1141
vn -0.5318 0.4391 -0.7241
vn -0.9354 -0.1708 0.3095
vn -0.9638 -0.0972 -0.2482
vn -0.9998 -0.0214 0.0035
vn 0.5015 -0.4330 0.7490
vn -0.9326 -0.1826 -0.3112
vn -0.9576 -0.0444 -0.2847
vn -0.5469 0.8372 0.0081
vn -0.6200 -0.4840 -0.6176
vn -0.6197 -0.4917 0.6117
vn -0.7065 0.6689 0.2312
vn -0.7060 0.6692 -0.2318
vn -0.3509 -0.8053 0.4778
vn -0.5204 0.4599 0.7195
vn -0.6082 -0.0384 0.7928
vn 0.0003 -0.8134 0.5817
vn -0.0008 0.4491 0.8935
vn -0.0265 -0.0420 0.9988
vn 0.3520 -0.8042 0.4790
vn 0.5190 0.4623 0.7190
vn 0.5677 -0.0376 0.8223
vn 0.5661 -0.8034 0.1843
vn 0.8435 0.4631 0.2722
vn 0.9449 -0.0392 0.3250
vn 0.5664 -0.8034 -0.1836
vn 0.8431 0.4637 -0.2723
vn 0.3533 -0.8042 -0.4779
vn 0.5188 0.4616 -0.7196
vn 0.6048 -0.0315 -0.7958
vn 0.0015 -0.8142 -0.5806
vn -0.0004 0.4475 -0.8943
vn 0.0169 -0.0278 -0.9995
vn -0.3501 -0.8057 -0.4779
vn -0.5200 0.4598 -0.7198
vn -0.5664 -0.0420 -0.8231
vn -0.2224 0.9260 -0.3051
vn -0.4134 0.7107 -0.5693
vn -0.0111 0.7054 -0.7087
vn -0.0090 0.9227 -0.3853
vn -0.3544 0.9279 -0.1154
vn -0.2275 0.9254 0.3031
vn -0.4185 0.7093 0.5673
vn -0.3550 0.9279 0.1143
vn -0.0121 0.9243 0.3815
vn -0.0141 0.7060 0.7080
vn 0.2140 0.9259 0.3112
vn 0.4031 0.7078 0.5800
vn 0.3585 0.9259 0.1189
vn 0.2101 0.9257 -0.3145
vn 0.3995 0.7078 -0.5826
vn 0.3540 0.9272 -0.1223
vn -0.6087 -0.3543 0.7099
vn -0.0636 -0.0655 -0.9958
vn -0.0049 0.6690 -0.7433
vn -0.0029 -0.1503 -0.9886
vn -0.0469 -0.4193 0.9066
vn -0.6347 -0.0757 -0.7691
vn -0.4331 0.6712 -0.6016
vn -0.5693 -0.1438 -0.8095
vn -0.9204 -0.0748 0.3837
vn -0.5749 -0.1669 0.8010
vn -0.4359 0.6701 0.6008
vn -0.5271 -0.0698 0.8469
vn -0.0040 -0.1552 0.9879
vn -0.0063 0.6727 0.7399
vn 0.0776 -0.0535 0.9956
vn 0.5745 -0.1636 0.8020
vn 0.4271 0.6744 0.6023
vn 0.6365 -0.0779 0.7673
vn 0.9222 -0.0830 -0.3777
vn 0.5686 -0.1720 -0.8044
vn 0.4255 0.6731 -0.6049
vn 0.5448 -0.0949 -0.8332
vn -0.2971 0.2395 -0.9243
vn -0.0243 -0.0308 -0.9992
vn -0.7849 0.2366 0.5727
vn -0.9438 -0.0413 0.3278
vn -0.2998 0.2367 0.9242
vn -0.5671 -0.0403 0.8227
vn 0.3048 0.2468 0.9199
vn 0.0193 -0.0214 0.9996
vn 0.7892 0.2289 0.5699
vn 0.6087 -0.0245 0.7930
vn 0.7882 0.2340 -0.5692
vn 0.9440 -0.0392 -0.3277
vn 0.3135 0.2269 -0.9221
vn 0.5582 -0.0560 -0.8278
vn -0.0073 0.2137 -0.9769
vn -0.5729 0.2173 -0.7903
vn -0.5748 0.2192 0.7884
vn -0.0086 0.2193 0.9756
vn 0.5624 0.2301 0.7942
vn 0.5614 0.2258 -0.7962
vn -0.3981 -0.7240 -0.5633
vn 0.0001 -0.7322 -0.6811
vn 0.0000 -0.4632 -0.8862
vn -0.5016 -0.5286 -0.6848
vn 0.3987 -0.7234 -0.5637
vn 0.5017 -0.5284 -0.6849
vn 0.4258 -0.7183 0.5502
vn 0.5206 -0.4702 0.7127
vn 0.0587 -0.7365 0.6739
vn 0.0000 -0.4742 0.8804
vn -0.3924 -0.7067 0.5887
vn -0.5015 -0.5395 0.6763
vn -0.0000 -0.5488 -0.8359
vn -0.4686 -0.6016 -0.6469
vn 0.4686 -0.6016 -0.6469
vn 0.4679 -0.5856 0.6620
vn -0.0000 -0.5599 0.8286
vn -0.4679 -0.5856 0.6620
vn 0.4135 -0.7253 0.5504
vn -0.0000 -0.7277 0.6859
vn -0.4135 -0.7253 0.5504
vn 0.5024 -0.5449 0.6713
vn 0.0000 -0.5541 0.8325
vn -0.5024 -0.5449 0.6713
vn -0.2123 -0.9302 -0.2993
vn 0.0010 -0.9377 -0.3474
vn -0.2294 -0.9199 0.3181
vn 0.0014 -0.9374 0.3483
vn 0.1995 -0.9390 0.2801
vn 0.2143 -0.9299 -0.2991
vn 0.8560 -0.3915 0.3376
vn -0.0611 -0.1105 0.9920
vn 0.6049 -0.3595 -0.7105
vn 0.0603 -0.3966 -0.9160
vn -0.8559 -0.3870 -0.3429
vn 0.0715 -0.1088 -0.9915
vn -0.7976 0.2182 -0.5623
vn -0.5946 0.0072 -0.8040
# 312 vertex normals

vt 0.8273 0.0427 0.0000
vt 0.8415 0.0010 0.0000
vt 0.8632 0.0164 0.0000
vt 0.8717 0.0415 0.0000
vt 0.8637 0.0667 0.0000
vt 0.8423 0.0823 0.0000
vt 0.8157 0.0825 0.0000
vt 0.7938 0.0677 0.0000
vt 0.7857 0.0412 0.0000
vt 0.7935 0.0167 0.0000
vt 0.8149 0.0011 0.0000
vt 0.2270 0.1770 -0.0759
vt 0.2271 0.1416 0.0202
vt 0.2792 0.1417 0.0202
vt 0.2793 0.1772 -0.0759
vt 0.5052 0.1820 -0.0759
vt 0.5053 0.1468 0.0202
vt 0.5574 0.1465 0.0202
vt 0.5575 0.1816 -0.0759
vt 0.7125 0.0915 0.0007
vt 0.7748 0.0745 -0.0003
vt 0.7851 0.0745 0.0022
vt 0.7852 0.0915 0.0007
vt 0.3335 0.0010 0.0007
vt 0.3331 0.0143 0.0059
vt 0.3052 0.0143 -0.0006
vt 0.4051 0.0010 0.0007
vt 0.4055 0.0143 0.0059
vt 0.3804 0.0143 0.0010
vt 0.8435 0.2507 0.0000
vt 0.8244 0.2219 0.0000
vt 0.8438 0.2151 0.0000
vt 0.8123 0.2386 0.0000
vt 0.8121 0.2599 0.0000
vt 0.8240 0.2778 0.0000
vt 0.8433 0.2842 0.0000
vt 0.8627 0.2780 0.0000
vt 0.8748 0.2604 0.0000
vt 0.8749 0.2390 0.0000
vt 0.8631 0.2222 0.0000
vt 0.7096 0.1425 0.0000
vt 0.7471 0.1425 0.0000
vt 0.7471 0.1592 0.0000
vt 0.7096 0.1592 0.0000
vt 0.8977 0.1425 0.0000
vt 0.9322 0.1425 0.0000
vt 0.9322 0.1592 0.0000
vt 0.8977 0.1592 0.0000
vt 0.4326 0.2523 0.0214
vt 0.3938 0.2604 0.0221
vt 0.3930 0.2022 -0.0681
vt 0.4336 0.2022 -0.0680
vt 0.2168 0.2522 0.0213
vt 0.1779 0.2522 0.0213
vt 0.1769 0.2022 -0.0680
vt 0.2175 0.2022 -0.0681
vt 0.3919 0.1825 -0.0698
vt 0.4350 0.1825 -0.0696
vt 0.1755 0.1825 -0.0696
vt 0.2186 0.1825 -0.0698
vt 0.5124 0.3051 0.0000
vt 0.4893 0.3051 0.0000
vt 0.4893 0.2927 0.0000
vt 0.5124 0.2927 0.0000
vt 0.6236 0.3051 0.0000
vt 0.6009 0.3051 0.0000
vt 0.6009 0.2927 0.0000
vt 0.6236 0.2927 0.0000
vt 0.5420 0.3197 0.0000
vt 0.5609 0.3197 0.0000
vt 0.5609 0.3262 0.0000
vt 0.5420 0.3262 0.0000
vt 0.5799 0.3197 0.0000
vt 0.5799 0.3262 0.0000
vt 0.5983 0.3197 0.0000
vt 0.6162 0.3197 0.0000
vt 0.6162 0.3262 0.0000
vt 0.5983 0.3262 0.0000
vt 0.5060 0.3197 0.0000
vt 0.5241 0.3197 0.0000
vt 0.5241 0.3262 0.0000
vt 0.5060 0.3262 0.0000
vt 0.8799 0.2367 0.0000
vt 0.8797 0.2614 0.0000
vt 0.8072 0.2608 0.0000
vt 0.8074 0.2361 0.0000
vt 0.1874 0.3191 0.0000
vt 0.1412 0.3191 0.0000
vt 0.1412 0.2927 0.0000
vt 0.1874 0.2927 0.0000
vt 0.4189 0.3191 0.0000
vt 0.3727 0.3191 0.0000
vt 0.3727 0.2927 0.0000
vt 0.4189 0.2927 0.0000
vt 0.7142 0.1975 0.0000
vt 0.6681 0.1975 0.0000
vt 0.6681 0.1825 0.0000
vt 0.7142 0.1825 0.0000
vt 0.6222 0.1975 0.0000
vt 0.6222 0.1825 0.0000
vt 0.5761 0.1975 0.0000
vt 0.5761 0.1825 0.0000
vt 0.5299 0.1975 0.0000
vt 0.5299 0.1825 0.0000
vt 0.4820 0.1975 0.0000
vt 0.4820 0.1825 0.0000
vt 0.4355 0.1975 0.0000
vt 0.4355 0.1825 0.0000
vt 0.9010 0.1975 0.0000
vt 0.8527 0.1975 0.0000
vt 0.8527 0.1825 0.0000
vt 0.9010 0.1825 0.0000
vt 0.8066 0.1975 0.0000
vt 0.8066 0.1825 0.0000
vt 0.7604 0.1975 0.0000
vt 0.7604 0.1825 0.0000
vt 0.2298 0.3197 0.0000
vt 0.2739 0.3197 0.0000
vt 0.2739 0.3336 0.0000
vt 0.2298 0.3336 0.0000
vt 0.3178 0.3197 0.0000
vt 0.3178 0.3336 0.0000
vt 0.3617 0.3197 0.0000
vt 0.3617 0.3336 0.0000
vt 0.4048 0.3197 0.0000
vt 0.4048 0.3336 0.0000
vt 0.4492 0.3197 0.0000
vt 0.4492 0.3336 0.0000
vt 0.0010 0.3197 0.0000
vt 0.0523 0.3197 0.0000
vt 0.0523 0.3336 0.0000
vt 0.0010 0.3336 0.0000
vt 0.0971 0.3197 0.0000
vt 0.0971 0.3336 0.0000
vt 0.1414 0.3197 0.0000
vt 0.1414 0.3336 0.0000
vt 0.1857 0.3197 0.0000
vt 0.1857 0.3336 0.0000
vt 0.7329 0.0920 0.0000
vt 0.7625 0.0920 0.0000
vt 0.7625 0.1419 0.0000
vt 0.7329 0.1419 0.0000
vt 0.5850 0.0920 0.0000
vt 0.6142 0.0920 0.0000
vt 0.6142 0.1419 0.0000
vt 0.5850 0.1419 0.0000
vt 0.0612 0.4978 0.0000
vt 0.0612 0.5243 0.0000
vt 0.0010 0.5228 0.0000
vt 0.9963 0.0010 0.0000
vt 0.9967 0.0295 0.0000
vt 0.9362 0.0292 0.0000
vt 0.0013 0.4973 0.0000
vt 0.0010 0.4713 0.0000
vt 0.0616 0.4717 0.0000
vt 0.1232 0.4653 0.0000
vt 0.0630 0.4940 0.0000
vt 0.0623 0.4424 0.0000
vt 0.1226 0.3890 0.0000
vt 0.1230 0.4166 0.0000
vt 0.0623 0.4164 0.0000
vt 0.0623 0.3884 0.0000
vt 0.0623 0.3618 0.0000
vt 0.1234 0.3632 0.0000
vt 0.8727 0.0551 0.0000
vt 0.8722 0.0286 0.0000
vt 0.9338 0.0288 0.0000
vt 0.5668 0.2513 0.0000
vt 0.5667 0.2251 0.0000
vt 0.6282 0.2260 0.0000
vt 0.0016 0.3904 0.0000
vt 0.0010 0.3636 0.0000
vt 0.0618 0.3631 0.0000
vt 0.1866 0.4369 0.0000
vt 0.1859 0.4124 0.0000
vt 0.2462 0.4118 0.0000
vt 0.1768 0.2912 0.0734
vt 0.2179 0.2912 0.0734
vt 0.3926 0.2916 0.0734
vt 0.4337 0.2916 0.0734
vt 0.0608 0.3910 0.0000
vt 0.0613 0.4184 0.0000
vt 0.0010 0.4186 0.0000
vt 0.0017 0.4451 0.0000
vt 0.0608 0.4445 0.0000
vt 0.7511 0.2225 0.0000
vt 0.6905 0.2491 0.0000
vt 0.6902 0.1981 0.0000
vt 0.1225 0.4418 0.0000
vt 0.5048 0.2274 0.0000
vt 0.5655 0.1981 0.0000
vt 0.5662 0.2530 0.0000
vt 0.0634 0.3342 0.0000
vt 0.1239 0.4118 0.0000
vt 0.1851 0.3868 0.0000
vt 0.1853 0.4381 0.0000
vt 0.8728 0.0010 0.0000
vt 0.7885 0.2600 0.0013
vt 0.7778 0.2600 -0.0013
vt 0.7517 0.1981 -0.0004
vt 0.7627 0.1981 0.0001
vt 0.7228 0.0745 -0.0003
vt 0.7126 0.0745 0.0022
vt 0.7390 0.0143 0.0009
vt 0.7493 0.0143 0.0005
vt 0.2475 0.3602 0.0000
vt 0.1861 0.3856 0.0000
vt 0.1859 0.3342 0.0000
vt 0.5677 0.1981 0.0000
vt 0.1848 0.3342 0.0000
vt 0.1853 0.3863 0.0000
vt 0.1239 0.3616 0.0000
vt 0.0014 0.3342 0.0000
vt 0.9143 0.1192 0.0000
vt 0.8536 0.1401 0.0000
vt 0.8533 0.0920 0.0000
vt 0.1861 0.3862 0.0000
vt 0.6288 0.2221 0.0000
vt 0.6897 0.1981 0.0000
vt 0.6890 0.2504 0.0000
vt 0.0604 0.5457 0.0000
vt 0.1847 0.4598 0.0000
vt 0.1244 0.4857 0.0000
vt 0.1239 0.4386 0.0000
vt 0.9961 0.0564 0.0000
vt 0.4056 0.0745 0.0022
vt 0.3925 0.0745 -0.0009
vt 0.3684 0.0143 0.0005
vt 0.3461 0.0745 -0.0009
vt 0.3330 0.0745 0.0022
vt 0.3592 0.0143 0.0009
vt 0.1232 0.5165 0.0000
vt 0.0623 0.5397 0.0000
vt 0.0626 0.4946 0.0000
vt 0.4056 0.0915 0.0007
vt 0.3330 0.0915 0.0007
vt 0.4794 0.0010 -0.0030
vt 0.4801 0.0143 0.0027
vt 0.4523 0.0143 -0.0014
vt 0.5591 0.0010 -0.0055
vt 0.5591 0.0143 0.0005
vt 0.5304 0.0143 -0.0043
vt 0.6387 0.0010 -0.0030
vt 0.6380 0.0143 0.0027
vt 0.6112 0.0143 -0.0036
vt 0.7130 0.0010 0.0007
vt 0.7126 0.0143 0.0059
vt 0.6873 0.0143 -0.0003
vt 0.7847 0.0010 0.0007
vt 0.0256 0.0010 0.0007
vt 0.0260 0.0143 0.0059
vt 0.0010 0.0143 0.0010
vt 0.0999 0.0010 -0.0030
vt 0.1006 0.0143 0.0027
vt 0.0737 0.0143 -0.0013
vt 0.1795 0.0010 -0.0055
vt 0.1795 0.0143 0.0005
vt 0.1541 0.0143 -0.0041
vt 0.2592 0.0010 -0.0030
vt 0.2585 0.0143 0.0027
vt 0.2315 0.0143 -0.0036
vt 0.1727 0.0922 0.0728
vt 0.1727 0.1420 0.0111
vt 0.1140 0.1429 0.0052
vt 0.1140 0.0926 0.0654
vt 0.2271 0.0920 0.0844
vt 0.3336 0.0925 0.0728
vt 0.3336 0.1425 0.0111
vt 0.2792 0.0920 0.0844
vt 0.3922 0.0937 0.0654
vt 0.3922 0.1443 0.0052
vt 0.4509 0.0951 0.0728
vt 0.4509 0.1461 0.0111
vt 0.5053 0.0954 0.0844
vt 0.0554 0.0942 0.0728
vt 0.0554 0.1449 0.0111
vt 0.0010 0.1465 0.0202
vt 0.0010 0.0953 0.0844
vt 0.1896 0.0745 -0.0051
vt 0.2468 0.0745 -0.0041
vt 0.1795 0.0915 -0.0040
vt 0.1795 0.0745 -0.0027
vt 0.2695 0.0745 -0.0031
vt 0.3190 0.0745 -0.0017
vt 0.2581 0.0915 -0.0021
vt 0.2582 0.0745 -0.0008
vt 0.4707 0.0745 -0.0029
vt 0.4804 0.0745 -0.0008
vt 0.4805 0.0915 -0.0021
vt 0.5476 0.0745 -0.0054
vt 0.5591 0.0745 -0.0027
vt 0.5591 0.0915 -0.0040
vt 0.6287 0.0745 -0.0035
vt 0.6378 0.0745 -0.0008
vt 0.6376 0.0915 -0.0021
vt 0.7019 0.0745 -0.0010
vt 0.0906 0.0745 -0.0030
vt 0.1008 0.0745 -0.0008
vt 0.1010 0.0915 -0.0021
vt 0.0261 0.0915 0.0007
vt 0.1655 0.0745 -0.0059
vt 0.2198 0.0143 -0.0045
vt 0.2069 0.0143 -0.0043
vt 0.4412 0.0143 -0.0013
vt 0.4310 0.0143 -0.0003
vt 0.5189 0.0143 -0.0045
vt 0.5067 0.0143 -0.0035
vt 0.5980 0.0143 -0.0045
vt 0.5852 0.0143 -0.0042
vt 0.6763 0.0143 -0.0013
vt 0.6657 0.0143 -0.0013
vt 0.7601 0.0143 0.0010
vt 0.0626 0.0143 -0.0013
vt 0.0519 0.0143 -0.0004
vt 0.1429 0.0143 -0.0045
vt 0.1305 0.0143 -0.0039
vt 0.6344 0.1425 0.0000
vt 0.6721 0.1425 0.0000
vt 0.6721 0.1592 0.0000
vt 0.6344 0.1592 0.0000
vt 0.7847 0.1425 0.0000
vt 0.7847 0.1592 0.0000
vt 0.8225 0.1425 0.0000
vt 0.8225 0.1592 0.0000
vt 0.8602 0.1425 0.0000
vt 0.8602 0.1592 0.0000
vt 0.5581 0.1425 0.0000
vt 0.5967 0.1425 0.0000
vt 0.5967 0.1592 0.0000
vt 0.5581 0.1592 0.0000
vt 0.1367 0.2530 0.0117
vt 0.0895 0.2530 0.0040
vt 0.0895 0.2025 -0.0729
vt 0.1348 0.2024 -0.0711
vt 0.0422 0.2530 0.0117
vt 0.0442 0.2024 -0.0711
vt 0.0010 0.2523 0.0214
vt 0.0020 0.2022 -0.0680
vt 0.3527 0.2611 0.0119
vt 0.3506 0.2024 -0.0712
vt 0.3053 0.2530 0.0040
vt 0.3053 0.2025 -0.0734
vt 0.2601 0.2528 0.0183
vt 0.2599 0.2024 -0.0712
vt 0.0895 0.1827 -0.0693
vt 0.1328 0.1827 -0.0700
vt 0.0461 0.1827 -0.0700
vt 0.0034 0.1825 -0.0696
vt 0.3483 0.1827 -0.0696
vt 0.3053 0.1828 -0.0703
vt 0.2622 0.1827 -0.0696
vt 0.5783 0.3051 0.0000
vt 0.5561 0.3051 0.0000
vt 0.5561 0.2927 0.0000
vt 0.5783 0.2927 0.0000
vt 0.5343 0.3051 0.0000
vt 0.5343 0.2927 0.0000
vt 0.4654 0.3051 0.0000
vt 0.4654 0.2927 0.0000
vt 0.6893 0.3051 0.0000
vt 0.6681 0.3051 0.0000
vt 0.6681 0.2927 0.0000
vt 0.6893 0.2927 0.0000
vt 0.6455 0.3051 0.0000
vt 0.6455 0.2927 0.0000
vt 0.6344 0.3197 0.0000
vt 0.6344 0.3262 0.0000
vt 0.4498 0.3197 0.0000
vt 0.4686 0.3197 0.0000
vt 0.4686 0.3262 0.0000
vt 0.4498 0.3262 0.0000
vt 0.4874 0.3197 0.0000
vt 0.4874 0.3262 0.0000
vt 0.8214 0.2167 0.0000
vt 0.8438 0.2088 0.0000
vt 0.8662 0.2171 0.0000
vt 0.8657 0.2818 0.0000
vt 0.8432 0.2888 0.0000
vt 0.8209 0.2814 0.0000
vt 0.2800 0.3191 0.0000
vt 0.2336 0.3191 0.0000
vt 0.2336 0.2927 0.0000
vt 0.2800 0.2927 0.0000
vt 0.0949 0.3191 0.0000
vt 0.0949 0.2927 0.0000
vt 0.0485 0.3191 0.0000
vt 0.0485 0.2927 0.0000
vt 0.0010 0.3191 0.0000
vt 0.0010 0.2927 0.0000
vt 0.4649 0.3191 0.0000
vt 0.4649 0.2927 0.0000
vt 0.3264 0.3191 0.0000
vt 0.3264 0.2927 0.0000
vt 0.6736 0.0920 0.0000
vt 0.7033 0.0920 0.0000
vt 0.7033 0.1419 0.0000
vt 0.6736 0.1419 0.0000
vt 0.7922 0.0920 0.0000
vt 0.7922 0.1419 0.0000
vt 0.8219 0.0920 0.0000
vt 0.8219 0.1419 0.0000
vt 0.8528 0.0920 0.0000
vt 0.8528 0.1419 0.0000
vt 0.5581 0.0920 0.0000
vt 0.5581 0.1419 0.0000
vt 0.6439 0.0920 0.0000
vt 0.6439 0.1419 0.0000
vt 0.1345 0.2918 0.0669
vt 0.0895 0.2914 0.0624
vt 0.2602 0.2918 0.0669
vt 0.3053 0.2915 0.0624
vt 0.3503 0.2921 0.0669
vt 0.0021 0.2916 0.0734
vt 0.0444 0.2920 0.0670
vt 0.4165 0.0745 -0.0010
vt 0.4921 0.0745 -0.0042
vt 0.5694 0.0745 -0.0052
vt 0.6487 0.0745 -0.0031
vt 0.0260 0.0745 0.0022
vt 0.0365 0.0745 -0.0009
vt 0.1131 0.0745 -0.0043
vt 0.2927 0.0143 -0.0014
vt 0.2800 0.0143 -0.0010
vt 0.7153 0.3413 0.0000
vt 0.6215 0.3413 0.0000
vt 0.6215 0.3385 0.0000
vt 0.7153 0.3385 0.0000
vt 0.5281 0.3413 0.0000
vt 0.5281 0.3385 0.0000
vt 0.4358 0.3413 0.0000
vt 0.4358 0.3385 0.0000
vt 0.3425 0.3413 0.0000
vt 0.3425 0.3385 0.0000
vt 0.2481 0.3413 0.0000
vt 0.2481 0.3385 0.0000
vt 0.9990 0.3413 0.0000
vt 0.9820 0.3413 0.0000
vt 0.9820 0.3385 0.0000
vt 0.9990 0.3385 0.0000
vt 0.9595 0.3413 0.0000
vt 0.9595 0.3385 0.0000
vt 0.9023 0.3413 0.0000
vt 0.9023 0.3385 0.0000
vt 0.8091 0.3413 0.0000
vt 0.8091 0.3385 0.0000
vt 0.9224 0.1981 0.0000
vt 0.9481 0.1981 0.0000
vt 0.9481 0.2017 0.0000
vt 0.9224 0.2017 0.0000
vt 0.9739 0.1981 0.0000
vt 0.9739 0.2017 0.0000
vt 0.7693 0.3197 0.0000
vt 0.8345 0.3197 0.0000
vt 0.8345 0.3233 0.0000
vt 0.7693 0.3233 0.0000
vt 0.8997 0.3197 0.0000
vt 0.8997 0.3233 0.0000
vt 0.6328 0.3303 0.0000
vt 0.6095 0.3303 0.0000
vt 0.6095 0.3268 0.0000
vt 0.6328 0.3268 0.0000
vt 0.5833 0.3303 0.0000
vt 0.5833 0.3268 0.0000
vt 0.6350 0.3239 0.0000
vt 0.6996 0.3239 0.0000
vt 0.6996 0.3276 0.0000
vt 0.6350 0.3276 0.0000
vt 0.7643 0.3239 0.0000
vt 0.7643 0.3276 0.0000
vt 0.9899 0.1462 0.0000
vt 0.9614 0.1462 0.0000
vt 0.9614 0.1425 0.0000
vt 0.9899 0.1425 0.0000
vt 0.9328 0.1462 0.0000
vt 0.9328 0.1425 0.0000
vt 0.9218 0.2018 0.0000
vt 0.8554 0.2018 0.0000
vt 0.8554 0.1981 0.0000
vt 0.9218 0.1981 0.0000
vt 0.7891 0.2018 0.0000
vt 0.7891 0.1981 0.0000
vt 0.9149 0.0920 0.0000
vt 0.9417 0.0920 0.0000
vt 0.9417 0.0958 0.0000
vt 0.9149 0.0958 0.0000
vt 0.9686 0.0920 0.0000
vt 0.9686 0.0958 0.0000
vt 0.8237 0.1636 0.0000
vt 0.7581 0.1636 0.0000
vt 0.7581 0.1598 0.0000
vt 0.8237 0.1598 0.0000
vt 0.6923 0.1636 0.0000
vt 0.6923 0.1598 0.0000
vt 0.0560 0.5499 0.0000
vt 0.0291 0.5499 0.0000
vt 0.0291 0.5462 0.0000
vt 0.0560 0.5462 0.0000
vt 0.0010 0.5499 0.0000
vt 0.0010 0.5462 0.0000
vt 0.5970 0.3137 0.0000
vt 0.5311 0.3137 0.0000
vt 0.5311 0.3100 0.0000
vt 0.5970 0.3100 0.0000
vt 0.4654 0.3137 0.0000
vt 0.4654 0.3100 0.0000
vt 0.6533 0.3092 0.0000
vt 0.6272 0.3092 0.0000
vt 0.6272 0.3056 0.0000
vt 0.6533 0.3056 0.0000
vt 0.5996 0.3092 0.0000
vt 0.5996 0.3056 0.0000
vt 0.6899 0.2970 0.0000
vt 0.7558 0.2970 0.0000
vt 0.7558 0.3007 0.0000
vt 0.6899 0.3007 0.0000
vt 0.8218 0.2970 0.0000
vt 0.8218 0.3007 0.0000
vt 0.6288 0.2510 0.0000
vt 0.6563 0.2510 0.0000
vt 0.6563 0.2547 0.0000
vt 0.6288 0.2547 0.0000
vt 0.6837 0.2510 0.0000
vt 0.6837 0.2547 0.0000
vt 0.2481 0.3418 0.0000
vt 0.3148 0.3418 0.0000
vt 0.3148 0.3456 0.0000
vt 0.2481 0.3456 0.0000
vt 0.3815 0.3418 0.0000
vt 0.3815 0.3456 0.0000
vt 0.5596 0.2573 0.0000
vt 0.5321 0.2573 0.0000
vt 0.5321 0.2535 0.0000
vt 0.5596 0.2535 0.0000
vt 0.5048 0.2573 0.0000
vt 0.5048 0.2535 0.0000
vt 0.9356 0.0322 0.0000
vt 0.8742 0.0587 0.0000
vt 0.9018 0.1836 0.0000
vt 0.9687 0.1825 0.0000
vt 0.9689 0.1864 0.0000
vt 0.9016 0.1875 0.0000
vt 0.6902 0.2496 0.0000
vt 0.7173 0.2496 0.0000
vt 0.7173 0.2534 0.0000
vt 0.6902 0.2534 0.0000
vt 0.7443 0.2496 0.0000
vt 0.7443 0.2534 0.0000
vt 0.5581 0.1598 0.0000
vt 0.6249 0.1598 0.0000
vt 0.6249 0.1636 0.0000
vt 0.5581 0.1636 0.0000
vt 0.6917 0.1598 0.0000
vt 0.6917 0.1636 0.0000
vt 0.8722 0.0592 0.0000
vt 0.9008 0.0592 0.0000
vt 0.9008 0.0630 0.0000
vt 0.8722 0.0630 0.0000
vt 0.9293 0.0592 0.0000
vt 0.9293 0.0630 0.0000
vt 0.6350 0.3197 0.0000
vt 0.7015 0.3197 0.0000
vt 0.7015 0.3234 0.0000
vt 0.6350 0.3234 0.0000
vt 0.7687 0.3197 0.0000
vt 0.7687 0.3234 0.0000
vt 0.6823 0.3380 0.0000
vt 0.6100 0.3380 0.0000
vt 0.6100 0.3342 0.0000
vt 0.6823 0.3342 0.0000
vt 0.5385 0.3380 0.0000
vt 0.5385 0.3342 0.0000
vt 0.4682 0.3380 0.0000
vt 0.4682 0.3342 0.0000
vt 0.3970 0.3380 0.0000
vt 0.3970 0.3342 0.0000
vt 0.3231 0.3380 0.0000
vt 0.3231 0.3342 0.0000
vt 0.2481 0.3380 0.0000
vt 0.2481 0.3342 0.0000
vt 0.9710 0.3380 0.0000
vt 0.8990 0.3380 0.0000
vt 0.8990 0.3342 0.0000
vt 0.9710 0.3342 0.0000
vt 0.8282 0.3380 0.0000
vt 0.8282 0.3342 0.0000
vt 0.7557 0.3380 0.0000
vt 0.7557 0.3342 0.0000
vt 0.2391 0.4412 0.0000
vt 0.1867 0.4411 0.0000
vt 0.1859 0.4375 0.0000
vt 0.2400 0.4376 0.0000
vt 0.8247 0.2927 0.0000
vt 0.8904 0.2927 0.0000
vt 0.8904 0.2964 0.0000
vt 0.8247 0.2964 0.0000
vt 0.9561 0.2927 0.0000
vt 0.9561 0.2964 0.0000
vt 0.2481 0.3461 0.0000
vt 0.3141 0.3461 0.0000
vt 0.3141 0.3498 0.0000
vt 0.2481 0.3498 0.0000
vt 0.3800 0.3461 0.0000
vt 0.3800 0.3498 0.0000
vt 0.1248 0.4862 0.0000
vt 0.1762 0.4864 0.0000
vt 0.1770 0.4900 0.0000
vt 0.1239 0.4898 0.0000
vt 0.6899 0.2927 0.0000
vt 0.7570 0.2927 0.0000
vt 0.7570 0.2964 0.0000
vt 0.6899 0.2964 0.0000
vt 0.8241 0.2927 0.0000
vt 0.8241 0.2964 0.0000
vt 0.0010 0.0715 0.0000
vt 0.0010 0.0165 0.0000
vt 0.0047 0.0156 0.0000
vt 0.0046 0.0724 0.0000
vt 0.4498 0.3268 0.0000
vt 0.5163 0.3268 0.0000
vt 0.5163 0.3305 0.0000
vt 0.4498 0.3305 0.0000
vt 0.5828 0.3268 0.0000
vt 0.5828 0.3305 0.0000
vt 0.4878 0.2706 0.0000
vt 0.4364 0.2702 0.0000
vt 0.4355 0.2665 0.0000
vt 0.4886 0.2669 0.0000
vt 0.5991 0.3094 0.0000
vt 0.5324 0.3094 0.0000
vt 0.5324 0.3056 0.0000
vt 0.5991 0.3056 0.0000
vt 0.4654 0.3094 0.0000
vt 0.4654 0.3056 0.0000
vt 0.6191 0.2556 0.0000
vt 0.5676 0.2558 0.0000
vt 0.5667 0.2521 0.0000
vt 0.6199 0.2519 0.0000
vt 0.6911 0.1679 0.0000
vt 0.6245 0.1679 0.0000
vt 0.6245 0.1642 0.0000
vt 0.6911 0.1642 0.0000
vt 0.5581 0.1679 0.0000
vt 0.5581 0.1642 0.0000
vt 0.8389 0.0867 0.0000
vt 0.7865 0.0871 0.0000
vt 0.7857 0.0835 0.0000
vt 0.8398 0.0830 0.0000
vt 0.8229 0.1678 0.0000
vt 0.7581 0.1678 0.0000
vt 0.7581 0.1642 0.0000
vt 0.8229 0.1642 0.0000
vt 0.6917 0.1678 0.0000
vt 0.6917 0.1642 0.0000
vt 0.5145 0.3178 0.0000
vt 0.4661 0.3181 0.0000
vt 0.4654 0.3146 0.0000
vt 0.5154 0.3142 0.0000
vt 0.5141 0.3455 0.0000
vt 0.4485 0.3455 0.0000
vt 0.4485 0.3418 0.0000
vt 0.5141 0.3418 0.0000
vt 0.3821 0.3455 0.0000
vt 0.3821 0.3418 0.0000
vt 0.9899 0.0606 0.0000
vt 0.9371 0.0608 0.0000
vt 0.9362 0.0572 0.0000
vt 0.9908 0.0570 0.0000
vt 0.6876 0.1722 0.0000
vt 0.6226 0.1722 0.0000
vt 0.6226 0.1685 0.0000
vt 0.6876 0.1685 0.0000
vt 0.5581 0.1722 0.0000
vt 0.5581 0.1685 0.0000
vt 0.1109 0.5443 0.0000
vt 0.0631 0.5439 0.0000
vt 0.0623 0.5403 0.0000
vt 0.1116 0.5406 0.0000
vt 0.9183 0.2061 0.0000
vt 0.8536 0.2061 0.0000
vt 0.8536 0.2024 0.0000
vt 0.9183 0.2024 0.0000
vt 0.7891 0.2061 0.0000
vt 0.7891 0.2024 0.0000
vt 0.6906 0.3014 0.0000
vt 0.7364 0.3012 0.0000
vt 0.7371 0.3049 0.0000
vt 0.6899 0.3051 0.0000
vt 0.5574 0.0953 0.0844
vt 0.1725 0.1775 -0.0811
vt 0.1140 0.1786 -0.0844
vt 0.3338 0.1781 -0.0811
vt 0.3922 0.1797 -0.0844
vt 0.4507 0.1813 -0.0811
vt 0.0556 0.1803 -0.0811
vt 0.0011 0.1816 -0.0759
# 695 texture coords

o Sphere003
g Sphere003
usemtl Material__165
s 1
f 1/1/1 2/2/2 3/3/3 
f 1/1/1 3/3/3 4/4/4 
f 1/1/1 4/4/4 5/5/5 
f 1/1/1 5/5/5 6/6/6 
f 1/1/1 6/6/6 7/7/7 
f 1/1/1 7/7/7 8/8/8 
f 1/1/1 8/8/8 9/9/9 
f 1/1/1 9/9/9 10/10/10 
f 1/1/1 10/10/10 11/11/11 
f 1/1/1 11/11/11 2/2/2 
f 12/12/12 13/13/13 14/14/14 15/15/15 
f 16/16/16 17/17/17 18/18/18 19/19/19 
usemtl Material__167
f 20/20/20 21/21/21 22/22/22 23/23/23 
f 24/24/24 25/25/25 26/26/26 
f 27/27/27 28/28/28 29/29/29 
usemtl Material__165
f 30/30/30 31/31/31 32/32/32 
f 30/30/30 33/33/33 31/31/31 
f 30/30/30 34/34/34 33/33/33 
f 30/30/30 35/35/35 34/34/34 
f 30/30/30 36/36/36 35/35/35 
f 30/30/30 37/37/37 36/36/36 
f 30/30/30 38/38/38 37/37/37 
f 30/30/30 39/39/39 38/38/38 
f 30/30/30 40/40/40 39/39/39 
f 30/30/30 32/32/32 40/40/40 
s 2
f 12/41/12 15/42/15 41/43/41 42/44/42 
f 16/45/16 19/46/19 43/47/43 44/48/44 
s 1
f 45/49/45 46/50/46 47/51/47 48/52/48 
f 49/53/49 50/54/50 51/55/51 52/56/52 
s 1073741824
f 48/52/48 47/51/47 53/57/53 54/58/54 
f 52/56/52 51/55/51 55/59/55 56/60/56 
usemtl Material__166
s off
f 54/61/54 53/62/53 57/63/57 58/64/58 
f 56/65/56 55/66/55 59/67/59 60/68/60 
f 61/69/61 62/70/62 63/71/63 64/72/64 
f 62/70/62 65/73/65 66/74/66 63/71/63 
f 58/75/58 57/76/57 67/77/67 68/78/68 
f 60/79/60 59/80/59 69/81/69 70/82/70 
usemtl Material__165
f 68/83/68 67/84/67 38/38/38 39/39/39 
f 70/85/70 69/86/69 33/33/33 34/34/34 
usemtl Material__171
f 71/87/71 72/88/72 73/89/73 74/90/74 
f 75/91/75 76/92/76 77/93/77 78/94/78 
usemtl Material__166
s 4
f 79/95/79 80/96/80 81/97/81 82/98/82 
f 80/96/80 42/99/42 71/100/71 81/97/81 
f 42/99/42 41/101/41 72/102/72 71/100/71 
f 41/101/41 83/103/83 84/104/84 72/102/72 
f 83/103/83 85/105/85 86/106/86 84/104/84 
f 85/105/85 87/107/87 88/108/88 86/106/86 
f 87/109/87 44/110/44 75/111/75 88/112/88 
f 44/110/44 43/113/43 76/114/76 75/111/75 
f 43/113/43 89/115/89 90/116/90 76/114/76 
f 89/115/89 79/95/79 82/98/82 90/116/90 
f 91/117/91 92/118/92 93/119/93 94/120/94 
f 92/118/92 95/121/95 96/122/96 93/119/93 
f 95/121/95 97/123/97 77/124/77 96/122/96 
f 97/123/97 98/125/98 78/126/78 77/124/77 
f 98/125/98 99/127/99 100/128/100 78/126/78 
f 99/129/99 101/130/101 102/131/102 100/132/100 
f 101/130/101 103/133/103 104/134/104 102/131/102 
f 103/133/103 105/135/105 73/136/73 104/134/104 
f 105/135/105 106/137/106 74/138/74 73/136/73 
f 106/137/106 91/117/91 94/120/94 74/138/74 
usemtl Material__165
s 8
f 106/139/106 105/140/105 5/141/5 4/142/4 
f 98/143/98 97/144/97 10/145/10 9/146/9 
usemtl Material__168
s 1
f 107/147/107 108/148/108 109/149/109 
f 110/150/110 111/151/111 112/152/112 
f 113/153/113 114/154/114 115/155/115 
usemtl Material__170
f 116/156/116 117/157/117 118/158/118 
usemtl Material__168
f 119/159/119 120/160/120 121/161/121 
f 122/162/122 123/163/123 124/164/124 
f 125/165/125 126/166/126 127/167/127 
f 128/168/128 129/169/129 130/170/130 
f 131/171/131 132/172/132 133/173/133 
f 134/174/134 135/175/135 136/176/136 
usemtl Material__165
f 137/177/137 50/54/50 49/53/49 138/178/138 
f 139/179/139 46/50/46 45/49/45 140/180/140 
usemtl Material__168
f 141/181/141 142/182/142 143/183/143 
f 115/155/115 114/154/114 144/184/144 
f 143/183/143 142/182/142 145/185/145 
usemtl Material__170
f 146/186/146 147/187/147 148/188/148 
usemtl Material__168
f 121/161/121 120/160/120 149/189/149 
usemtl Material__170
f 150/190/150 151/191/151 152/192/152 
usemtl Material__168
f 124/164/124 123/163/123 153/193/153 
usemtl Material__170
f 154/194/154 155/195/155 156/196/156 
usemtl Material__168
f 127/167/127 126/166/126 157/197/157 
usemtl Material__164
f 22/198/22 21/199/21 158/200/158 159/201/159 
f 160/202/160 161/203/161 162/204/162 158/205/158 
usemtl Material__170
f 163/206/163 164/207/164 165/208/165 
usemtl Material__168
f 130/170/130 129/169/129 166/209/166 
usemtl Material__170
f 167/210/167 168/211/168 169/212/169 
usemtl Material__168
f 133/173/133 132/172/132 170/213/170 
usemtl Material__170
f 171/214/171 172/215/172 173/216/173 
usemtl Material__168
f 136/176/136 135/175/135 174/217/174 
usemtl Material__170
f 175/218/175 176/219/176 177/220/177 
usemtl Material__168
f 109/149/109 108/148/108 178/221/178 
usemtl Material__170
f 179/222/179 180/223/180 181/224/181 
usemtl Material__168
f 112/152/112 111/151/111 182/225/182 
usemtl Material__164
f 183/226/183 184/227/184 185/228/185 29/29/29 
f 186/229/186 187/230/187 188/231/188 185/228/185 
usemtl Material__170
f 189/232/189 190/233/190 191/234/191 
usemtl Material__167
f 184/227/184 183/226/183 192/235/192 193/236/193 
f 188/231/188 25/25/25 24/24/24 27/27/27 
f 194/237/194 195/238/195 196/239/196 
f 197/240/197 198/241/198 199/242/199 
f 200/243/200 201/244/201 202/245/202 
f 203/246/203 204/247/204 205/248/205 
f 162/204/162 204/247/204 203/246/203 206/249/206 
f 206/250/206 207/251/207 159/252/159 
f 208/253/208 209/254/209 210/255/210 
f 211/256/211 212/257/212 213/258/213 
f 214/259/214 215/260/215 216/261/216 
usemtl Material__165
f 217/262/217 218/263/218 219/264/219 220/265/220 
f 221/266/221 13/13/13 218/263/218 217/262/217 
f 222/267/222 223/268/223 14/14/14 224/269/224 
f 225/270/225 226/271/226 223/268/223 222/267/222 
f 227/272/227 228/273/228 226/271/226 225/270/225 
f 229/274/229 17/17/17 228/273/228 227/272/227 
f 230/275/230 231/276/231 18/277/18 232/278/232 
f 220/265/220 219/264/219 231/276/231 230/275/230 
usemtl Material__167
f 233/279/233 234/280/234 235/281/235 236/282/236 
f 237/283/237 238/284/238 239/285/239 240/286/240 
f 186/229/186 184/227/184 193/236/193 187/230/187 
f 241/287/241 242/288/242 243/289/243 192/235/192 
f 244/290/244 245/291/245 246/292/246 243/289/243 
f 247/293/247 248/294/248 249/295/249 246/292/246 
f 250/296/250 161/203/161 20/20/20 249/295/249 
f 251/297/251 252/298/252 253/299/253 23/300/23 
f 254/301/254 236/282/236 235/281/235 253/299/253 
f 255/302/255 256/303/256 214/259/214 216/261/216 
f 257/304/257 258/305/258 194/237/194 196/239/196 
f 259/306/259 260/307/260 197/240/197 199/242/199 
f 261/308/261 262/309/262 200/243/200 202/245/202 
f 263/310/263 264/311/264 203/246/203 205/248/205 
f 158/205/158 162/204/162 206/249/206 159/312/159 
f 265/313/265 266/314/266 208/253/208 210/255/210 
f 267/315/267 268/316/268 211/256/211 213/258/213 
usemtl Material__165
s 2
f 269/317/269 270/318/270 80/319/80 79/320/79 
f 270/318/270 12/41/12 42/44/42 80/319/80 
f 15/42/15 271/321/271 83/322/83 41/43/41 
f 271/321/271 272/323/272 85/324/85 83/322/83 
f 272/323/272 273/325/273 87/326/87 85/324/85 
f 273/325/273 16/45/16 44/48/44 87/326/87 
f 19/327/19 274/328/274 89/329/89 43/330/43 
f 274/328/274 269/317/269 79/320/79 89/329/89 
s 1
f 275/331/275 276/332/276 277/333/277 278/334/278 
f 276/332/276 279/335/279 280/336/280 277/333/277 
f 279/335/279 45/337/45 48/338/48 280/336/280 
f 46/50/46 281/339/281 282/340/282 47/51/47 
f 281/339/281 283/341/283 284/342/284 282/340/282 
f 283/341/283 285/343/285 286/344/286 284/342/284 
f 285/343/285 49/53/49 52/56/52 286/344/286 
f 50/54/50 275/331/275 278/334/278 51/55/51 
s 1073741824
f 278/334/278 277/333/277 287/345/287 288/346/288 
f 277/333/277 280/336/280 289/347/289 287/345/287 
f 280/336/280 48/338/48 54/348/54 289/347/289 
f 47/51/47 282/340/282 290/349/290 53/57/53 
f 282/340/282 284/342/284 291/350/291 290/349/290 
f 284/342/284 286/344/286 292/351/292 291/350/291 
f 286/344/286 52/56/52 56/60/56 292/351/292 
f 51/55/51 278/334/278 288/346/288 55/59/55 
usemtl Material__166
s off
f 288/352/288 287/353/287 62/354/62 61/355/61 
f 287/353/287 289/356/289 65/357/65 62/354/62 
f 289/356/289 54/61/54 58/64/58 65/357/65 
f 53/62/53 290/358/290 293/359/293 57/63/57 
f 290/360/290 291/361/291 294/362/294 293/363/293 
f 291/361/291 292/364/292 295/365/295 294/362/294 
f 292/364/292 56/65/56 60/68/60 295/365/295 
f 55/66/55 288/352/288 61/355/61 59/67/59 
f 65/73/65 58/75/58 68/78/68 66/74/66 
f 57/76/57 293/366/293 296/367/296 67/77/67 
f 293/368/293 294/369/294 297/370/297 296/371/296 
f 294/369/294 295/372/295 298/373/298 297/370/297 
f 295/372/295 60/79/60 70/82/70 298/373/298 
f 59/80/59 61/69/61 64/72/64 69/81/69 
usemtl Material__165
f 64/374/64 63/375/63 32/32/32 31/31/31 
f 63/375/63 66/376/66 40/40/40 32/32/32 
f 66/376/66 68/83/68 39/39/39 40/40/40 
f 67/84/67 296/377/296 37/37/37 38/38/38 
f 296/377/296 297/378/297 36/36/36 37/37/37 
f 297/378/297 298/379/298 35/35/35 36/36/36 
f 298/379/298 70/85/70 34/34/34 35/35/35 
f 69/86/69 64/374/64 31/31/31 33/33/33 
usemtl Material__171
f 82/380/82 81/381/81 94/382/94 93/383/93 
f 81/381/81 71/87/71 74/90/74 94/382/94 
f 72/88/72 84/384/84 104/385/104 73/89/73 
f 84/384/84 86/386/86 102/387/102 104/385/104 
f 86/386/86 88/388/88 100/389/100 102/387/102 
f 88/390/88 75/91/75 78/94/78 100/391/100 
f 76/92/76 90/392/90 96/393/96 77/93/77 
f 90/392/90 82/380/82 93/383/93 96/393/96 
usemtl Material__165
s 8
f 92/394/92 91/395/91 3/396/3 2/397/2 
f 91/395/91 106/139/106 4/142/4 3/396/3 
f 105/140/105 103/398/103 6/399/6 5/141/5 
f 103/398/103 101/400/101 7/401/7 6/399/6 
f 101/400/101 99/402/99 8/403/8 7/401/7 
f 99/404/99 98/143/98 9/146/9 8/405/8 
f 97/144/97 95/406/95 11/407/11 10/145/10 
f 95/406/95 92/394/92 2/397/2 11/407/11 
s 1
f 276/332/276 275/331/275 299/408/299 300/409/300 
f 275/331/275 50/54/50 137/177/137 299/408/299 
f 138/178/138 49/53/49 285/343/285 301/410/301 
f 301/410/301 285/343/285 283/341/283 302/411/302 
f 283/341/283 281/339/281 303/412/303 302/411/302 
f 281/339/281 46/50/46 139/179/139 303/412/303 
f 140/413/140 45/337/45 279/335/279 304/414/304 
f 304/414/304 279/335/279 276/332/276 300/409/300 
usemtl Material__164
f 305/415/305 183/226/183 258/305/258 257/304/257 
f 257/304/257 196/239/196 242/288/242 241/287/241 
f 244/290/244 259/306/259 199/242/199 245/291/245 
f 242/288/242 260/307/260 259/306/259 306/416/306 
f 247/293/247 261/308/261 202/245/202 248/294/248 
f 245/291/245 262/309/262 261/308/261 307/417/307 
f 250/296/250 263/310/263 205/248/205 161/203/161 
f 308/418/308 248/294/248 264/311/264 263/310/263 
f 251/297/251 265/313/265 210/255/210 252/298/252 
f 22/419/22 266/314/266 265/313/265 309/420/309 
f 254/301/254 267/315/267 213/258/213 236/282/236 
f 310/421/310 252/298/252 268/316/268 267/315/267 
f 234/280/234 255/302/255 216/261/216 240/286/240 
f 236/282/236 256/303/256 255/302/255 233/279/233 
usemtl Material__167
f 234/280/234 240/286/240 239/285/239 235/281/235 
f 310/421/310 254/301/254 253/299/253 252/298/252 
f 309/420/309 251/297/251 23/300/23 22/419/22 
f 160/202/160 21/21/21 20/20/20 161/203/161 
f 308/418/308 250/296/250 249/295/249 248/294/248 
f 307/417/307 247/293/247 246/292/246 245/291/245 
f 306/416/306 244/290/244 243/289/243 242/288/242 
f 305/415/305 241/287/241 192/235/192 183/226/183 
usemtl Material__164
f 238/284/238 311/422/311 26/26/26 187/230/187 
f 240/286/240 312/423/312 311/422/311 237/283/237 
usemtl Material__167
f 238/284/238 187/230/187 193/236/193 239/285/239 
f 312/423/312 215/260/215 214/259/214 24/24/24 
f 311/422/311 312/423/312 24/24/24 26/26/26 
f 185/228/185 188/231/188 27/27/27 29/29/29 
f 28/28/28 27/27/27 194/237/194 258/305/258 
f 195/238/195 194/237/194 197/240/197 260/307/260 
f 262/309/262 198/241/198 197/240/197 200/243/200 
f 264/311/264 201/244/201 200/243/200 203/246/203 
f 207/251/207 206/250/206 208/253/208 266/314/266 
f 209/254/209 208/253/208 211/256/211 268/316/268 
f 256/303/256 212/257/212 211/256/211 214/259/214 
usemtl Material__166
s 2
f 217/424/217 220/425/220 235/426/235 239/427/239 
f 220/425/220 230/428/230 253/429/253 235/426/235 
f 230/428/230 232/430/232 23/431/23 253/429/253 
f 232/430/232 229/432/229 20/433/20 23/431/23 
f 229/432/229 227/434/227 249/435/249 20/433/20 
f 227/436/227 225/437/225 246/438/246 249/439/249 
f 225/437/225 222/440/222 243/441/243 246/438/246 
f 222/440/222 224/442/224 192/443/192 243/441/243 
f 224/442/224 221/444/221 193/445/193 192/443/192 
f 221/444/221 217/424/217 239/427/239 193/445/193 
f 174/446/174 135/447/135 212/448/212 256/449/256 
f 135/447/135 134/450/134 213/451/213 212/448/212 
s off
f 134/452/134 136/453/136 236/454/236 213/455/213 
f 136/453/136 174/456/174 256/457/256 236/454/236 
s 2
f 178/458/178 108/459/108 215/460/215 312/461/312 
f 108/459/108 107/462/107 216/463/216 215/460/215 
s off
f 107/464/107 109/465/109 240/466/240 216/467/216 
f 109/465/109 178/468/178 312/469/312 240/466/240 
s 2
f 182/470/182 111/471/111 25/472/25 188/473/188 
f 111/471/111 110/474/110 26/475/26 25/472/25 
s off
f 110/476/110 112/477/112 187/478/187 26/479/26 
f 112/477/112 182/480/182 188/481/188 187/478/187 
s 2
f 144/482/144 114/483/114 28/484/28 258/485/258 
f 114/483/114 113/486/113 29/487/29 28/484/28 
s off
f 113/488/113 115/489/115 183/490/183 29/491/29 
f 115/489/115 144/492/144 258/493/258 183/490/183 
s 2
f 145/494/145 142/495/142 195/496/195 260/497/260 
f 142/495/142 141/498/141 196/499/196 195/496/195 
s off
f 141/500/141 143/501/143 242/502/242 196/503/196 
f 143/501/143 145/504/145 260/505/260 242/502/242 
s 2
f 149/506/149 120/507/120 198/508/198 262/509/262 
f 120/507/120 119/510/119 199/511/199 198/508/198 
s off
f 119/512/119 121/513/121 245/514/245 199/515/199 
f 121/513/121 149/516/149 262/517/262 245/514/245 
s 2
f 153/518/153 123/519/123 201/520/201 264/521/264 
f 123/519/123 122/522/122 202/523/202 201/520/201 
s off
f 122/524/122 124/525/124 248/526/248 202/527/202 
f 124/525/124 153/528/153 264/529/264 248/526/248 
s 2
f 157/530/157 126/531/126 204/532/204 162/533/162 
f 126/531/126 125/534/125 205/535/205 204/532/204 
s off
f 125/165/125 127/167/127 161/536/161 205/537/205 
f 127/538/127 157/539/157 162/540/162 161/541/161 
s 2
f 166/542/166 129/543/129 207/544/207 266/545/266 
f 129/543/129 128/546/128 159/547/159 207/544/207 
s off
f 128/548/128 130/549/130 22/550/22 159/551/159 
f 130/549/130 166/552/166 266/553/266 22/550/22 
s 2
f 170/554/170 132/555/132 209/556/209 268/557/268 
f 132/555/132 131/558/131 210/559/210 209/556/209 
s off
f 131/560/131 133/561/133 252/562/252 210/563/210 
f 133/561/133 170/564/170 268/565/268 252/562/252 
s 2
f 300/566/300 299/567/299 214/568/214 211/569/211 
f 299/567/299 137/570/137 24/571/24 214/568/214 
f 137/570/137 138/572/138 27/573/27 24/571/24 
f 138/572/138 301/574/301 194/575/194 27/573/27 
f 301/574/301 302/576/302 197/577/197 194/575/194 
f 302/576/302 303/578/303 200/579/200 197/577/197 
f 303/580/303 139/581/139 203/582/203 200/583/200 
f 139/581/139 140/584/140 206/585/206 203/582/203 
f 140/584/140 304/586/304 208/587/208 206/585/206 
f 304/586/304 300/566/300 211/569/211 208/587/208 
s off
f 118/588/118 117/589/117 241/590/241 305/591/305 
f 117/592/117 116/593/116 257/594/257 241/595/241 
f 116/593/116 118/596/118 305/597/305 257/594/257 
f 147/598/147 146/599/146 259/600/259 244/601/244 
f 146/599/146 148/602/148 306/603/306 259/600/259 
f 148/604/148 147/605/147 244/606/244 306/607/306 
f 151/608/151 150/609/150 261/610/261 247/611/247 
f 150/609/150 152/612/152 307/613/307 261/610/261 
f 152/614/152 151/615/151 247/616/247 307/617/307 
f 155/618/155 154/619/154 263/620/263 250/621/250 
f 154/619/154 156/622/156 308/623/308 263/620/263 
f 156/624/156 155/625/155 250/626/250 308/627/308 
f 164/628/164 163/629/163 158/630/158 21/631/21 
f 163/629/163 165/632/165 160/633/160 158/630/158 
f 165/634/165 164/635/164 21/636/21 160/637/160 
f 167/638/167 169/639/169 265/640/265 251/641/251 
f 169/639/169 168/642/168 309/643/309 265/640/265 
f 168/644/168 167/645/167 251/646/251 309/647/309 
f 172/648/172 171/649/171 267/650/267 254/651/254 
f 171/649/171 173/652/173 310/653/310 267/650/267 
f 173/654/173 172/655/172 254/656/254 310/657/310 
f 176/658/176 175/659/175 255/660/255 234/661/234 
f 175/659/175 177/662/177 233/663/233 255/660/255 
f 177/664/177 176/665/176 234/666/234 233/667/233 
f 180/668/180 179/669/179 311/670/311 238/671/238 
f 179/669/179 181/672/181 237/673/237 311/670/311 
f 181/674/181 180/675/180 238/676/238 237/677/237 
f 190/678/190 189/679/189 185/680/185 184/681/184 
f 189/679/189 191/682/191 186/683/186 185/680/185 
f 191/684/191 190/685/190 184/686/184 186/687/186 
usemtl Material__165
s 1
f 13/13/13 221/266/221 224/269/224 14/14/14 
f 17/17/17 229/274/229 232/688/232 18/18/18 
f 218/263/218 270/689/270 269/690/269 219/264/219 
f 13/13/13 12/12/12 270/689/270 218/263/218 
f 223/268/223 271/691/271 15/15/15 14/14/14 
f 226/271/226 272/692/272 271/691/271 223/268/223 
f 228/273/228 273/693/273 272/692/272 226/271/226 
f 17/17/17 16/16/16 273/693/273 228/273/228 
f 231/276/231 274/694/274 19/695/19 18/277/18 
f 219/264/219 269/690/269 274/694/274 231/276/231 
# 280 polygons - 60 triangles

