# 3ds Max Wavefront OBJ Exporter v0.99 - (c)2007 guruware
# File Created: 25.05.2026 23:54:24

mtllib jarronarreglado.mtl

#
# object Sphere002
#

v  481.2819 201.9498 -937.1615
v  478.6992 220.6357 -1053.2887
v  411.8896 220.6354 -1031.7828
v  370.5989 220.6347 -975.4802
v  370.5989 220.6343 -905.8860
v  411.8895 220.6355 -849.5834
v  478.6992 220.6355 -828.0776
v  545.5089 220.6353 -847.5881
v  586.7997 220.6353 -907.8814
v  586.7996 220.6350 -975.4802
v  545.5087 220.6354 -1031.7828
v  318.3747 201.8361 -989.4088
v  181.4446 54.8602 -1032.4385
v  181.4446 54.8602 -841.8845
v  318.3748 201.8362 -884.9141
v  644.1891 201.8361 -884.9141
v  781.1193 54.8601 -841.8846
v  781.1193 54.8600 -1032.4387
v  644.1889 201.8360 -989.4089
v  790.7599 54.8601 -838.8024
v  794.8975 8.9947 -1007.1753
v  794.8975 8.9947 -1036.6047
v  790.7599 54.8601 -1035.4867
v  171.5783 -189.2690 -1034.0696
v  157.8084 -153.3586 -1039.5178
v  205.0046 -153.3586 -1103.0132
v  171.5782 -189.2691 -840.2190
v  157.8083 -153.3586 -834.7707
v  157.8084 -153.3586 -906.7255
v  481.2816 -701.4232 -932.1969
v  430.2426 -688.5013 -999.9084
v  481.2816 -688.4880 -1016.2244
v  398.6981 -688.5062 -960.3491
v  398.6981 -688.5062 -910.0156
v  430.2426 -688.5013 -868.1339
v  481.2816 -688.4879 -853.3425
v  532.3207 -688.5014 -868.1338
v  563.8654 -688.5063 -910.0158
v  563.8652 -688.5063 -960.3492
v  532.3207 -688.5014 -999.9085
v  334.1022 286.8867 -889.6459
v  334.1022 286.8870 -984.6770
v  628.4615 286.8868 -984.6771
v  628.4617 286.8870 -889.6460
v  708.6825 -384.8160 -1002.3225
v  708.6826 -384.8159 -872.0008
v  626.5765 -593.0127 -894.8083
v  626.5765 -593.0128 -979.9667
v  253.8814 -384.8160 -872.0009
v  253.8813 -384.8159 -1002.3224
v  335.9869 -593.0127 -979.9667
v  335.9870 -593.0128 -894.8082
v  602.7127 -656.5277 -900.2433
v  602.7126 -656.5277 -975.1027
v  359.8510 -656.5278 -975.1027
v  359.8508 -656.5277 -900.2432
v  575.0782 -662.4171 -908.0731
v  575.0782 -662.4171 -965.7842
v  387.4853 -662.4170 -965.7841
v  387.4854 -662.4171 -908.0732
v  423.3137 -662.3994 -1011.4558
v  481.2816 -662.3617 -1030.2123
v  481.2816 -683.6617 -1030.9534
v  422.3736 -683.6855 -1011.8878
v  539.2495 -662.3994 -1011.4558
v  540.1899 -683.6855 -1011.8879
v  576.5988 -683.6967 -907.7878
v  576.5988 -683.6967 -965.9906
v  385.9648 -683.6966 -965.9906
v  385.9648 -683.6967 -907.7880
v  302.5206 286.8730 -994.8727
v  302.5207 286.8732 -879.4502
v  311.0503 350.8621 -881.8499
v  311.0503 350.8621 -992.4731
v  660.0433 286.8733 -879.4502
v  660.0432 286.8732 -994.8730
v  651.5134 350.8618 -992.4731
v  651.5135 350.8618 -881.8500
v  481.2818 286.8881 -1090.9250
v  390.3199 286.8875 -1061.5588
v  370.8013 286.8743 -1088.2520
v  481.2819 286.8756 -1123.9198
v  390.3199 286.8879 -812.7642
v  370.8014 286.8740 -786.0710
v  481.2819 286.8882 -783.3977
v  481.2818 286.8752 -750.4034
v  572.2438 286.8878 -812.7640
v  591.7625 286.8745 -786.0710
v  572.2437 286.8876 -1061.5588
v  591.7623 286.8746 -1088.2521
v  394.6601 350.8615 -1056.3862
v  481.2819 350.8618 -1084.5314
v  481.2818 350.8617 -1116.1536
v  376.0730 350.8617 -1081.9691
v  567.9036 350.8618 -1056.3862
v  586.4907 350.8618 -1081.9692
v  621.4390 350.8618 -982.7015
v  621.4390 350.8619 -891.6217
v  567.9038 350.8616 -817.9367
v  586.4907 350.8616 -792.3538
v  481.2818 350.8615 -789.7915
v  481.2819 350.8615 -758.1693
v  394.6600 350.8621 -817.9368
v  376.0729 350.8616 -792.3538
v  341.1248 350.8619 -891.6216
v  341.1248 350.8616 -982.7013
v  355.4129 -153.3584 -1218.3735
v  287.1813 -153.3585 -1196.8256
v  293.4946 8.9948 -1189.4357
v  213.6207 -153.3586 -1097.8607
v  167.8955 -153.3586 -1036.3442
v  177.4357 8.9944 -1033.5216
v  167.8954 -153.3586 -907.6908
v  167.8954 -153.3586 -837.9786
v  177.4357 8.9947 -840.8011
v  225.7970 -153.3586 -760.0809
v  278.2314 8.9947 -705.3916
v  195.4505 8.9947 -816.6000
v  410.7511 -153.3585 -638.4734
v  481.2819 -153.3585 -616.1993
v  481.2820 8.9949 -625.3330
v  607.6593 -153.3585 -656.1101
v  675.3826 -153.3585 -677.4977
v  669.0692 8.9946 -684.8870
v  752.8423 -153.3584 -781.7080
v  794.6685 -153.3583 -837.9789
v  785.1283 8.9948 -840.8013
v  794.6683 -153.3584 -967.1085
v  794.6683 -153.3585 -1036.3445
v  785.1279 8.9947 -1033.5220
v  718.0945 -153.3585 -1139.3627
v  675.3823 -153.3585 -1196.8254
v  669.0691 8.9948 -1189.4363
v  544.1570 -153.3584 -1238.2673
v  481.2819 -153.3583 -1258.1239
v  481.2819 8.9949 -1248.9901
v  181.2361 -189.2690 -1031.0658
v  181.2361 -189.2691 -843.2571
v  781.3279 -189.2688 -843.2573
v  781.3277 -189.2689 -1031.0659
v  242.9704 -153.3585 -736.9766
v  287.1812 -153.3585 -677.4977
v  293.4945 8.9947 -684.8870
v  209.9129 -153.3586 -781.4504
v  354.4032 -153.3585 -656.2684
v  383.5822 -153.3585 -647.0535
v  453.2392 8.9948 -634.2264
v  323.0580 8.9947 -675.5114
v  545.8207 -153.3585 -636.5811
v  576.1783 -153.3585 -646.1682
v  646.1320 8.9947 -677.6128
v  506.7734 8.9948 -633.4172
v  719.3416 -153.3584 -736.6378
v  735.8103 -153.3584 -758.7941
v  767.5559 8.9947 -817.1945
v  686.3264 8.9946 -708.0704
v  794.6685 -153.3584 -910.9011
v  804.7449 -153.3584 -938.5294
v  804.7449 -153.3584 -968.0547
v  794.8978 8.9947 -866.7428
v  794.8979 8.9948 -837.6842
v  804.7449 -153.3584 -910.0391
v  794.6684 -153.3584 -938.5034
v  785.1279 8.9947 -1005.0098
v  785.1282 8.9947 -868.9542
v  751.8939 -153.3585 -1093.8907
v  685.1732 8.9948 -1167.8019
v  767.9241 8.9947 -1056.6338
v  735.2753 -153.3585 -1116.2485
v  600.1390 -153.3584 -1220.5879
v  570.8067 -153.3584 -1229.8512
v  515.5692 8.9949 -1238.1165
v  638.1094 8.9948 -1199.2546
v  413.7866 -153.3584 -1236.8083
v  383.1319 -153.3584 -1227.1274
v  322.4462 8.9948 -1198.6173
v  456.3681 8.9949 -1241.0890
v  252.7178 -153.3586 -1150.4600
v  233.1596 -153.3586 -1124.1475
v  200.3199 8.9945 -1064.2644
v  275.7612 8.9947 -1165.6125
v  167.8954 -153.3586 -964.1076
v  167.6556 8.9947 -837.6841
v  167.6556 8.9946 -874.7952
v  157.8084 -153.3586 -939.6655
v  167.6556 8.9944 -999.5563
v  167.6556 8.9944 -1036.6044
v  157.8084 -153.3586 -964.9573
v  167.8954 -153.3586 -939.6041
v  177.4357 8.9946 -876.7557
v  177.4357 8.9944 -997.6283
v  171.7935 54.8602 -838.8022
v  171.7935 54.8602 -1035.4865
v  289.2401 -189.2689 -683.3908
v  280.9317 -153.3585 -669.1270
v  235.2986 -153.3585 -730.5193
v  481.2766 -189.2689 -623.4877
v  481.2766 -153.3585 -605.8566
v  408.4768 -153.3585 -628.8474
v  673.3132 -189.2690 -683.3908
v  681.6216 -153.3585 -669.1270
v  611.7197 -153.3585 -647.0515
v  790.9752 -189.2688 -840.2192
v  804.7450 -153.3583 -834.7709
v  761.5732 -153.3584 -776.6898
v  790.9750 -189.2689 -1034.0697
v  804.7448 -153.3585 -1039.5181
v  673.3129 -189.2690 -1190.8979
v  681.6213 -153.3585 -1205.1617
v  725.7076 -153.3585 -1145.8503
v  481.2766 -189.2688 -1250.8011
v  481.2766 -153.3583 -1268.4321
v  546.1744 -153.3584 -1247.9369
v  289.2402 -189.2690 -1190.8981
v  280.9318 -153.3585 -1205.1619
v  351.3584 -153.3584 -1227.4031
v  295.9723 54.8601 -1186.6001
v  380.5998 201.8361 -1073.9471
v  481.2819 201.8361 -1106.2378
v  481.2820 54.8600 -1245.4844
v  295.9722 54.8599 -687.7231
v  380.5997 201.8356 -800.3758
v  481.2819 54.8599 -628.8386
v  481.2819 201.8360 -768.0851
v  666.5916 54.8600 -687.7231
v  581.9641 201.8362 -800.3759
v  666.5916 54.8600 -1186.6002
v  581.9639 201.8361 -1073.9471
v  455.5613 8.9949 -1250.8492
v  317.3311 8.9948 -1207.0114
v  481.2767 54.8601 -1255.3861
v  481.2766 8.9949 -1259.0046
v  269.1443 8.9947 -1172.9448
v  191.2760 8.9945 -1068.3362
v  290.0056 54.8601 -1194.6074
v  287.4482 8.9948 -1197.5343
v  271.6939 8.9947 -697.9183
v  287.4481 8.9947 -676.7541
v  290.0055 54.8599 -679.6814
v  452.3318 8.9948 -624.4637
v  481.2767 8.9949 -615.2842
v  481.2766 54.8599 -618.9026
v  651.4301 8.9947 -669.2458
v  675.1051 8.9946 -676.7541
v  672.5479 54.8600 -679.6814
v  776.7602 8.9947 -813.3180
v  691.7272 8.9948 -1175.2046
v  675.1050 8.9948 -1197.5349
v  672.5477 54.8600 -1194.6075
v  516.6669 8.9949 -1247.7811
v  379.9691 -153.3584 -1236.4386
v  411.6100 -153.3584 -1246.4309
v  217.5726 -153.3586 -754.3669
v  201.1776 -153.3586 -776.4240
v  380.4339 -153.3585 -637.7035
v  350.3162 -153.3585 -647.2148
v  579.2259 -153.3585 -636.7897
v  547.8916 -153.3585 -626.8941
v  743.9933 -153.3584 -753.0387
v  726.9948 -153.3584 -730.1697
v  743.4411 -153.3585 -1121.9927
v  760.5944 -153.3585 -1098.9156
v  573.6815 -153.3584 -1239.2500
v  603.9575 -153.3584 -1229.6886
v  339.0634 -384.8159 -1107.7549
v  481.2819 -384.8160 -1148.0264
v  481.2818 -592.8748 -1075.3329
v  391.4901 -592.9382 -1048.6394
v  623.5001 -384.8160 -1107.7549
v  571.0732 -592.9382 -1048.6394
v  623.5004 -384.8160 -766.5684
v  571.0737 -592.9382 -825.7013
v  481.2818 -384.8160 -726.2967
v  481.2818 -592.8748 -799.7733
v  339.0632 -384.8160 -766.5684
v  391.4901 -592.9382 -825.7013
v  481.2816 -656.4454 -1058.9409
v  406.2361 -656.4940 -1034.7463
v  556.3273 -656.4941 -1034.7463
v  556.3275 -656.4940 -838.7648
v  481.2817 -656.4455 -816.6998
v  406.2361 -656.4940 -838.7646
v  539.2498 -662.3994 -860.3671
v  481.2816 -662.3617 -843.4592
v  423.3138 -662.3995 -860.3670
v  540.1899 -683.6855 -859.5118
v  481.2817 -683.6617 -842.6081
v  422.3734 -683.6855 -859.5117
v  295.2308 -189.2690 -1183.0063
v  481.2819 -189.2688 -1241.0424
v  295.2307 -189.2689 -691.3169
v  481.2819 -189.2689 -633.2808
v  667.3331 -189.2690 -691.3169
v  667.3329 -189.2690 -1183.0062
v  186.2499 8.9947 -812.7043
v  317.9626 8.9947 -667.0768
v  507.5882 8.9948 -623.6285
v  692.9174 8.9946 -700.6832
v  777.1401 8.9947 -1060.4601
v  643.1493 8.9948 -1207.6692
v  225.1721 -153.3586 -1130.1456
v  245.3595 -153.3586 -1157.3047
# 302 vertices

vn -0.0038 1.0000 -0.0051
vn 0.0029 0.6827 0.7307
vn 0.4294 0.6797 0.5947
vn 0.6963 0.6797 0.2307
vn 0.6942 0.6847 -0.2220
vn 0.4260 0.6925 -0.5821
vn 0.0128 0.7003 -0.7138
vn -0.4233 0.6915 -0.5854
vn -0.6846 0.6991 -0.2063
vn -0.6858 0.6908 0.2291
vn -0.4219 0.6865 0.5922
vn -0.8287 0.4889 -0.2726
vn -0.3015 0.9483 -0.0991
vn -0.3015 0.9483 0.0991
vn -0.8287 0.4889 0.2726
vn 0.8287 0.4889 0.2726
vn 0.3015 0.9483 0.0991
vn 0.3015 0.9483 -0.0991
vn 0.8287 0.4889 -0.2726
vn 0.6983 0.6772 0.2318
vn 0.9668 -0.0621 0.2477
vn 0.9382 -0.1469 -0.3133
vn 0.6983 0.6771 -0.2321
vn -0.5944 -0.7805 -0.1937
vn -0.8260 0.4909 -0.2770
vn -0.9382 -0.0070 -0.3460
vn -0.5944 -0.7802 0.1950
vn -0.8260 0.4909 0.2770
vn -0.9583 0.0098 0.2856
vn -0.0000 -1.0000 0.0046
vn -0.1433 -0.9681 -0.2057
vn -0.0000 -0.9688 -0.2477
vn -0.2440 -0.9664 -0.0806
vn -0.2567 -0.9619 0.0941
vn -0.1614 -0.9554 0.2474
vn -0.0000 -0.9509 0.3094
vn 0.1614 -0.9554 0.2474
vn 0.2567 -0.9619 0.0941
vn 0.2440 -0.9664 -0.0806
vn 0.1433 -0.9681 -0.2057
vn -0.6568 -0.7227 0.2152
vn -0.6568 -0.7227 -0.2152
vn 0.6568 -0.7227 -0.2152
vn 0.6568 -0.7227 0.2152
vn 0.8757 -0.3739 -0.3054
vn 0.8756 -0.3742 0.3055
vn 0.8769 -0.3687 0.3084
vn 0.8771 -0.3672 -0.3095
vn -0.8756 -0.3742 0.3055
vn -0.8757 -0.3739 -0.3054
vn -0.8771 -0.3672 -0.3095
vn -0.8769 -0.3687 0.3084
vn 0.6600 -0.7167 0.2255
vn 0.6587 -0.7155 -0.2328
vn -0.6587 -0.7155 -0.2328
vn -0.6600 -0.7167 0.2255
vn 0.6973 -0.6768 0.2361
vn 0.6910 -0.6814 -0.2410
vn -0.6910 -0.6814 -0.2410
vn -0.6973 -0.6768 0.2361
vn -0.4155 -0.6817 -0.6022
vn 0.0000 -0.6878 -0.7259
vn -0.0000 -0.5230 -0.8523
vn -0.4887 -0.5201 -0.7005
vn 0.4155 -0.6817 -0.6023
vn 0.4887 -0.5201 -0.7005
vn 0.8280 -0.4909 0.2711
vn 0.8181 -0.4992 -0.2855
vn -0.8181 -0.4992 -0.2855
vn -0.8280 -0.4909 0.2711
vn -0.7668 -0.5914 -0.2495
vn -0.7668 -0.5914 0.2495
vn -0.6843 0.6942 0.2232
vn -0.6843 0.6942 -0.2232
vn 0.7668 -0.5914 0.2495
vn 0.7668 -0.5914 -0.2495
vn 0.6843 0.6942 -0.2232
vn 0.6843 0.6942 0.2232
vn 0.0000 -0.7260 -0.6877
vn -0.4028 -0.7247 -0.5590
vn -0.4716 -0.5957 -0.6502
vn 0.0000 -0.5984 -0.8012
vn -0.4028 -0.7248 0.5590
vn -0.4716 -0.5957 0.6501
vn -0.0000 -0.7260 0.6877
vn 0.0000 -0.5984 0.8012
vn 0.4028 -0.7247 0.5590
vn 0.4716 -0.5957 0.6502
vn 0.4028 -0.7247 -0.5590
vn 0.4716 -0.5957 -0.6502
vn 0.3137 0.8453 0.4325
vn -0.0019 0.8475 0.5308
vn -0.0000 0.6882 -0.7255
vn -0.4241 0.6905 -0.5860
vn -0.3111 0.8507 0.4237
vn 0.4241 0.6905 -0.5860
vn -0.4952 0.8543 0.1580
vn -0.4859 0.8590 -0.1613
vn -0.3027 0.8576 -0.4158
vn 0.4241 0.6905 0.5860
vn -0.0018 0.8595 -0.5112
vn 0.0000 0.6882 0.7255
vn 0.3019 0.8553 -0.4211
vn -0.4241 0.6905 0.5860
vn 0.5006 0.8496 -0.1660
vn 0.5080 0.8457 0.1633
vn -0.8483 0.4585 -0.2649
vn -0.3479 0.8008 -0.4876
vn -0.3036 -0.8381 -0.4533
vn -0.8471 0.4504 0.2821
vn -0.5660 0.8029 -0.1871
vn -0.5163 -0.8390 -0.1716
vn -0.5140 0.4625 0.7224
vn -0.5660 0.8029 0.1871
vn -0.5189 -0.8386 0.1656
vn -0.4115 0.8542 0.3180
vn -0.8813 -0.4561 -0.1236
vn -0.1563 -0.4773 0.8647
vn 0.5308 0.4558 0.7145
vn 0.0000 0.7981 0.6025
vn -0.0145 -0.8392 0.5436
vn 0.8475 0.4595 0.2655
vn 0.3479 0.8008 0.4876
vn 0.3323 -0.8387 0.4314
vn 0.8415 0.4607 -0.2820
vn 0.5660 0.8029 0.1871
vn 0.5211 -0.8387 0.1581
vn 0.5146 0.4635 -0.7213
vn 0.5660 0.8029 -0.1871
vn 0.5181 -0.8387 -0.1679
vn -0.0082 0.4605 -0.8876
vn 0.3479 0.8008 -0.4876
vn 0.3148 -0.8392 -0.4435
vn -0.5301 0.4681 -0.7070
vn 0.0000 0.7981 -0.6025
vn -0.0114 -0.8390 -0.5440
vn -0.4474 -0.8815 -0.1510
vn -0.4474 -0.8815 0.1510
vn 0.4474 -0.8815 0.1510
vn 0.4474 -0.8815 -0.1510
vn 0.0078 0.4565 0.8897
vn -0.3479 0.8008 0.4876
vn -0.3344 -0.8387 0.4298
vn -0.8418 0.4602 -0.2822
vn -0.8474 0.4603 0.2647
vn -0.1577 0.8534 0.4968
vn -0.7811 -0.4648 0.4169
vn 0.3838 -0.4733 0.7929
vn -0.5306 0.4653 0.7085
vn 0.1742 0.8524 0.4930
vn -0.3876 -0.4599 0.7989
vn 0.7784 -0.4662 0.4205
vn -0.0084 0.4571 0.8894
vn 0.4189 0.8545 0.3071
vn 0.1550 -0.4738 0.8669
vn 0.8779 -0.4629 -0.1224
vn 0.5166 0.4576 0.7237
vn 0.9662 0.2579 0.0020
vn 0.9583 0.0102 -0.2857
vn 0.9680 -0.0574 -0.2444
vn 0.9388 -0.1499 0.3101
vn 0.9595 0.0033 0.2817
vn 0.5191 0.8547 0.0055
vn 0.6360 -0.4702 0.6119
vn 0.6368 -0.4658 -0.6144
vn 0.8427 0.4580 0.2830
vn 0.8786 -0.4616 0.1219
vn 0.1558 -0.4719 -0.8678
vn 0.4198 0.8543 -0.3065
vn 0.8524 0.4475 -0.2706
vn 0.1917 0.8532 -0.4851
vn 0.7668 -0.4871 -0.4179
vn -0.3946 -0.4617 -0.7945
vn 0.5303 0.4607 -0.7117
vn -0.1516 0.8530 -0.4994
vn 0.3824 -0.4734 -0.7935
vn -0.7831 -0.4599 -0.4187
vn 0.0136 0.4820 -0.8760
vn -0.4265 0.8551 -0.2948
vn -0.1431 -0.4684 -0.8718
vn -0.8697 -0.4808 0.1112
vn -0.5172 0.4590 -0.7224
vn -0.9388 -0.1458 0.3121
vn -0.9646 -0.0704 -0.2542
vn -0.7831 -0.6219 0.0058
vn -0.9628 -0.0779 0.2589
vn -0.9362 -0.1579 -0.3140
vn -0.9594 0.0041 -0.2821
vn -0.5170 0.8559 0.0080
vn -0.6311 -0.4741 -0.6139
vn -0.6310 -0.4815 0.6083
vn -0.6983 0.6771 0.2321
vn -0.6983 0.6772 -0.2318
vn -0.3559 -0.7937 0.4933
vn -0.5052 0.4765 0.7196
vn -0.6039 -0.0232 0.7968
vn -0.0010 -0.8039 0.5948
vn -0.0000 0.4668 0.8844
vn -0.0168 -0.0445 0.9989
vn 0.3551 -0.7943 0.4928
vn 0.5052 0.4765 0.7196
vn 0.5664 -0.0218 0.8238
vn 0.5943 -0.7805 0.1937
vn 0.8260 0.4909 0.2770
vn 0.9409 0.0057 0.3388
vn 0.5944 -0.7802 -0.1950
vn 0.8260 0.4909 -0.2770
vn 0.3559 -0.7937 -0.4933
vn 0.5052 0.4765 -0.7196
vn 0.6015 -0.0186 -0.7986
vn 0.0010 -0.8039 -0.5948
vn 0.0000 0.4668 -0.8844
vn 0.0064 -0.0283 -0.9996
vn -0.3551 -0.7943 -0.4928
vn -0.5052 0.4765 -0.7196
vn -0.5661 -0.0225 -0.8240
vn -0.1882 0.9465 -0.2622
vn -0.5113 0.4805 -0.7125
vn 0.0000 0.4754 -0.8798
vn 0.0000 0.9453 -0.3261
vn -0.1882 0.9465 0.2622
vn -0.5113 0.4805 0.7125
vn -0.0000 0.9453 0.3261
vn -0.0000 0.4754 0.8798
vn 0.1882 0.9465 0.2622
vn 0.5113 0.4805 0.7125
vn 0.1882 0.9465 -0.2622
vn 0.5113 0.4805 -0.7125
vn -0.5210 -0.0618 -0.8513
vn -0.0605 -0.0691 -0.9958
vn 0.0002 0.6741 -0.7387
vn -0.0026 -0.1503 -0.9886
vn -0.9262 -0.0810 -0.3682
vn -0.6283 -0.0653 -0.7752
vn -0.4272 0.6753 -0.6013
vn -0.5679 -0.1350 -0.8120
vn -0.9212 -0.0541 0.3853
vn -0.5736 -0.1576 0.8038
vn -0.4273 0.6752 0.6013
vn -0.5253 -0.0667 0.8483
vn -0.0034 -0.1573 0.9875
vn -0.0002 0.6741 0.7387
vn 0.0723 -0.0546 0.9959
vn 0.5733 -0.1578 0.8040
vn 0.4272 0.6753 0.6013
vn 0.6303 -0.0639 0.7737
vn 0.9226 -0.0599 -0.3810
vn 0.5677 -0.1655 -0.8064
vn 0.4273 0.6752 -0.6013
vn 0.5388 -0.0913 -0.8375
vn -0.2026 -0.6932 -0.6917
vn -0.0140 -0.0288 -0.9995
vn -0.6351 -0.5918 0.4964
vn -0.9412 -0.0072 0.3377
vn -0.2966 0.0015 0.9550
vn -0.5680 -0.0302 0.8225
vn 0.2753 -0.4338 0.8579
vn 0.0098 -0.0222 0.9997
vn 0.2255 0.9581 0.1764
vn 0.6046 -0.0101 0.7965
vn 0.7988 0.0262 -0.6010
vn 0.9408 -0.0094 -0.3389
vn 0.1488 0.8906 -0.4298
vn 0.5587 -0.0468 -0.8281
vn -0.5146 -0.3813 -0.7680
vn 0.0000 -0.3836 -0.9235
vn 0.0000 -0.2922 -0.9564
vn -0.5260 -0.3264 -0.7854
vn 0.5146 -0.3813 -0.7680
vn 0.5260 -0.3264 -0.7854
vn 0.5146 -0.3814 0.7680
vn 0.5254 -0.3219 0.7876
vn -0.0000 -0.3850 0.9229
vn -0.0000 -0.2974 0.9548
vn -0.5146 -0.3814 0.7680
vn -0.5254 -0.3219 0.7876
vn -0.0000 -0.6757 -0.7372
vn -0.4052 -0.6965 -0.5922
vn 0.4052 -0.6965 -0.5922
vn 0.4062 -0.6869 0.6027
vn 0.0000 -0.6778 0.7352
vn -0.4062 -0.6869 0.6027
vn 0.4147 -0.6774 0.6076
vn 0.0000 -0.6725 0.7401
vn -0.4147 -0.6774 0.6076
vn 0.5005 -0.4840 0.7178
vn 0.0000 -0.4864 0.8738
vn -0.5005 -0.4840 0.7178
vn -0.2630 -0.8879 -0.3775
vn 0.0000 -0.8917 -0.4527
vn -0.2630 -0.8879 0.3775
vn -0.0000 -0.8917 0.4527
vn 0.2630 -0.8879 0.3775
vn 0.2630 -0.8879 -0.3775
vn -0.6283 -0.0651 0.7753
vn -0.0597 -0.0686 0.9959
vn 0.5241 -0.0670 0.8490
vn 0.9230 -0.0641 0.3794
vn 0.6322 -0.0589 -0.7726
vn 0.0656 -0.0601 -0.9960
vn -0.8057 0.0204 -0.5920
vn -0.5890 0.0226 -0.8078
# 302 vertex normals

vt 0.8139 0.2313 0.0000
vt 0.8277 0.1909 0.0000
vt 0.8487 0.2059 0.0000
vt 0.8569 0.2302 0.0000
vt 0.8492 0.2545 0.0000
vt 0.8285 0.2697 0.0000
vt 0.8027 0.2698 0.0000
vt 0.7815 0.2555 0.0000
vt 0.7737 0.2298 0.0000
vt 0.7812 0.2062 0.0000
vt 0.8019 0.1910 0.0000
vt 0.7425 0.0010 -0.0744
vt 0.7423 0.0758 0.0805
vt 0.6910 0.0758 0.0805
vt 0.6908 0.0010 -0.0744
vt 0.4746 0.0010 -0.0744
vt 0.4744 0.0758 0.0805
vt 0.4231 0.0758 0.0805
vt 0.4228 0.0010 -0.0744
vt 0.7025 0.2788 0.0006
vt 0.7630 0.2623 -0.0003
vt 0.7731 0.2623 0.0020
vt 0.7731 0.2788 0.0006
vt 0.3344 0.1909 0.0006
vt 0.3340 0.2038 0.0051
vt 0.3069 0.2038 -0.0005
vt 0.4040 0.1909 0.0006
vt 0.4043 0.2038 0.0051
vt 0.3799 0.2038 0.0009
vt 0.4580 0.1437 0.0000
vt 0.4394 0.1189 0.0000
vt 0.4581 0.1130 0.0000
vt 0.4278 0.1333 0.0000
vt 0.4278 0.1517 0.0000
vt 0.4392 0.1670 0.0000
vt 0.4578 0.1725 0.0000
vt 0.4764 0.1672 0.0000
vt 0.4880 0.1520 0.0000
vt 0.4882 0.1337 0.0000
vt 0.4768 0.1191 0.0000
vt 0.6471 0.1068 0.0078
vt 0.6108 0.1068 0.0078
vt 0.6107 0.0764 -0.0046
vt 0.6472 0.0764 -0.0046
vt 0.4592 0.1068 0.0078
vt 0.4229 0.1068 0.0078
vt 0.4228 0.0764 -0.0046
vt 0.4594 0.0764 -0.0046
vt 0.0026 0.0743 0.0173
vt 0.0390 0.0743 0.0173
vt 0.0393 0.1585 -0.0547
vt 0.0021 0.1585 -0.0546
vt 0.2124 0.0743 0.0173
vt 0.2489 0.0743 0.0173
vt 0.2494 0.1585 -0.0546
vt 0.2121 0.1585 -0.0547
vt 0.0401 0.1903 -0.0754
vt 0.0010 0.1903 -0.0751
vt 0.2504 0.1903 -0.0751
vt 0.2114 0.1903 -0.0754
vt 0.0016 0.4127 0.0000
vt 0.0010 0.3854 0.0000
vt 0.0113 0.3881 0.0000
vt 0.0118 0.4091 0.0000
vt 0.0920 0.3864 0.0000
vt 0.0909 0.4136 0.0000
vt 0.0807 0.4098 0.0000
vt 0.0817 0.3888 0.0000
vt 0.7833 0.2793 0.0000
vt 0.8056 0.2793 0.0000
vt 0.8056 0.2871 0.0000
vt 0.7833 0.2871 0.0000
vt 0.8279 0.2793 0.0000
vt 0.8279 0.2871 0.0000
vt 0.8495 0.2793 0.0000
vt 0.8706 0.2793 0.0000
vt 0.8706 0.2871 0.0000
vt 0.8495 0.2871 0.0000
vt 0.7409 0.2793 0.0000
vt 0.7622 0.2793 0.0000
vt 0.7622 0.2871 0.0000
vt 0.7409 0.2871 0.0000
vt 0.4931 0.1316 0.0000
vt 0.4930 0.1530 0.0000
vt 0.4228 0.1526 0.0000
vt 0.4229 0.1312 0.0000
vt 0.1666 0.3526 0.0000
vt 0.1255 0.3526 0.0000
vt 0.1255 0.3291 0.0000
vt 0.1666 0.3291 0.0000
vt 0.3723 0.3526 0.0000
vt 0.3312 0.3526 0.0000
vt 0.3312 0.3291 0.0000
vt 0.3723 0.3291 0.0000
vt 0.5209 0.2916 0.0000
vt 0.4831 0.2916 0.0000
vt 0.4831 0.2793 0.0000
vt 0.5209 0.2793 0.0000
vt 0.4454 0.2916 0.0000
vt 0.4454 0.2793 0.0000
vt 0.4075 0.2916 0.0000
vt 0.4075 0.2793 0.0000
vt 0.3697 0.2916 0.0000
vt 0.3697 0.2793 0.0000
vt 0.3304 0.2916 0.0000
vt 0.3304 0.2793 0.0000
vt 0.2923 0.2916 0.0000
vt 0.2923 0.2793 0.0000
vt 0.6741 0.2916 0.0000
vt 0.6345 0.2916 0.0000
vt 0.6345 0.2793 0.0000
vt 0.6741 0.2793 0.0000
vt 0.5966 0.2916 0.0000
vt 0.5966 0.2793 0.0000
vt 0.5587 0.2916 0.0000
vt 0.5587 0.2793 0.0000
vt 0.6013 0.3291 0.0000
vt 0.6374 0.3291 0.0000
vt 0.6374 0.3406 0.0000
vt 0.6013 0.3406 0.0000
vt 0.6735 0.3291 0.0000
vt 0.6735 0.3406 0.0000
vt 0.7094 0.3291 0.0000
vt 0.7094 0.3406 0.0000
vt 0.7448 0.3291 0.0000
vt 0.7448 0.3406 0.0000
vt 0.7812 0.3291 0.0000
vt 0.7812 0.3406 0.0000
vt 0.4137 0.3291 0.0000
vt 0.4557 0.3291 0.0000
vt 0.4557 0.3406 0.0000
vt 0.4137 0.3406 0.0000
vt 0.4924 0.3291 0.0000
vt 0.4924 0.3406 0.0000
vt 0.5288 0.3291 0.0000
vt 0.5288 0.3406 0.0000
vt 0.5651 0.3291 0.0000
vt 0.5651 0.3406 0.0000
vt 0.1735 0.2793 0.0000
vt 0.2027 0.2793 0.0000
vt 0.2027 0.3286 0.0000
vt 0.1735 0.3286 0.0000
vt 0.0276 0.2793 0.0000
vt 0.0564 0.2793 0.0000
vt 0.0564 0.3286 0.0000
vt 0.0276 0.3286 0.0000
vt 0.7326 0.1074 0.0000
vt 0.7326 0.1334 0.0000
vt 0.6734 0.1319 0.0000
vt 0.9162 0.1909 0.0000
vt 0.9167 0.2188 0.0000
vt 0.8575 0.2185 0.0000
vt 0.0013 0.6038 0.0000
vt 0.0010 0.5785 0.0000
vt 0.0602 0.5789 0.0000
vt 0.2715 0.3755 0.0000
vt 0.2127 0.4036 0.0000
vt 0.2121 0.3532 0.0000
vt 0.1514 0.4085 0.0000
vt 0.1518 0.4354 0.0000
vt 0.0926 0.4352 0.0000
vt 0.0010 0.5523 0.0000
vt 0.0010 0.5265 0.0000
vt 0.0601 0.5278 0.0000
vt 0.0015 0.4957 0.0000
vt 0.0010 0.4702 0.0000
vt 0.0602 0.4704 0.0000
vt 0.5538 0.1586 0.0000
vt 0.5537 0.1334 0.0000
vt 0.6129 0.1342 0.0000
vt 0.0932 0.4079 0.0000
vt 0.0926 0.3819 0.0000
vt 0.1518 0.3813 0.0000
vt 0.1530 0.4560 0.0000
vt 0.1524 0.4321 0.0000
vt 0.2115 0.4315 0.0000
vt 0.2505 0.0010 0.0830
vt 0.2108 0.0010 0.0830
vt 0.0406 0.0010 0.0830
vt 0.0010 0.0010 0.0830
vt 0.2111 0.3532 0.0000
vt 0.2115 0.3801 0.0000
vt 0.1524 0.3803 0.0000
vt 0.0017 0.5529 0.0000
vt 0.2110 0.4058 0.0000
vt 0.0603 0.6282 0.0000
vt 0.0013 0.6541 0.0000
vt 0.0010 0.6044 0.0000
vt 0.1513 0.4600 0.0000
vt 0.4937 0.1358 0.0000
vt 0.5525 0.1074 0.0000
vt 0.5532 0.1605 0.0000
vt 0.0020 0.4997 0.0000
vt 0.2721 0.3773 0.0000
vt 0.3312 0.3532 0.0000
vt 0.3313 0.4026 0.0000
vt 0.0015 0.4437 0.0000
vt 0.0357 0.2623 0.0020
vt 0.0257 0.2623 -0.0003
vt 0.0010 0.2038 0.0005
vt 0.0114 0.2038 0.0009
vt 0.7125 0.2623 -0.0003
vt 0.7026 0.2623 0.0020
vt 0.7282 0.2038 0.0008
vt 0.7383 0.2038 0.0005
vt 0.2714 0.4292 0.0000
vt 0.2123 0.4537 0.0000
vt 0.2121 0.4042 0.0000
vt 0.5546 0.1074 0.0000
vt 0.6724 0.1074 0.0000
vt 0.6729 0.1578 0.0000
vt 0.6135 0.1339 0.0000
vt 0.0930 0.3532 0.0000
vt 0.0603 0.6811 0.0000
vt 0.0012 0.7014 0.0000
vt 0.0010 0.6547 0.0000
vt 0.1525 0.4063 0.0000
vt 0.9173 0.2144 0.0000
vt 0.9767 0.1909 0.0000
vt 0.9761 0.2420 0.0000
vt 0.7318 0.1544 0.0000
vt 0.2715 0.4749 0.0000
vt 0.2126 0.5002 0.0000
vt 0.2121 0.4542 0.0000
vt 0.9161 0.2451 0.0000
vt 0.4044 0.2623 0.0020
vt 0.3917 0.2623 -0.0008
vt 0.3683 0.2038 0.0005
vt 0.3466 0.2623 -0.0008
vt 0.3339 0.2623 0.0020
vt 0.3593 0.2038 0.0008
vt 0.3314 0.4246 0.0000
vt 0.2721 0.4472 0.0000
vt 0.2723 0.4032 0.0000
vt 0.4045 0.2788 0.0006
vt 0.3339 0.2788 0.0006
vt 0.4761 0.1909 -0.0026
vt 0.4768 0.2038 0.0024
vt 0.4498 0.2038 -0.0012
vt 0.5535 0.1909 -0.0049
vt 0.5535 0.2038 0.0005
vt 0.5256 0.2038 -0.0038
vt 0.6309 0.1909 -0.0026
vt 0.6302 0.2038 0.0024
vt 0.6041 0.2038 -0.0031
vt 0.7030 0.1909 0.0006
vt 0.7026 0.2038 0.0051
vt 0.6780 0.2038 -0.0003
vt 0.7726 0.1909 0.0006
vt 0.0353 0.1909 0.0006
vt 0.0357 0.2038 0.0051
vt 0.1075 0.1909 -0.0026
vt 0.1082 0.2038 0.0024
vt 0.0821 0.2038 -0.0012
vt 0.1848 0.1909 -0.0049
vt 0.1848 0.2038 0.0005
vt 0.1601 0.2038 -0.0036
vt 0.2622 0.1909 -0.0026
vt 0.2615 0.2038 0.0024
vt 0.2353 0.2038 -0.0031
vt 0.7951 0.0758 0.0719
vt 0.7955 0.0010 -0.0781
vt 0.8506 0.0010 -0.0804
vt 0.8506 0.0758 0.0665
vt 0.6381 0.0758 0.0719
vt 0.6378 0.0010 -0.0781
vt 0.5827 0.0758 0.0665
vt 0.5827 0.0010 -0.0805
vt 0.5272 0.0758 0.0719
vt 0.5276 0.0010 -0.0781
vt 0.9060 0.0758 0.0719
vt 0.9057 0.0010 -0.0781
vt 0.9586 0.0010 -0.0744
vt 0.9589 0.0758 0.0805
vt 0.1947 0.2623 -0.0045
vt 0.2501 0.2623 -0.0036
vt 0.1848 0.2788 -0.0035
vt 0.1848 0.2623 -0.0024
vt 0.2722 0.2623 -0.0027
vt 0.3204 0.2623 -0.0015
vt 0.2612 0.2788 -0.0019
vt 0.2613 0.2623 -0.0007
vt 0.4677 0.2623 -0.0025
vt 0.4771 0.2623 -0.0007
vt 0.4772 0.2788 -0.0019
vt 0.5424 0.2623 -0.0047
vt 0.5535 0.2623 -0.0024
vt 0.5535 0.2788 -0.0035
vt 0.6212 0.2623 -0.0031
vt 0.6299 0.2623 -0.0007
vt 0.6298 0.2788 -0.0019
vt 0.6922 0.2623 -0.0008
vt 0.0985 0.2623 -0.0026
vt 0.1084 0.2623 -0.0007
vt 0.1085 0.2788 -0.0019
vt 0.0358 0.2788 0.0006
vt 0.1712 0.2623 -0.0051
vt 0.2240 0.2038 -0.0039
vt 0.2114 0.2038 -0.0037
vt 0.4390 0.2038 -0.0011
vt 0.4291 0.2038 -0.0003
vt 0.5145 0.2038 -0.0039
vt 0.5026 0.2038 -0.0031
vt 0.5913 0.2038 -0.0039
vt 0.5789 0.2038 -0.0036
vt 0.6674 0.2038 -0.0011
vt 0.6570 0.2038 -0.0012
vt 0.7487 0.2038 0.0009
vt 0.0713 0.2038 -0.0011
vt 0.0609 0.2038 -0.0003
vt 0.1492 0.2038 -0.0040
vt 0.1372 0.2038 -0.0034
vt 0.7229 0.1068 0.0036
vt 0.6843 0.1068 0.0052
vt 0.6845 0.0764 -0.0066
vt 0.7229 0.0764 -0.0078
vt 0.5737 0.1068 0.0052
vt 0.5735 0.0764 -0.0066
vt 0.5350 0.1068 0.0035
vt 0.5350 0.0764 -0.0078
vt 0.4964 0.1068 0.0052
vt 0.4966 0.0764 -0.0066
vt 0.7987 0.1068 0.0078
vt 0.7615 0.1068 0.0052
vt 0.7613 0.0764 -0.0066
vt 0.7986 0.0764 -0.0046
vt 0.2884 0.0743 0.0028
vt 0.3356 0.0743 -0.0083
vt 0.3356 0.1585 -0.0684
vt 0.2895 0.1585 -0.0631
vt 0.3828 0.0743 0.0028
vt 0.3816 0.1585 -0.0631
vt 0.4223 0.0743 0.0173
vt 0.4218 0.1585 -0.0546
vt 0.0785 0.0743 0.0028
vt 0.0796 0.1585 -0.0632
vt 0.1257 0.0743 -0.0083
vt 0.1257 0.1585 -0.0691
vt 0.1729 0.0743 0.0028
vt 0.1718 0.1585 -0.0632
vt 0.3356 0.1903 -0.0819
vt 0.2910 0.1903 -0.0799
vt 0.3801 0.1903 -0.0799
vt 0.4207 0.1903 -0.0751
vt 0.0814 0.1903 -0.0794
vt 0.1257 0.1903 -0.0830
vt 0.1700 0.1903 -0.0794
vt 0.0734 0.4348 0.0000
vt 0.0459 0.4431 0.0000
vt 0.0460 0.4325 0.0000
vt 0.0672 0.4260 0.0000
vt 0.0187 0.4342 0.0000
vt 0.0250 0.4256 0.0000
vt 0.0171 0.3625 0.0000
vt 0.0237 0.3703 0.0000
vt 0.0219 0.3588 0.0000
vt 0.0498 0.3532 0.0000
vt 0.0490 0.3631 0.0000
vt 0.0275 0.3674 0.0000
vt 0.0765 0.3631 0.0000
vt 0.0696 0.3707 0.0000
vt 0.8921 0.2793 0.0000
vt 0.8921 0.2871 0.0000
vt 0.6747 0.2793 0.0000
vt 0.6969 0.2793 0.0000
vt 0.6969 0.2871 0.0000
vt 0.6747 0.2871 0.0000
vt 0.7189 0.2793 0.0000
vt 0.7189 0.2871 0.0000
vt 0.4364 0.1143 0.0000
vt 0.4582 0.1074 0.0000
vt 0.4799 0.1145 0.0000
vt 0.4795 0.1707 0.0000
vt 0.4578 0.1768 0.0000
vt 0.4361 0.1705 0.0000
vt 0.2489 0.3526 0.0000
vt 0.2077 0.3526 0.0000
vt 0.2077 0.3291 0.0000
vt 0.2489 0.3291 0.0000
vt 0.0844 0.3526 0.0000
vt 0.0844 0.3291 0.0000
vt 0.0432 0.3526 0.0000
vt 0.0432 0.3291 0.0000
vt 0.0010 0.3526 0.0000
vt 0.0010 0.3291 0.0000
vt 0.4131 0.3526 0.0000
vt 0.4131 0.3291 0.0000
vt 0.2901 0.3526 0.0000
vt 0.2901 0.3291 0.0000
vt 0.1149 0.2793 0.0000
vt 0.1442 0.2793 0.0000
vt 0.1442 0.3286 0.0000
vt 0.1149 0.3286 0.0000
vt 0.2319 0.2793 0.0000
vt 0.2319 0.3286 0.0000
vt 0.2612 0.2793 0.0000
vt 0.2612 0.3286 0.0000
vt 0.2917 0.2793 0.0000
vt 0.2917 0.3286 0.0000
vt 0.0010 0.2793 0.0000
vt 0.0010 0.3286 0.0000
vt 0.0856 0.2793 0.0000
vt 0.0856 0.3286 0.0000
vt 0.2915 0.0010 0.0745
vt 0.3356 0.0010 0.0686
vt 0.1698 0.0010 0.0745
vt 0.1257 0.0010 0.0686
vt 0.0817 0.0010 0.0745
vt 0.4207 0.0010 0.0830
vt 0.3796 0.0010 0.0745
vt 0.4150 0.2623 -0.0009
vt 0.4884 0.2623 -0.0036
vt 0.5635 0.2623 -0.0045
vt 0.6406 0.2623 -0.0027
vt 0.0459 0.2623 -0.0008
vt 0.1203 0.2623 -0.0038
vt 0.2947 0.2038 -0.0012
vt 0.2824 0.2038 -0.0009
vt 0.7216 0.4504 0.0000
vt 0.6314 0.4504 0.0000
vt 0.6314 0.4478 0.0000
vt 0.7216 0.4478 0.0000
vt 0.5415 0.4504 0.0000
vt 0.5415 0.4478 0.0000
vt 0.4526 0.4504 0.0000
vt 0.4526 0.4478 0.0000
vt 0.3629 0.4504 0.0000
vt 0.3629 0.4478 0.0000
vt 0.2721 0.4504 0.0000
vt 0.2721 0.4478 0.0000
vt 0.9946 0.4504 0.0000
vt 0.9782 0.4504 0.0000
vt 0.9782 0.4478 0.0000
vt 0.9946 0.4478 0.0000
vt 0.9566 0.4504 0.0000
vt 0.9566 0.4478 0.0000
vt 0.9015 0.4504 0.0000
vt 0.9015 0.4478 0.0000
vt 0.8119 0.4504 0.0000
vt 0.8119 0.4478 0.0000
vt 0.3319 0.4074 0.0000
vt 0.3572 0.4074 0.0000
vt 0.3572 0.4110 0.0000
vt 0.3319 0.4110 0.0000
vt 0.3826 0.4074 0.0000
vt 0.3826 0.4110 0.0000
vt 0.4624 0.3532 0.0000
vt 0.5263 0.3532 0.0000
vt 0.5263 0.3567 0.0000
vt 0.4624 0.3567 0.0000
vt 0.5903 0.3532 0.0000
vt 0.5903 0.3567 0.0000
vt 0.5108 0.4067 0.0000
vt 0.4881 0.4067 0.0000
vt 0.4881 0.4032 0.0000
vt 0.5108 0.4032 0.0000
vt 0.4626 0.4067 0.0000
vt 0.4626 0.4032 0.0000
vt 0.4137 0.3454 0.0000
vt 0.4771 0.3454 0.0000
vt 0.4771 0.3490 0.0000
vt 0.4137 0.3490 0.0000
vt 0.5406 0.3454 0.0000
vt 0.5406 0.3490 0.0000
vt 0.5490 0.1647 0.0000
vt 0.5213 0.1647 0.0000
vt 0.5213 0.1611 0.0000
vt 0.5490 0.1611 0.0000
vt 0.4937 0.1647 0.0000
vt 0.4937 0.1611 0.0000
vt 0.9289 0.0801 0.0000
vt 0.8640 0.0801 0.0000
vt 0.8640 0.0764 0.0000
vt 0.9289 0.0764 0.0000
vt 0.7993 0.0801 0.0000
vt 0.7993 0.0764 0.0000
vt 0.2121 0.5008 0.0000
vt 0.2381 0.5008 0.0000
vt 0.2381 0.5044 0.0000
vt 0.2121 0.5044 0.0000
vt 0.2641 0.5008 0.0000
vt 0.2641 0.5044 0.0000
vt 0.5420 0.3448 0.0000
vt 0.4779 0.3448 0.0000
vt 0.4779 0.3411 0.0000
vt 0.5420 0.3411 0.0000
vt 0.4137 0.3448 0.0000
vt 0.4137 0.3411 0.0000
vt 0.2061 0.4602 0.0000
vt 0.1798 0.4602 0.0000
vt 0.1798 0.4566 0.0000
vt 0.2061 0.4566 0.0000
vt 0.1524 0.4602 0.0000
vt 0.1524 0.4566 0.0000
vt 0.4213 0.3001 0.0000
vt 0.3567 0.3001 0.0000
vt 0.3567 0.2965 0.0000
vt 0.4213 0.2965 0.0000
vt 0.2923 0.3001 0.0000
vt 0.2923 0.2965 0.0000
vt 0.9634 0.3327 0.0000
vt 0.9379 0.3327 0.0000
vt 0.9379 0.3291 0.0000
vt 0.9634 0.3291 0.0000
vt 0.9108 0.3327 0.0000
vt 0.9108 0.3291 0.0000
vt 0.7818 0.3334 0.0000
vt 0.8461 0.3334 0.0000
vt 0.8461 0.3370 0.0000
vt 0.7818 0.3370 0.0000
vt 0.9104 0.3334 0.0000
vt 0.9104 0.3370 0.0000
vt 0.9173 0.2426 0.0000
vt 0.9441 0.2426 0.0000
vt 0.9441 0.2462 0.0000
vt 0.9173 0.2462 0.0000
vt 0.9709 0.2426 0.0000
vt 0.9709 0.2462 0.0000
vt 0.6747 0.2877 0.0000
vt 0.7392 0.2877 0.0000
vt 0.7392 0.2913 0.0000
vt 0.6747 0.2913 0.0000
vt 0.8037 0.2877 0.0000
vt 0.8037 0.2913 0.0000
vt 0.6067 0.1629 0.0000
vt 0.5802 0.1629 0.0000
vt 0.5802 0.1592 0.0000
vt 0.6067 0.1592 0.0000
vt 0.5537 0.1629 0.0000
vt 0.5537 0.1592 0.0000
vt 0.0619 0.4737 0.0000
vt 0.0029 0.4991 0.0000
vt 0.7739 0.2714 0.0000
vt 0.8383 0.2704 0.0000
vt 0.8384 0.2741 0.0000
vt 0.7737 0.2751 0.0000
vt 0.6734 0.1550 0.0000
vt 0.6996 0.1550 0.0000
vt 0.6996 0.1586 0.0000
vt 0.6734 0.1586 0.0000
vt 0.7257 0.1550 0.0000
vt 0.7257 0.1586 0.0000
vt 0.7818 0.3291 0.0000
vt 0.8460 0.3291 0.0000
vt 0.8460 0.3328 0.0000
vt 0.7818 0.3328 0.0000
vt 0.9102 0.3291 0.0000
vt 0.9102 0.3328 0.0000
vt 0.8575 0.2456 0.0000
vt 0.8854 0.2456 0.0000
vt 0.8854 0.2493 0.0000
vt 0.8575 0.2493 0.0000
vt 0.9132 0.2456 0.0000
vt 0.9132 0.2493 0.0000
vt 0.3319 0.3532 0.0000
vt 0.3965 0.3532 0.0000
vt 0.3965 0.3568 0.0000
vt 0.3319 0.3568 0.0000
vt 0.4618 0.3532 0.0000
vt 0.4618 0.3568 0.0000
vt 0.7168 0.2959 0.0000
vt 0.6461 0.2959 0.0000
vt 0.6461 0.2922 0.0000
vt 0.7168 0.2922 0.0000
vt 0.5762 0.2959 0.0000
vt 0.5762 0.2922 0.0000
vt 0.5075 0.2959 0.0000
vt 0.5075 0.2922 0.0000
vt 0.4379 0.2959 0.0000
vt 0.4379 0.2922 0.0000
vt 0.3656 0.2959 0.0000
vt 0.3656 0.2922 0.0000
vt 0.2923 0.2959 0.0000
vt 0.2923 0.2922 0.0000
vt 0.9990 0.2959 0.0000
vt 0.9287 0.2959 0.0000
vt 0.9287 0.2922 0.0000
vt 0.9990 0.2922 0.0000
vt 0.8594 0.2959 0.0000
vt 0.8594 0.2922 0.0000
vt 0.7886 0.2959 0.0000
vt 0.7886 0.2922 0.0000
vt 0.9439 0.2830 0.0000
vt 0.8934 0.2829 0.0000
vt 0.8927 0.2793 0.0000
vt 0.9447 0.2795 0.0000
vt 0.7332 0.1074 0.0000
vt 0.7977 0.1074 0.0000
vt 0.7977 0.1110 0.0000
vt 0.7332 0.1110 0.0000
vt 0.8622 0.1074 0.0000
vt 0.8622 0.1110 0.0000
vt 0.2923 0.3007 0.0000
vt 0.3566 0.3007 0.0000
vt 0.3566 0.3043 0.0000
vt 0.2923 0.3043 0.0000
vt 0.4209 0.3007 0.0000
vt 0.4209 0.3043 0.0000
vt 0.9303 0.0764 0.0000
vt 0.9800 0.0766 0.0000
vt 0.9807 0.0801 0.0000
vt 0.9294 0.0799 0.0000
vt 0.3319 0.4032 0.0000
vt 0.3970 0.4032 0.0000
vt 0.3970 0.4068 0.0000
vt 0.3319 0.4068 0.0000
vt 0.4620 0.4032 0.0000
vt 0.4620 0.4068 0.0000
vt 0.7428 0.2592 0.0000
vt 0.7428 0.2060 0.0000
vt 0.7463 0.2051 0.0000
vt 0.7463 0.2599 0.0000
vt 0.5425 0.3411 0.0000
vt 0.6068 0.3411 0.0000
vt 0.6068 0.3448 0.0000
vt 0.5425 0.3448 0.0000
vt 0.6711 0.3411 0.0000
vt 0.6711 0.3448 0.0000
vt 0.1429 0.4645 0.0000
vt 0.0935 0.4641 0.0000
vt 0.0926 0.4606 0.0000
vt 0.1437 0.4610 0.0000
vt 0.4007 0.4546 0.0000
vt 0.3366 0.4546 0.0000
vt 0.3366 0.4510 0.0000
vt 0.4007 0.4510 0.0000
vt 0.2721 0.4546 0.0000
vt 0.2721 0.4510 0.0000
vt 0.0513 0.7056 0.0000
vt 0.0018 0.7058 0.0000
vt 0.0010 0.7022 0.0000
vt 0.0521 0.7020 0.0000
vt 0.9282 0.0843 0.0000
vt 0.8637 0.0843 0.0000
vt 0.8637 0.0807 0.0000
vt 0.9282 0.0807 0.0000
vt 0.7993 0.0843 0.0000
vt 0.7993 0.0807 0.0000
vt 0.4740 0.1809 0.0000
vt 0.4236 0.1814 0.0000
vt 0.4228 0.1779 0.0000
vt 0.4749 0.1774 0.0000
vt 0.9905 0.1109 0.0000
vt 0.9274 0.1109 0.0000
vt 0.9274 0.1074 0.0000
vt 0.9905 0.1074 0.0000
vt 0.8628 0.1109 0.0000
vt 0.8628 0.1074 0.0000
vt 0.8517 0.2911 0.0000
vt 0.8050 0.2914 0.0000
vt 0.8043 0.2880 0.0000
vt 0.8525 0.2877 0.0000
vt 0.5511 0.3000 0.0000
vt 0.4869 0.3000 0.0000
vt 0.4869 0.2965 0.0000
vt 0.5511 0.2965 0.0000
vt 0.4218 0.3000 0.0000
vt 0.4218 0.2965 0.0000
vt 0.6654 0.1618 0.0000
vt 0.6143 0.1620 0.0000
vt 0.6135 0.1586 0.0000
vt 0.6662 0.1583 0.0000
vt 0.4591 0.3610 0.0000
vt 0.3953 0.3610 0.0000
vt 0.3953 0.3573 0.0000
vt 0.4591 0.3573 0.0000
vt 0.3319 0.3610 0.0000
vt 0.3319 0.3573 0.0000
vt 0.3188 0.4590 0.0000
vt 0.2728 0.4587 0.0000
vt 0.2721 0.4552 0.0000
vt 0.3195 0.4555 0.0000
vt 0.8597 0.1152 0.0000
vt 0.7964 0.1152 0.0000
vt 0.7964 0.1116 0.0000
vt 0.8597 0.1116 0.0000
vt 0.7332 0.1152 0.0000
vt 0.7332 0.1116 0.0000
vt 0.8000 0.0850 0.0000
vt 0.8439 0.0848 0.0000
vt 0.8446 0.0884 0.0000
vt 0.7993 0.0886 0.0000
# 682 texture coords

o Sphere002
g Sphere002
usemtl Material__165
s 1
f 1/1/1 2/2/2 3/3/3 
f 1/1/1 3/3/3 4/4/4 
f 1/1/1 4/4/4 5/5/5 
f 1/1/1 5/5/5 6/6/6 
f 1/1/1 6/6/6 7/7/7 
f 1/1/1 7/7/7 8/8/8 
f 1/1/1 8/8/8 9/9/9 
f 1/1/1 9/9/9 10/10/10 
f 1/1/1 10/10/10 11/11/11 
f 1/1/1 11/11/11 2/2/2 
f 12/12/12 13/13/13 14/14/14 15/15/15 
f 16/16/16 17/17/17 18/18/18 19/19/19 
usemtl Material__167
f 20/20/20 21/21/21 22/22/22 23/23/23 
f 24/24/24 25/25/25 26/26/26 
f 27/27/27 28/28/28 29/29/29 
usemtl Material__165
f 30/30/30 31/31/31 32/32/32 
f 30/30/30 33/33/33 31/31/31 
f 30/30/30 34/34/34 33/33/33 
f 30/30/30 35/35/35 34/34/34 
f 30/30/30 36/36/36 35/35/35 
f 30/30/30 37/37/37 36/36/36 
f 30/30/30 38/38/38 37/37/37 
f 30/30/30 39/39/39 38/38/38 
f 30/30/30 40/40/40 39/39/39 
f 30/30/30 32/32/32 40/40/40 
s 2
f 12/41/12 15/42/15 41/43/41 42/44/42 
f 16/45/16 19/46/19 43/47/43 44/48/44 
s 1
f 45/49/45 46/50/46 47/51/47 48/52/48 
f 49/53/49 50/54/50 51/55/51 52/56/52 
f 48/52/48 47/51/47 53/57/53 54/58/54 
f 52/56/52 51/55/51 55/59/55 56/60/56 
usemtl Material__166
s off
f 54/61/54 53/62/53 57/63/57 58/64/58 
f 56/65/56 55/66/55 59/67/59 60/68/60 
f 61/69/61 62/70/62 63/71/63 64/72/64 
f 62/70/62 65/73/65 66/74/66 63/71/63 
f 58/75/58 57/76/57 67/77/67 68/78/68 
f 60/79/60 59/80/59 69/81/69 70/82/70 
usemtl Material__165
f 68/83/68 67/84/67 38/38/38 39/39/39 
f 70/85/70 69/86/69 33/33/33 34/34/34 
usemtl Material__171
f 71/87/71 72/88/72 73/89/73 74/90/74 
f 75/91/75 76/92/76 77/93/77 78/94/78 
usemtl Material__166
s 4
f 79/95/79 80/96/80 81/97/81 82/98/82 
f 80/96/80 42/99/42 71/100/71 81/97/81 
f 42/99/42 41/101/41 72/102/72 71/100/71 
f 41/101/41 83/103/83 84/104/84 72/102/72 
f 83/103/83 85/105/85 86/106/86 84/104/84 
f 85/105/85 87/107/87 88/108/88 86/106/86 
f 87/109/87 44/110/44 75/111/75 88/112/88 
f 44/110/44 43/113/43 76/114/76 75/111/75 
f 43/113/43 89/115/89 90/116/90 76/114/76 
f 89/115/89 79/95/79 82/98/82 90/116/90 
f 91/117/91 92/118/92 93/119/93 94/120/94 
f 92/118/92 95/121/95 96/122/96 93/119/93 
f 95/121/95 97/123/97 77/124/77 96/122/96 
f 97/123/97 98/125/98 78/126/78 77/124/77 
f 98/125/98 99/127/99 100/128/100 78/126/78 
f 99/129/99 101/130/101 102/131/102 100/132/100 
f 101/130/101 103/133/103 104/134/104 102/131/102 
f 103/133/103 105/135/105 73/136/73 104/134/104 
f 105/135/105 106/137/106 74/138/74 73/136/73 
f 106/137/106 91/117/91 94/120/94 74/138/74 
usemtl Material__165
s 8
f 106/139/106 105/140/105 5/141/5 4/142/4 
f 98/143/98 97/144/97 10/145/10 9/146/9 
usemtl Material__168
s 1
f 107/147/107 108/148/108 109/149/109 
f 110/150/110 111/151/111 112/152/112 
f 113/153/113 114/154/114 115/155/115 
usemtl Material__170
f 116/156/116 117/157/117 118/158/118 
usemtl Material__168
f 119/159/119 120/160/120 121/161/121 
f 122/162/122 123/163/123 124/164/124 
f 125/165/125 126/166/126 127/167/127 
f 128/168/128 129/169/129 130/170/130 
f 131/171/131 132/172/132 133/173/133 
f 134/174/134 135/175/135 136/176/136 
usemtl Material__165
f 137/177/137 50/54/50 49/53/49 138/178/138 
f 139/179/139 46/50/46 45/49/45 140/180/140 
usemtl Material__168
f 141/181/141 142/182/142 143/183/143 
f 115/155/115 114/154/114 144/184/144 
f 143/183/143 142/182/142 145/185/145 
usemtl Material__170
f 146/186/146 147/187/147 148/188/148 
usemtl Material__168
f 121/161/121 120/160/120 149/189/149 
usemtl Material__170
f 150/190/150 151/191/151 152/192/152 
usemtl Material__168
f 124/164/124 123/163/123 153/193/153 
usemtl Material__170
f 154/194/154 155/195/155 156/196/156 
usemtl Material__168
f 127/167/127 126/166/126 157/197/157 
usemtl Material__164
f 22/198/22 21/199/21 158/200/158 159/201/159 
f 160/202/160 161/203/161 162/204/162 158/205/158 
usemtl Material__170
f 163/206/163 164/207/164 165/208/165 
usemtl Material__168
f 130/170/130 129/169/129 166/209/166 
usemtl Material__170
f 167/210/167 168/211/168 169/212/169 
usemtl Material__168
f 133/173/133 132/172/132 170/213/170 
usemtl Material__170
f 171/214/171 172/215/172 173/216/173 
usemtl Material__168
f 136/176/136 135/175/135 174/217/174 
usemtl Material__170
f 175/218/175 176/219/176 177/220/177 
usemtl Material__168
f 109/149/109 108/148/108 178/221/178 
usemtl Material__170
f 179/222/179 180/223/180 181/224/181 
usemtl Material__168
f 112/152/112 111/151/111 182/225/182 
usemtl Material__164
f 183/226/183 184/227/184 185/228/185 29/29/29 
f 186/229/186 187/230/187 188/231/188 185/228/185 
usemtl Material__170
f 189/232/189 190/233/190 191/234/191 
usemtl Material__167
f 184/227/184 183/226/183 192/235/192 193/236/193 
f 188/231/188 25/25/25 24/24/24 27/27/27 
f 194/237/194 195/238/195 196/239/196 
f 197/240/197 198/241/198 199/242/199 
f 200/243/200 201/244/201 202/245/202 
f 203/246/203 204/247/204 205/248/205 
f 162/204/162 204/247/204 203/246/203 206/249/206 
f 206/250/206 207/251/207 159/201/159 
f 208/252/208 209/253/209 210/254/210 
f 211/255/211 212/256/212 213/257/213 
f 214/258/214 215/259/215 216/260/216 
usemtl Material__165
f 217/261/217 218/262/218 219/263/219 220/264/220 
f 13/13/13 12/12/12 218/262/218 217/261/217 
f 221/265/221 222/266/222 15/15/15 14/14/14 
f 223/267/223 224/268/224 222/266/222 221/265/221 
f 225/269/225 226/270/226 224/268/224 223/267/223 
f 17/17/17 16/16/16 226/270/226 225/269/225 
f 227/271/227 228/272/228 19/273/19 18/274/18 
f 220/264/220 219/263/219 228/272/228 227/271/227 
usemtl Material__167
f 229/275/229 230/276/230 231/277/231 232/278/232 
f 233/279/233 234/280/234 235/281/235 236/282/236 
f 186/229/186 184/227/184 193/236/193 187/230/187 
f 237/283/237 238/284/238 239/285/239 192/235/192 
f 240/286/240 241/287/241 242/288/242 239/285/239 
f 243/289/243 244/290/244 245/291/245 242/288/242 
f 246/292/246 161/203/161 20/20/20 245/291/245 
f 247/293/247 248/294/248 249/295/249 23/296/23 
f 250/297/250 232/278/232 231/277/231 249/295/249 
f 251/298/251 252/299/252 214/258/214 216/260/216 
f 253/300/253 254/301/254 194/237/194 196/239/196 
f 255/302/255 256/303/256 197/240/197 199/242/199 
f 257/304/257 258/305/258 200/243/200 202/245/202 
f 259/306/259 260/307/260 203/246/203 205/248/205 
f 158/205/158 162/204/162 206/249/206 159/308/159 
f 261/309/261 262/310/262 208/252/208 210/254/210 
f 263/311/263 264/312/264 211/255/211 213/257/213 
usemtl Material__165
s 2
f 219/313/219 218/314/218 80/315/80 79/316/79 
f 218/314/218 12/41/12 42/44/42 80/315/80 
f 15/42/15 222/317/222 83/318/83 41/43/41 
f 222/317/222 224/319/224 85/320/85 83/318/83 
f 224/319/224 226/321/226 87/322/87 85/320/85 
f 226/321/226 16/45/16 44/48/44 87/322/87 
f 19/323/19 228/324/228 89/325/89 43/326/43 
f 228/324/228 219/313/219 79/316/79 89/325/89 
s 1
f 265/327/265 266/328/266 267/329/267 268/330/268 
f 266/328/266 269/331/269 270/332/270 267/329/267 
f 269/331/269 45/333/45 48/334/48 270/332/270 
f 46/50/46 271/335/271 272/336/272 47/51/47 
f 271/335/271 273/337/273 274/338/274 272/336/272 
f 273/337/273 275/339/275 276/340/276 274/338/274 
f 275/339/275 49/53/49 52/56/52 276/340/276 
f 50/54/50 265/327/265 268/330/268 51/55/51 
f 268/330/268 267/329/267 277/341/277 278/342/278 
f 267/329/267 270/332/270 279/343/279 277/341/277 
f 270/332/270 48/334/48 54/344/54 279/343/279 
f 47/51/47 272/336/272 280/345/280 53/57/53 
f 272/336/272 274/338/274 281/346/281 280/345/280 
f 274/338/274 276/340/276 282/347/282 281/346/281 
f 276/340/276 52/56/52 56/60/56 282/347/282 
f 51/55/51 268/330/268 278/342/278 55/59/55 
usemtl Material__166
s off
f 278/348/278 277/349/277 62/350/62 61/351/61 
f 277/349/277 279/352/279 65/353/65 62/350/62 
f 279/352/279 54/61/54 58/64/58 65/353/65 
f 53/62/53 280/354/280 283/355/283 57/63/57 
f 280/356/280 281/357/281 284/358/284 283/359/283 
f 281/357/281 282/360/282 285/361/285 284/358/284 
f 282/360/282 56/65/56 60/68/60 285/361/285 
f 55/66/55 278/348/278 61/351/61 59/67/59 
f 65/73/65 58/75/58 68/78/68 66/74/66 
f 57/76/57 283/362/283 286/363/286 67/77/67 
f 283/364/283 284/365/284 287/366/287 286/367/286 
f 284/365/284 285/368/285 288/369/288 287/366/287 
f 285/368/285 60/79/60 70/82/70 288/369/288 
f 59/80/59 61/69/61 64/72/64 69/81/69 
usemtl Material__165
f 64/370/64 63/371/63 32/32/32 31/31/31 
f 63/371/63 66/372/66 40/40/40 32/32/32 
f 66/372/66 68/83/68 39/39/39 40/40/40 
f 67/84/67 286/373/286 37/37/37 38/38/38 
f 286/373/286 287/374/287 36/36/36 37/37/37 
f 287/374/287 288/375/288 35/35/35 36/36/36 
f 288/375/288 70/85/70 34/34/34 35/35/35 
f 69/86/69 64/370/64 31/31/31 33/33/33 
usemtl Material__171
f 82/376/82 81/377/81 94/378/94 93/379/93 
f 81/377/81 71/87/71 74/90/74 94/378/94 
f 72/88/72 84/380/84 104/381/104 73/89/73 
f 84/380/84 86/382/86 102/383/102 104/381/104 
f 86/382/86 88/384/88 100/385/100 102/383/102 
f 88/386/88 75/91/75 78/94/78 100/387/100 
f 76/92/76 90/388/90 96/389/96 77/93/77 
f 90/388/90 82/376/82 93/379/93 96/389/96 
usemtl Material__165
s 8
f 92/390/92 91/391/91 3/392/3 2/393/2 
f 91/391/91 106/139/106 4/142/4 3/392/3 
f 105/140/105 103/394/103 6/395/6 5/141/5 
f 103/394/103 101/396/101 7/397/7 6/395/6 
f 101/396/101 99/398/99 8/399/8 7/397/7 
f 99/400/99 98/143/98 9/146/9 8/401/8 
f 97/144/97 95/402/95 11/403/11 10/145/10 
f 95/402/95 92/390/92 2/393/2 11/403/11 
s 1
f 266/328/266 265/327/265 289/404/289 290/405/290 
f 265/327/265 50/54/50 137/177/137 289/404/289 
f 138/178/138 49/53/49 275/339/275 291/406/291 
f 291/406/291 275/339/275 273/337/273 292/407/292 
f 273/337/273 271/335/271 293/408/293 292/407/292 
f 271/335/271 46/50/46 139/179/139 293/408/293 
f 140/409/140 45/333/45 269/331/269 294/410/294 
f 294/410/294 269/331/269 266/328/266 290/405/290 
usemtl Material__164
f 295/411/295 183/226/183 254/301/254 253/300/253 
f 253/300/253 196/239/196 238/284/238 237/283/237 
f 240/286/240 255/302/255 199/242/199 241/287/241 
f 238/284/238 256/303/256 255/302/255 296/412/296 
f 243/289/243 257/304/257 202/245/202 244/290/244 
f 241/287/241 258/305/258 257/304/257 297/413/297 
f 246/292/246 259/306/259 205/248/205 161/203/161 
f 298/414/298 244/290/244 260/307/260 259/306/259 
f 247/293/247 261/309/261 210/254/210 248/294/248 
f 22/198/22 262/310/262 261/309/261 299/415/299 
f 250/297/250 263/311/263 213/257/213 232/278/232 
f 300/416/300 248/294/248 264/312/264 263/311/263 
f 230/276/230 251/298/251 216/260/216 236/282/236 
f 232/278/232 252/299/252 251/298/251 229/275/229 
usemtl Material__167
f 230/276/230 236/282/236 235/281/235 231/277/231 
f 300/416/300 250/297/250 249/295/249 248/294/248 
f 299/415/299 247/293/247 23/296/23 22/198/22 
f 160/202/160 21/21/21 20/20/20 161/203/161 
f 298/414/298 246/292/246 245/291/245 244/290/244 
f 297/413/297 243/289/243 242/288/242 241/287/241 
f 296/412/296 240/286/240 239/285/239 238/284/238 
f 295/411/295 237/283/237 192/235/192 183/226/183 
usemtl Material__164
f 234/280/234 301/417/301 26/26/26 187/230/187 
f 236/282/236 302/418/302 301/417/301 233/279/233 
usemtl Material__167
f 234/280/234 187/230/187 193/236/193 235/281/235 
f 302/418/302 215/259/215 214/258/214 24/24/24 
f 301/417/301 302/418/302 24/24/24 26/26/26 
f 185/228/185 188/231/188 27/27/27 29/29/29 
f 28/28/28 27/27/27 194/237/194 254/301/254 
f 195/238/195 194/237/194 197/240/197 256/303/256 
f 258/305/258 198/241/198 197/240/197 200/243/200 
f 260/307/260 201/244/201 200/243/200 203/246/203 
f 207/251/207 206/250/206 208/252/208 262/310/262 
f 209/253/209 208/252/208 211/255/211 264/312/264 
f 252/299/252 212/256/212 211/255/211 214/258/214 
usemtl Material__166
s 2
f 217/419/217 220/420/220 231/421/231 235/422/235 
f 220/420/220 227/423/227 249/424/249 231/421/231 
f 227/423/227 18/425/18 23/426/23 249/424/249 
f 18/425/18 17/427/17 20/428/20 23/426/23 
f 17/427/17 225/429/225 245/430/245 20/428/20 
f 225/431/225 223/432/223 242/433/242 245/434/245 
f 223/432/223 221/435/221 239/436/239 242/433/242 
f 221/435/221 14/437/14 192/438/192 239/436/239 
f 14/437/14 13/439/13 193/440/193 192/438/192 
f 13/439/13 217/419/217 235/422/235 193/440/193 
f 174/441/174 135/442/135 212/443/212 252/444/252 
f 135/442/135 134/445/134 213/446/213 212/443/212 
s off
f 134/447/134 136/448/136 232/449/232 213/450/213 
f 136/448/136 174/451/174 252/452/252 232/449/232 
s 2
f 178/453/178 108/454/108 215/455/215 302/456/302 
f 108/454/108 107/457/107 216/458/216 215/455/215 
s off
f 107/459/107 109/460/109 236/461/236 216/462/216 
f 109/460/109 178/463/178 302/464/302 236/461/236 
s 2
f 182/465/182 111/466/111 25/467/25 188/468/188 
f 111/466/111 110/469/110 26/470/26 25/467/25 
s off
f 110/471/110 112/472/112 187/473/187 26/474/26 
f 112/472/112 182/475/182 188/476/188 187/473/187 
s 2
f 144/477/144 114/478/114 28/479/28 254/480/254 
f 114/478/114 113/481/113 29/482/29 28/479/28 
s off
f 113/483/113 115/484/115 183/485/183 29/486/29 
f 115/484/115 144/487/144 254/488/254 183/485/183 
s 2
f 145/489/145 142/490/142 195/491/195 256/492/256 
f 142/490/142 141/493/141 196/494/196 195/491/195 
s off
f 141/495/141 143/496/143 238/497/238 196/498/196 
f 143/496/143 145/499/145 256/500/256 238/497/238 
s 2
f 149/501/149 120/502/120 198/503/198 258/504/258 
f 120/502/120 119/505/119 199/506/199 198/503/198 
s off
f 119/507/119 121/508/121 241/509/241 199/510/199 
f 121/508/121 149/511/149 258/512/258 241/509/241 
s 2
f 153/513/153 123/514/123 201/515/201 260/516/260 
f 123/514/123 122/517/122 202/518/202 201/515/201 
s off
f 122/519/122 124/520/124 244/521/244 202/522/202 
f 124/520/124 153/523/153 260/524/260 244/521/244 
s 2
f 157/525/157 126/526/126 204/527/204 162/528/162 
f 126/526/126 125/529/125 205/530/205 204/527/204 
s off
f 125/165/125 127/167/127 161/531/161 205/532/205 
f 127/533/127 157/534/157 162/535/162 161/536/161 
s 2
f 166/537/166 129/538/129 207/539/207 262/540/262 
f 129/538/129 128/541/128 159/542/159 207/539/207 
s off
f 128/543/128 130/544/130 22/545/22 159/546/159 
f 130/544/130 166/547/166 262/548/262 22/545/22 
s 2
f 170/549/170 132/550/132 209/551/209 264/552/264 
f 132/550/132 131/553/131 210/554/210 209/551/209 
s off
f 131/555/131 133/556/133 248/557/248 210/558/210 
f 133/556/133 170/559/170 264/560/264 248/557/248 
s 2
f 290/561/290 289/562/289 214/563/214 211/564/211 
f 289/562/289 137/565/137 24/566/24 214/563/214 
f 137/565/137 138/567/138 27/568/27 24/566/24 
f 138/567/138 291/569/291 194/570/194 27/568/27 
f 291/569/291 292/571/292 197/572/197 194/570/194 
f 292/571/292 293/573/293 200/574/200 197/572/197 
f 293/575/293 139/576/139 203/577/203 200/578/200 
f 139/576/139 140/579/140 206/580/206 203/577/203 
f 140/579/140 294/581/294 208/582/208 206/580/206 
f 294/581/294 290/561/290 211/564/211 208/582/208 
s off
f 118/583/118 117/584/117 237/585/237 295/586/295 
f 117/587/117 116/588/116 253/589/253 237/590/237 
f 116/588/116 118/591/118 295/592/295 253/589/253 
f 147/593/147 146/594/146 255/595/255 240/596/240 
f 146/594/146 148/597/148 296/598/296 255/595/255 
f 148/599/148 147/600/147 240/601/240 296/602/296 
f 151/603/151 150/604/150 257/605/257 243/606/243 
f 150/604/150 152/607/152 297/608/297 257/605/257 
f 152/609/152 151/610/151 243/611/243 297/612/297 
f 155/613/155 154/614/154 259/615/259 246/616/246 
f 154/614/154 156/617/156 298/618/298 259/615/259 
f 156/619/156 155/620/155 246/621/246 298/622/298 
f 164/623/164 163/624/163 158/625/158 21/626/21 
f 163/624/163 165/627/165 160/628/160 158/625/158 
f 165/629/165 164/630/164 21/631/21 160/632/160 
f 167/633/167 169/634/169 261/635/261 247/636/247 
f 169/634/169 168/637/168 299/638/299 261/635/261 
f 168/639/168 167/640/167 247/641/247 299/642/299 
f 172/643/172 171/644/171 263/645/263 250/646/250 
f 171/644/171 173/647/173 300/648/300 263/645/263 
f 173/649/173 172/650/172 250/651/250 300/652/300 
f 176/653/176 175/654/175 251/655/251 230/656/230 
f 175/654/175 177/657/177 229/658/229 251/655/251 
f 177/659/177 176/660/176 230/661/230 229/662/229 
f 180/663/180 179/664/179 301/665/301 234/666/234 
f 179/664/179 181/667/181 233/668/233 301/665/301 
f 181/669/181 180/670/180 234/671/234 233/672/233 
f 190/673/190 189/674/189 185/675/185 184/676/184 
f 189/674/189 191/677/191 186/678/186 185/675/185 
f 191/679/191 190/680/190 184/681/184 186/682/186 
# 270 polygons - 60 triangles

